%TF.GenerationSoftware,KiCad,Pcbnew,9.0.7*%
%TF.CreationDate,2026-03-02T19:02:58-05:00*%
%TF.ProjectId,blinky_PCB,626c696e-6b79-45f5-9043-422e6b696361,rev?*%
%TF.SameCoordinates,Original*%
%TF.FileFunction,Copper,L1,Top*%
%TF.FilePolarity,Positive*%
%FSLAX46Y46*%
G04 Gerber Fmt 4.6, Leading zero omitted, Abs format (unit mm)*
G04 Created by KiCad (PCBNEW 9.0.7) date 2026-03-02 19:02:58*
%MOMM*%
%LPD*%
G01*
G04 APERTURE LIST*
G04 Aperture macros list*
%AMRoundRect*
0 Rectangle with rounded corners*
0 $1 Rounding radius*
0 $2 $3 $4 $5 $6 $7 $8 $9 X,Y pos of 4 corners*
0 Add a 4 corners polygon primitive as box body*
4,1,4,$2,$3,$4,$5,$6,$7,$8,$9,$2,$3,0*
0 Add four circle primitives for the rounded corners*
1,1,$1+$1,$2,$3*
1,1,$1+$1,$4,$5*
1,1,$1+$1,$6,$7*
1,1,$1+$1,$8,$9*
0 Add four rect primitives between the rounded corners*
20,1,$1+$1,$2,$3,$4,$5,0*
20,1,$1+$1,$4,$5,$6,$7,0*
20,1,$1+$1,$6,$7,$8,$9,0*
20,1,$1+$1,$8,$9,$2,$3,0*%
G04 Aperture macros list end*
%ADD10C,0.300000*%
%ADD11C,0.750000*%
%TA.AperFunction,ComponentPad*%
%ADD12RoundRect,0.875000X-0.875000X-0.875000X0.875000X-0.875000X0.875000X0.875000X-0.875000X0.875000X0*%
%TD*%
%TA.AperFunction,ComponentPad*%
%ADD13RoundRect,0.750000X-0.750000X-1.000000X0.750000X-1.000000X0.750000X1.000000X-0.750000X1.000000X0*%
%TD*%
%TA.AperFunction,ComponentPad*%
%ADD14R,3.500000X3.500000*%
%TD*%
%TA.AperFunction,SMDPad,CuDef*%
%ADD15RoundRect,0.237500X-0.250000X-0.237500X0.250000X-0.237500X0.250000X0.237500X-0.250000X0.237500X0*%
%TD*%
%TA.AperFunction,SMDPad,CuDef*%
%ADD16RoundRect,0.250000X0.450000X-0.325000X0.450000X0.325000X-0.450000X0.325000X-0.450000X-0.325000X0*%
%TD*%
%TA.AperFunction,SMDPad,CuDef*%
%ADD17RoundRect,0.237500X0.300000X0.237500X-0.300000X0.237500X-0.300000X-0.237500X0.300000X-0.237500X0*%
%TD*%
%TA.AperFunction,ComponentPad*%
%ADD18RoundRect,0.250000X-0.550000X0.550000X-0.550000X-0.550000X0.550000X-0.550000X0.550000X0.550000X0*%
%TD*%
%TA.AperFunction,ComponentPad*%
%ADD19C,1.600000*%
%TD*%
%TA.AperFunction,Conductor*%
%ADD20C,0.600000*%
%TD*%
%TA.AperFunction,Conductor*%
%ADD21C,0.400000*%
%TD*%
G04 APERTURE END LIST*
D10*
G36*
X126518722Y-75368361D02*
G01*
X126571710Y-75421349D01*
X126640226Y-75558381D01*
X126640226Y-75773275D01*
X126571709Y-75910307D01*
X126510895Y-75971122D01*
X126373864Y-76039638D01*
X125797369Y-76039638D01*
X125797369Y-75292019D01*
X126289696Y-75292019D01*
X126518722Y-75368361D01*
G37*
G36*
X126415658Y-74408154D02*
G01*
X126476472Y-74468968D01*
X126544988Y-74606000D01*
X126544988Y-74725656D01*
X126476472Y-74862688D01*
X126415658Y-74923501D01*
X126278625Y-74992019D01*
X125797369Y-74992019D01*
X125797369Y-74339638D01*
X126278626Y-74339638D01*
X126415658Y-74408154D01*
G37*
G36*
X132796610Y-75170057D02*
G01*
X132857424Y-75230872D01*
X132925941Y-75367905D01*
X132925941Y-75773275D01*
X132857424Y-75910307D01*
X132796610Y-75971122D01*
X132659579Y-76039638D01*
X132349446Y-76039638D01*
X132212414Y-75971122D01*
X132151600Y-75910307D01*
X132083084Y-75773275D01*
X132083084Y-75367905D01*
X132151600Y-75230872D01*
X132212414Y-75170057D01*
X132349446Y-75101542D01*
X132659579Y-75101542D01*
X132796610Y-75170057D01*
G37*
G36*
X114796609Y-74408154D02*
G01*
X114857423Y-74468968D01*
X114925939Y-74606000D01*
X114925939Y-74820894D01*
X114857422Y-74957926D01*
X114796608Y-75018741D01*
X114659577Y-75087257D01*
X114083082Y-75087257D01*
X114083082Y-74339638D01*
X114659577Y-74339638D01*
X114796609Y-74408154D01*
G37*
G36*
X116796609Y-74408154D02*
G01*
X116857423Y-74468968D01*
X116925939Y-74606000D01*
X116925939Y-74820894D01*
X116857422Y-74957926D01*
X116796608Y-75018741D01*
X116659577Y-75087257D01*
X116083082Y-75087257D01*
X116083082Y-74339638D01*
X116659577Y-74339638D01*
X116796609Y-74408154D01*
G37*
G36*
X112867825Y-75468209D02*
G01*
X112331672Y-75468209D01*
X112599748Y-74663979D01*
X112867825Y-75468209D01*
G37*
G36*
X124582112Y-75468209D02*
G01*
X124045959Y-75468209D01*
X124314035Y-74663979D01*
X124582112Y-75468209D01*
G37*
G36*
X133448163Y-76561860D02*
G01*
X109751336Y-76561860D01*
X109751336Y-74189638D01*
X109973558Y-74189638D01*
X109973558Y-76189638D01*
X109976440Y-76218902D01*
X109998838Y-76272974D01*
X110040222Y-76314358D01*
X110094294Y-76336756D01*
X110152822Y-76336756D01*
X110206894Y-76314358D01*
X110248278Y-76272974D01*
X110270676Y-76218902D01*
X110273558Y-76189638D01*
X110273558Y-75292019D01*
X111116415Y-75292019D01*
X111116415Y-76189638D01*
X111119297Y-76218902D01*
X111141695Y-76272974D01*
X111183079Y-76314358D01*
X111237151Y-76336756D01*
X111295679Y-76336756D01*
X111349751Y-76314358D01*
X111391135Y-76272974D01*
X111413533Y-76218902D01*
X111416415Y-76189638D01*
X111416415Y-76170878D01*
X111784260Y-76170878D01*
X111788409Y-76229258D01*
X111814583Y-76281605D01*
X111858797Y-76319952D01*
X111914322Y-76338460D01*
X111972702Y-76334311D01*
X112025049Y-76308137D01*
X112063396Y-76263923D01*
X112075385Y-76237072D01*
X112231673Y-75768209D01*
X112967824Y-75768209D01*
X113124112Y-76237072D01*
X113136101Y-76263923D01*
X113174448Y-76308137D01*
X113226795Y-76334311D01*
X113285175Y-76338460D01*
X113340700Y-76319952D01*
X113384914Y-76281604D01*
X113411088Y-76229257D01*
X113415237Y-76170877D01*
X113408717Y-76142204D01*
X112757861Y-74189638D01*
X113783082Y-74189638D01*
X113783082Y-76189638D01*
X113785964Y-76218902D01*
X113808362Y-76272974D01*
X113849746Y-76314358D01*
X113903818Y-76336756D01*
X113962346Y-76336756D01*
X114016418Y-76314358D01*
X114057802Y-76272974D01*
X114080200Y-76218902D01*
X114083082Y-76189638D01*
X114083082Y-75387257D01*
X114331174Y-75387257D01*
X114953054Y-76275657D01*
X114972197Y-76297978D01*
X115021554Y-76329431D01*
X115079190Y-76339602D01*
X115136331Y-76326943D01*
X115184279Y-76293380D01*
X115215733Y-76244022D01*
X115225903Y-76186387D01*
X115213244Y-76129245D01*
X115198824Y-76103618D01*
X114697216Y-75387037D01*
X114724251Y-75384375D01*
X114729228Y-75382313D01*
X114734606Y-75381931D01*
X114762069Y-75371421D01*
X114952545Y-75276183D01*
X114965140Y-75268254D01*
X114968799Y-75266739D01*
X114972916Y-75263359D01*
X114977431Y-75260518D01*
X114980028Y-75257523D01*
X114991530Y-75248084D01*
X115086768Y-75152845D01*
X115096206Y-75141343D01*
X115099200Y-75138748D01*
X115102040Y-75134235D01*
X115105423Y-75130114D01*
X115106939Y-75126452D01*
X115114865Y-75113862D01*
X115210103Y-74923386D01*
X115220613Y-74895922D01*
X115220994Y-74890546D01*
X115223057Y-74885568D01*
X115225939Y-74856304D01*
X115225939Y-74570590D01*
X115223057Y-74541326D01*
X115220994Y-74536347D01*
X115220613Y-74530972D01*
X115210103Y-74503508D01*
X115114865Y-74313032D01*
X115106937Y-74300438D01*
X115105422Y-74296779D01*
X115102040Y-74292659D01*
X115099200Y-74288146D01*
X115096206Y-74285549D01*
X115086767Y-74274048D01*
X115002357Y-74189638D01*
X115783082Y-74189638D01*
X115783082Y-76189638D01*
X115785964Y-76218902D01*
X115808362Y-76272974D01*
X115849746Y-76314358D01*
X115903818Y-76336756D01*
X115962346Y-76336756D01*
X116016418Y-76314358D01*
X116057802Y-76272974D01*
X116080200Y-76218902D01*
X116083082Y-76189638D01*
X116083082Y-75387257D01*
X116331174Y-75387257D01*
X116953054Y-76275657D01*
X116972197Y-76297978D01*
X117021554Y-76329431D01*
X117079190Y-76339602D01*
X117136331Y-76326943D01*
X117184279Y-76293380D01*
X117215733Y-76244022D01*
X117225903Y-76186387D01*
X117213244Y-76129245D01*
X117198824Y-76103618D01*
X116697216Y-75387037D01*
X116724251Y-75384375D01*
X116729228Y-75382313D01*
X116734606Y-75381931D01*
X116762069Y-75371421D01*
X116952545Y-75276183D01*
X116965140Y-75268254D01*
X116968799Y-75266739D01*
X116972916Y-75263359D01*
X116977431Y-75260518D01*
X116980028Y-75257523D01*
X116991530Y-75248084D01*
X117086768Y-75152845D01*
X117096206Y-75141343D01*
X117099200Y-75138748D01*
X117102040Y-75134235D01*
X117105423Y-75130114D01*
X117106939Y-75126452D01*
X117114865Y-75113862D01*
X117210103Y-74923386D01*
X117220613Y-74895922D01*
X117220994Y-74890546D01*
X117223057Y-74885568D01*
X117225939Y-74856304D01*
X117225939Y-74570590D01*
X117223057Y-74541326D01*
X117220994Y-74536347D01*
X117220613Y-74530972D01*
X117210103Y-74503508D01*
X117114865Y-74313032D01*
X117106937Y-74300438D01*
X117105422Y-74296779D01*
X117102040Y-74292659D01*
X117099200Y-74288146D01*
X117096206Y-74285549D01*
X117086767Y-74274048D01*
X117002357Y-74189638D01*
X117783082Y-74189638D01*
X117783082Y-76189638D01*
X117785964Y-76218902D01*
X117808362Y-76272974D01*
X117849746Y-76314358D01*
X117903818Y-76336756D01*
X117962346Y-76336756D01*
X118016418Y-76314358D01*
X118057802Y-76272974D01*
X118080200Y-76218902D01*
X118083082Y-76189638D01*
X118083082Y-74570590D01*
X118640225Y-74570590D01*
X118640225Y-74761066D01*
X118643107Y-74790330D01*
X118645168Y-74795307D01*
X118645551Y-74800685D01*
X118656061Y-74828148D01*
X118751299Y-75018624D01*
X118759226Y-75031217D01*
X118760742Y-75034877D01*
X118764123Y-75038996D01*
X118766964Y-75043510D01*
X118769958Y-75046106D01*
X118779397Y-75057608D01*
X118874635Y-75152846D01*
X118886136Y-75162285D01*
X118888733Y-75165279D01*
X118893246Y-75168120D01*
X118897366Y-75171501D01*
X118901024Y-75173016D01*
X118913618Y-75180944D01*
X119104094Y-75276183D01*
X119106234Y-75277002D01*
X119107105Y-75277647D01*
X119119384Y-75282034D01*
X119131558Y-75286692D01*
X119132638Y-75286768D01*
X119134797Y-75287540D01*
X119499775Y-75378784D01*
X119653752Y-75455773D01*
X119714566Y-75516587D01*
X119783082Y-75653619D01*
X119783082Y-75773275D01*
X119714565Y-75910307D01*
X119653751Y-75971122D01*
X119516720Y-76039638D01*
X119100279Y-76039638D01*
X118837659Y-75952098D01*
X118808986Y-75945578D01*
X118750605Y-75949727D01*
X118698258Y-75975901D01*
X118659911Y-76020115D01*
X118641403Y-76075639D01*
X118645552Y-76134020D01*
X118671726Y-76186367D01*
X118715940Y-76224714D01*
X118742791Y-76236702D01*
X119028505Y-76331940D01*
X119043012Y-76335238D01*
X119046675Y-76336756D01*
X119051983Y-76337278D01*
X119057178Y-76338460D01*
X119061127Y-76338179D01*
X119075939Y-76339638D01*
X119552130Y-76339638D01*
X119581394Y-76336756D01*
X119586371Y-76334694D01*
X119591749Y-76334312D01*
X119619212Y-76323802D01*
X119809688Y-76228564D01*
X119822283Y-76220635D01*
X119825942Y-76219120D01*
X119830059Y-76215740D01*
X119834574Y-76212899D01*
X119837171Y-76209904D01*
X119848673Y-76200465D01*
X119943911Y-76105226D01*
X119953349Y-76093724D01*
X119956343Y-76091129D01*
X119959183Y-76086616D01*
X119962566Y-76082495D01*
X119964082Y-76078833D01*
X119972008Y-76066243D01*
X120067246Y-75875767D01*
X120077756Y-75848303D01*
X120078137Y-75842927D01*
X120080200Y-75837949D01*
X120083082Y-75808685D01*
X120083082Y-75618209D01*
X120080200Y-75588945D01*
X120078137Y-75583966D01*
X120077756Y-75578591D01*
X120067246Y-75551127D01*
X119972008Y-75360651D01*
X119964080Y-75348057D01*
X119962565Y-75344398D01*
X119959183Y-75340278D01*
X119956343Y-75335765D01*
X119953349Y-75333168D01*
X119943910Y-75321667D01*
X119848672Y-75226429D01*
X119837170Y-75216990D01*
X119834574Y-75213996D01*
X119830060Y-75211155D01*
X119825941Y-75207774D01*
X119822281Y-75206258D01*
X119809688Y-75198331D01*
X119619212Y-75103093D01*
X119617071Y-75102273D01*
X119616201Y-75101629D01*
X119603945Y-75097250D01*
X119591749Y-75092583D01*
X119590665Y-75092506D01*
X119588510Y-75091736D01*
X119223535Y-75000492D01*
X119069554Y-74923501D01*
X119008741Y-74862688D01*
X118940225Y-74725656D01*
X118940225Y-74606000D01*
X119008741Y-74468968D01*
X119069555Y-74408154D01*
X119206587Y-74339638D01*
X119623028Y-74339638D01*
X119885648Y-74427178D01*
X119914321Y-74433698D01*
X119972702Y-74429549D01*
X120025049Y-74403375D01*
X120063396Y-74359161D01*
X120081904Y-74303637D01*
X120077755Y-74245256D01*
X120051581Y-74192909D01*
X120047810Y-74189638D01*
X122164035Y-74189638D01*
X122164035Y-76189638D01*
X122166917Y-76218901D01*
X122166917Y-76218902D01*
X122189315Y-76272974D01*
X122230699Y-76314358D01*
X122284771Y-76336756D01*
X122314035Y-76339638D01*
X123266416Y-76339638D01*
X123295680Y-76336756D01*
X123349752Y-76314358D01*
X123391136Y-76272974D01*
X123413534Y-76218902D01*
X123413534Y-76170878D01*
X123498547Y-76170878D01*
X123502696Y-76229258D01*
X123528870Y-76281605D01*
X123573084Y-76319952D01*
X123628609Y-76338460D01*
X123686989Y-76334311D01*
X123739336Y-76308137D01*
X123777683Y-76263923D01*
X123789672Y-76237072D01*
X123945960Y-75768209D01*
X124682111Y-75768209D01*
X124838399Y-76237072D01*
X124850388Y-76263923D01*
X124888735Y-76308137D01*
X124941082Y-76334311D01*
X124999462Y-76338460D01*
X125054987Y-76319952D01*
X125099201Y-76281604D01*
X125125375Y-76229257D01*
X125129524Y-76170877D01*
X125123004Y-76142204D01*
X124472148Y-74189638D01*
X125497369Y-74189638D01*
X125497369Y-76189638D01*
X125500251Y-76218901D01*
X125500251Y-76218902D01*
X125522649Y-76272974D01*
X125564033Y-76314358D01*
X125618105Y-76336756D01*
X125647369Y-76339638D01*
X126409274Y-76339638D01*
X126438538Y-76336756D01*
X126443515Y-76334694D01*
X126448893Y-76334312D01*
X126476356Y-76323802D01*
X126666832Y-76228564D01*
X126679427Y-76220635D01*
X126683086Y-76219120D01*
X126687203Y-76215740D01*
X126691718Y-76212899D01*
X126694315Y-76209904D01*
X126705817Y-76200465D01*
X126745908Y-76160374D01*
X129785966Y-76160374D01*
X129785966Y-76218902D01*
X129795243Y-76241299D01*
X129808363Y-76272973D01*
X129849749Y-76314359D01*
X129872547Y-76323802D01*
X129903820Y-76336756D01*
X129933084Y-76339638D01*
X131171179Y-76339638D01*
X131200443Y-76336756D01*
X131254515Y-76314358D01*
X131295899Y-76272974D01*
X131318297Y-76218902D01*
X131318297Y-76160374D01*
X131295899Y-76106302D01*
X131254515Y-76064918D01*
X131200443Y-76042520D01*
X131171179Y-76039638D01*
X130295216Y-76039638D01*
X131182007Y-75152846D01*
X131200662Y-75130115D01*
X131202724Y-75125135D01*
X131206255Y-75121065D01*
X131218243Y-75094214D01*
X131234054Y-75046780D01*
X131783084Y-75046780D01*
X131783084Y-75808685D01*
X131785966Y-75837949D01*
X131788027Y-75842926D01*
X131788410Y-75848304D01*
X131798920Y-75875767D01*
X131894158Y-76066243D01*
X131902085Y-76078836D01*
X131903601Y-76082496D01*
X131906982Y-76086616D01*
X131909823Y-76091129D01*
X131912816Y-76093725D01*
X131922255Y-76105226D01*
X132017494Y-76200466D01*
X132028996Y-76209906D01*
X132031592Y-76212899D01*
X132036101Y-76215737D01*
X132040224Y-76219121D01*
X132043886Y-76220637D01*
X132056478Y-76228564D01*
X132246954Y-76323802D01*
X132274418Y-76334312D01*
X132279793Y-76334693D01*
X132284772Y-76336756D01*
X132314036Y-76339638D01*
X132694989Y-76339638D01*
X132724253Y-76336756D01*
X132729230Y-76334694D01*
X132734608Y-76334312D01*
X132762071Y-76323802D01*
X132952547Y-76228564D01*
X132965142Y-76220635D01*
X132968801Y-76219120D01*
X132972918Y-76215740D01*
X132977433Y-76212899D01*
X132980030Y-76209904D01*
X132991532Y-76200465D01*
X133086770Y-76105226D01*
X133096208Y-76093724D01*
X133099202Y-76091129D01*
X133102042Y-76086616D01*
X133105425Y-76082495D01*
X133106941Y-76078833D01*
X133114867Y-76066243D01*
X133210105Y-75875767D01*
X133220615Y-75848303D01*
X133220996Y-75842927D01*
X133223059Y-75837949D01*
X133225941Y-75808685D01*
X133225941Y-75332495D01*
X133223059Y-75303231D01*
X133220996Y-75298252D01*
X133220615Y-75292877D01*
X133210105Y-75265413D01*
X133114867Y-75074937D01*
X133106941Y-75062346D01*
X133105425Y-75058685D01*
X133102042Y-75054563D01*
X133099202Y-75050051D01*
X133096208Y-75047455D01*
X133086770Y-75035954D01*
X132991532Y-74940715D01*
X132980030Y-74931275D01*
X132977433Y-74928281D01*
X132972918Y-74925439D01*
X132968801Y-74922060D01*
X132965142Y-74920544D01*
X132952547Y-74912616D01*
X132762071Y-74817378D01*
X132734608Y-74806868D01*
X132729230Y-74806485D01*
X132724253Y-74804424D01*
X132694989Y-74801542D01*
X132314036Y-74801542D01*
X132284772Y-74804424D01*
X132279793Y-74806486D01*
X132274418Y-74806868D01*
X132246954Y-74817378D01*
X132130493Y-74875608D01*
X132167541Y-74727416D01*
X132335365Y-74475678D01*
X132402890Y-74408154D01*
X132539922Y-74339638D01*
X132885465Y-74339638D01*
X132914729Y-74336756D01*
X132968801Y-74314358D01*
X133010185Y-74272974D01*
X133032583Y-74218902D01*
X133032583Y-74160374D01*
X133010185Y-74106302D01*
X132968801Y-74064918D01*
X132914729Y-74042520D01*
X132885465Y-74039638D01*
X132504512Y-74039638D01*
X132475248Y-74042520D01*
X132470269Y-74044582D01*
X132464894Y-74044964D01*
X132437430Y-74055474D01*
X132246954Y-74150712D01*
X132234360Y-74158639D01*
X132230701Y-74160155D01*
X132226581Y-74163536D01*
X132222068Y-74166377D01*
X132219471Y-74169370D01*
X132207970Y-74178810D01*
X132112732Y-74274048D01*
X132112665Y-74274129D01*
X132112621Y-74274159D01*
X132103254Y-74285595D01*
X132094077Y-74296779D01*
X132094057Y-74296827D01*
X132093990Y-74296909D01*
X131903514Y-74582623D01*
X131894900Y-74598779D01*
X131892694Y-74601757D01*
X131891436Y-74605275D01*
X131889680Y-74608571D01*
X131888960Y-74612206D01*
X131882801Y-74629448D01*
X131787563Y-75010400D01*
X131786813Y-75015471D01*
X131785966Y-75017516D01*
X131784880Y-75028538D01*
X131783261Y-75039489D01*
X131783586Y-75041676D01*
X131783084Y-75046780D01*
X131234054Y-75046780D01*
X131313481Y-74808500D01*
X131316779Y-74793992D01*
X131318297Y-74790330D01*
X131318819Y-74785021D01*
X131320001Y-74779827D01*
X131319720Y-74775877D01*
X131321179Y-74761066D01*
X131321179Y-74570590D01*
X131318297Y-74541326D01*
X131316234Y-74536347D01*
X131315853Y-74530972D01*
X131305343Y-74503508D01*
X131210105Y-74313032D01*
X131202177Y-74300438D01*
X131200662Y-74296779D01*
X131197280Y-74292659D01*
X131194440Y-74288146D01*
X131191446Y-74285549D01*
X131182007Y-74274048D01*
X131086769Y-74178810D01*
X131075267Y-74169371D01*
X131072671Y-74166377D01*
X131068157Y-74163536D01*
X131064038Y-74160155D01*
X131060378Y-74158639D01*
X131047785Y-74150712D01*
X130857309Y-74055474D01*
X130829846Y-74044964D01*
X130824468Y-74044581D01*
X130819491Y-74042520D01*
X130790227Y-74039638D01*
X130314036Y-74039638D01*
X130284772Y-74042520D01*
X130279793Y-74044582D01*
X130274418Y-74044964D01*
X130246954Y-74055474D01*
X130056478Y-74150712D01*
X130043884Y-74158639D01*
X130040225Y-74160155D01*
X130036105Y-74163536D01*
X130031592Y-74166377D01*
X130028995Y-74169370D01*
X130017494Y-74178810D01*
X129922256Y-74274048D01*
X129903601Y-74296779D01*
X129881204Y-74350851D01*
X129881204Y-74409377D01*
X129903601Y-74463449D01*
X129944987Y-74504835D01*
X129999059Y-74527232D01*
X130057585Y-74527232D01*
X130111657Y-74504835D01*
X130134388Y-74486180D01*
X130212414Y-74408154D01*
X130349446Y-74339638D01*
X130754817Y-74339638D01*
X130891849Y-74408154D01*
X130952663Y-74468968D01*
X131021179Y-74606000D01*
X131021179Y-74736726D01*
X130944836Y-74965752D01*
X129827018Y-76083572D01*
X129808363Y-76106303D01*
X129805522Y-76113162D01*
X129785966Y-76160374D01*
X126745908Y-76160374D01*
X126801055Y-76105226D01*
X126810493Y-76093724D01*
X126813487Y-76091129D01*
X126816327Y-76086616D01*
X126819710Y-76082495D01*
X126821226Y-76078833D01*
X126829152Y-76066243D01*
X126924390Y-75875767D01*
X126934900Y-75848303D01*
X126935281Y-75842927D01*
X126937344Y-75837949D01*
X126940226Y-75808685D01*
X126940226Y-75522971D01*
X126937344Y-75493707D01*
X126935281Y-75488728D01*
X126934900Y-75483353D01*
X126924390Y-75455889D01*
X126829152Y-75265413D01*
X126821224Y-75252819D01*
X126819709Y-75249160D01*
X126816327Y-75245040D01*
X126813487Y-75240527D01*
X126810493Y-75237930D01*
X126801054Y-75226429D01*
X126705816Y-75131191D01*
X126683085Y-75112536D01*
X126678105Y-75110473D01*
X126674035Y-75106943D01*
X126661899Y-75101524D01*
X126705816Y-75057608D01*
X126715255Y-75046106D01*
X126718249Y-75043510D01*
X126721089Y-75038996D01*
X126724471Y-75034877D01*
X126725986Y-75031217D01*
X126733914Y-75018624D01*
X126829152Y-74828148D01*
X126839662Y-74800684D01*
X126840043Y-74795308D01*
X126842106Y-74790330D01*
X126844988Y-74761066D01*
X126844988Y-74589352D01*
X128927119Y-74589352D01*
X128945627Y-74644874D01*
X128983973Y-74689089D01*
X129036322Y-74715264D01*
X129094703Y-74719412D01*
X129150225Y-74700904D01*
X129194440Y-74662558D01*
X129210105Y-74637672D01*
X129400581Y-74256720D01*
X129411090Y-74229257D01*
X129415239Y-74170877D01*
X129396731Y-74115354D01*
X129358385Y-74071139D01*
X129306036Y-74044965D01*
X129247655Y-74040816D01*
X129192133Y-74059324D01*
X129147918Y-74097671D01*
X129132253Y-74122556D01*
X128941777Y-74503508D01*
X128931267Y-74530971D01*
X128927119Y-74589352D01*
X126844988Y-74589352D01*
X126844988Y-74570590D01*
X126842106Y-74541326D01*
X126840043Y-74536347D01*
X126839662Y-74530972D01*
X126829152Y-74503508D01*
X126733914Y-74313032D01*
X126725986Y-74300438D01*
X126724471Y-74296779D01*
X126721089Y-74292659D01*
X126718249Y-74288146D01*
X126715255Y-74285549D01*
X126705816Y-74274048D01*
X126610578Y-74178810D01*
X126599076Y-74169371D01*
X126596480Y-74166377D01*
X126591966Y-74163536D01*
X126587847Y-74160155D01*
X126584187Y-74158639D01*
X126571594Y-74150712D01*
X126381118Y-74055474D01*
X126353655Y-74044964D01*
X126348277Y-74044581D01*
X126343300Y-74042520D01*
X126314036Y-74039638D01*
X125647369Y-74039638D01*
X125618105Y-74042520D01*
X125564033Y-74064918D01*
X125522649Y-74106302D01*
X125500251Y-74160374D01*
X125497369Y-74189638D01*
X124472148Y-74189638D01*
X124456337Y-74142204D01*
X124444349Y-74115353D01*
X124437326Y-74107256D01*
X124432534Y-74097671D01*
X124418325Y-74085347D01*
X124406002Y-74071139D01*
X124396416Y-74066346D01*
X124388320Y-74059324D01*
X124370476Y-74053375D01*
X124353655Y-74044965D01*
X124342966Y-74044205D01*
X124332796Y-74040815D01*
X124314030Y-74042148D01*
X124295274Y-74040816D01*
X124285107Y-74044204D01*
X124274415Y-74044965D01*
X124257591Y-74053376D01*
X124239750Y-74059324D01*
X124231653Y-74066346D01*
X124222068Y-74071139D01*
X124209744Y-74085347D01*
X124195536Y-74097671D01*
X124190743Y-74107256D01*
X124183721Y-74115353D01*
X124171733Y-74142204D01*
X123505066Y-76142204D01*
X123498547Y-76170878D01*
X123413534Y-76170878D01*
X123413534Y-76160374D01*
X123391136Y-76106302D01*
X123349752Y-76064918D01*
X123295680Y-76042520D01*
X123266416Y-76039638D01*
X122464035Y-76039638D01*
X122464035Y-74189638D01*
X122461153Y-74160374D01*
X122438755Y-74106302D01*
X122397371Y-74064918D01*
X122343299Y-74042520D01*
X122284771Y-74042520D01*
X122230699Y-74064918D01*
X122189315Y-74106302D01*
X122166917Y-74160374D01*
X122164035Y-74189638D01*
X120047810Y-74189638D01*
X120007367Y-74154562D01*
X119980516Y-74142574D01*
X119694802Y-74047336D01*
X119680294Y-74044037D01*
X119676632Y-74042520D01*
X119671323Y-74041997D01*
X119666129Y-74040816D01*
X119662179Y-74041096D01*
X119647368Y-74039638D01*
X119171177Y-74039638D01*
X119141913Y-74042520D01*
X119136934Y-74044582D01*
X119131559Y-74044964D01*
X119104095Y-74055474D01*
X118913619Y-74150712D01*
X118901025Y-74158639D01*
X118897366Y-74160155D01*
X118893246Y-74163536D01*
X118888733Y-74166377D01*
X118886136Y-74169370D01*
X118874635Y-74178810D01*
X118779397Y-74274048D01*
X118769958Y-74285549D01*
X118766964Y-74288146D01*
X118764123Y-74292659D01*
X118760742Y-74296779D01*
X118759226Y-74300438D01*
X118751299Y-74313032D01*
X118656061Y-74503508D01*
X118645551Y-74530971D01*
X118645168Y-74536348D01*
X118643107Y-74541326D01*
X118640225Y-74570590D01*
X118083082Y-74570590D01*
X118083082Y-74189638D01*
X118080200Y-74160374D01*
X118057802Y-74106302D01*
X118016418Y-74064918D01*
X117962346Y-74042520D01*
X117903818Y-74042520D01*
X117849746Y-74064918D01*
X117808362Y-74106302D01*
X117785964Y-74160374D01*
X117783082Y-74189638D01*
X117002357Y-74189638D01*
X116991529Y-74178810D01*
X116980027Y-74169371D01*
X116977431Y-74166377D01*
X116972917Y-74163536D01*
X116968798Y-74160155D01*
X116965138Y-74158639D01*
X116952545Y-74150712D01*
X116762069Y-74055474D01*
X116734606Y-74044964D01*
X116729228Y-74044581D01*
X116724251Y-74042520D01*
X116694987Y-74039638D01*
X115933082Y-74039638D01*
X115903818Y-74042520D01*
X115849746Y-74064918D01*
X115808362Y-74106302D01*
X115785964Y-74160374D01*
X115783082Y-74189638D01*
X115002357Y-74189638D01*
X114991529Y-74178810D01*
X114980027Y-74169371D01*
X114977431Y-74166377D01*
X114972917Y-74163536D01*
X114968798Y-74160155D01*
X114965138Y-74158639D01*
X114952545Y-74150712D01*
X114762069Y-74055474D01*
X114734606Y-74044964D01*
X114729228Y-74044581D01*
X114724251Y-74042520D01*
X114694987Y-74039638D01*
X113933082Y-74039638D01*
X113903818Y-74042520D01*
X113849746Y-74064918D01*
X113808362Y-74106302D01*
X113785964Y-74160374D01*
X113783082Y-74189638D01*
X112757861Y-74189638D01*
X112742050Y-74142204D01*
X112730062Y-74115353D01*
X112723039Y-74107256D01*
X112718247Y-74097671D01*
X112704038Y-74085347D01*
X112691715Y-74071139D01*
X112682129Y-74066346D01*
X112674033Y-74059324D01*
X112656189Y-74053375D01*
X112639368Y-74044965D01*
X112628679Y-74044205D01*
X112618509Y-74040815D01*
X112599743Y-74042148D01*
X112580987Y-74040816D01*
X112570820Y-74044204D01*
X112560128Y-74044965D01*
X112543304Y-74053376D01*
X112525463Y-74059324D01*
X112517366Y-74066346D01*
X112507781Y-74071139D01*
X112495457Y-74085347D01*
X112481249Y-74097671D01*
X112476456Y-74107256D01*
X112469434Y-74115353D01*
X112457446Y-74142204D01*
X111790779Y-76142204D01*
X111784260Y-76170878D01*
X111416415Y-76170878D01*
X111416415Y-74189638D01*
X111413533Y-74160374D01*
X111391135Y-74106302D01*
X111349751Y-74064918D01*
X111295679Y-74042520D01*
X111237151Y-74042520D01*
X111183079Y-74064918D01*
X111141695Y-74106302D01*
X111119297Y-74160374D01*
X111116415Y-74189638D01*
X111116415Y-74992019D01*
X110273558Y-74992019D01*
X110273558Y-74189638D01*
X110270676Y-74160374D01*
X110248278Y-74106302D01*
X110206894Y-74064918D01*
X110152822Y-74042520D01*
X110094294Y-74042520D01*
X110040222Y-74064918D01*
X109998838Y-74106302D01*
X109976440Y-74160374D01*
X109973558Y-74189638D01*
X109751336Y-74189638D01*
X109751336Y-73817416D01*
X133448163Y-73817416D01*
X133448163Y-76561860D01*
G37*
D11*
G36*
X111633710Y-71693047D02*
G01*
X111670939Y-71730276D01*
X111746992Y-71882381D01*
X111746992Y-72133903D01*
X111670939Y-72286007D01*
X111614142Y-72342805D01*
X111462038Y-72418857D01*
X110782706Y-72418857D01*
X110782706Y-71597428D01*
X111346853Y-71597428D01*
X111633710Y-71693047D01*
G37*
G36*
X111471286Y-70244909D02*
G01*
X111528083Y-70301706D01*
X111604135Y-70453810D01*
X111604135Y-70562475D01*
X111528083Y-70714579D01*
X111471286Y-70771375D01*
X111319181Y-70847428D01*
X110782706Y-70847428D01*
X110782706Y-70168857D01*
X111319181Y-70168857D01*
X111471286Y-70244909D01*
G37*
G36*
X125727691Y-73543857D02*
G01*
X109657706Y-73543857D01*
X109657706Y-69793857D01*
X110032706Y-69793857D01*
X110032706Y-72793857D01*
X110035914Y-72842804D01*
X110061251Y-72937363D01*
X110110198Y-73022143D01*
X110179420Y-73091365D01*
X110264200Y-73140312D01*
X110358759Y-73165649D01*
X110407706Y-73168857D01*
X111550563Y-73168857D01*
X111570780Y-73167531D01*
X111577146Y-73167914D01*
X111582892Y-73166738D01*
X111599510Y-73165649D01*
X111636018Y-73155866D01*
X111673053Y-73148288D01*
X111688405Y-73141829D01*
X111694069Y-73140312D01*
X111699590Y-73137124D01*
X111718268Y-73129267D01*
X112003983Y-72986410D01*
X112046328Y-72961651D01*
X112054779Y-72954156D01*
X112064565Y-72948507D01*
X112101444Y-72916164D01*
X112244301Y-72773306D01*
X112276643Y-72736427D01*
X112282291Y-72726644D01*
X112289786Y-72718192D01*
X112314545Y-72675847D01*
X112457402Y-72390133D01*
X112465259Y-72371454D01*
X112468447Y-72365934D01*
X112469964Y-72360272D01*
X112476423Y-72344919D01*
X112484002Y-72307880D01*
X112493784Y-72271375D01*
X112494873Y-72254758D01*
X112496049Y-72249012D01*
X112495666Y-72242645D01*
X112496992Y-72222428D01*
X112496992Y-71793857D01*
X112495666Y-71773639D01*
X112496049Y-71767274D01*
X112494873Y-71761527D01*
X112493784Y-71744910D01*
X112484001Y-71708401D01*
X112476423Y-71671367D01*
X112469964Y-71656014D01*
X112468447Y-71650351D01*
X112465259Y-71644829D01*
X112457402Y-71626152D01*
X112314545Y-71340437D01*
X112289786Y-71298092D01*
X112282290Y-71289639D01*
X112276642Y-71279856D01*
X112244300Y-71242977D01*
X112147356Y-71146033D01*
X112171688Y-71104419D01*
X112314545Y-70818705D01*
X112322402Y-70800026D01*
X112325590Y-70794506D01*
X112327107Y-70788844D01*
X112333566Y-70773491D01*
X112341145Y-70736452D01*
X112350927Y-70699947D01*
X112352016Y-70683330D01*
X112353192Y-70677584D01*
X112352809Y-70671217D01*
X112354135Y-70651000D01*
X112354135Y-70365285D01*
X112352809Y-70345067D01*
X112353192Y-70338701D01*
X112352016Y-70332954D01*
X112350927Y-70316338D01*
X112341145Y-70279832D01*
X112333566Y-70242794D01*
X112327107Y-70227440D01*
X112325590Y-70221779D01*
X112322402Y-70216258D01*
X112314545Y-70197580D01*
X112171688Y-69911866D01*
X112146929Y-69869521D01*
X112139433Y-69861068D01*
X112133785Y-69851285D01*
X112101443Y-69814406D01*
X112080894Y-69793857D01*
X113032706Y-69793857D01*
X113032706Y-72793857D01*
X113035914Y-72842804D01*
X113061251Y-72937363D01*
X113110198Y-73022143D01*
X113179420Y-73091365D01*
X113264200Y-73140312D01*
X113358759Y-73165649D01*
X113407706Y-73168857D01*
X114836278Y-73168857D01*
X114885225Y-73165649D01*
X114979784Y-73140312D01*
X115064564Y-73091365D01*
X115133786Y-73022143D01*
X115182733Y-72937363D01*
X115208070Y-72842804D01*
X115208070Y-72744910D01*
X115182733Y-72650351D01*
X115133786Y-72565571D01*
X115064564Y-72496349D01*
X114979784Y-72447402D01*
X114885225Y-72422065D01*
X114836278Y-72418857D01*
X113782706Y-72418857D01*
X113782706Y-69793857D01*
X115461277Y-69793857D01*
X115461277Y-72793857D01*
X115464485Y-72842804D01*
X115489822Y-72937363D01*
X115538769Y-73022143D01*
X115607991Y-73091365D01*
X115692771Y-73140312D01*
X115787330Y-73165649D01*
X115885224Y-73165649D01*
X115979783Y-73140312D01*
X116064563Y-73091365D01*
X116133785Y-73022143D01*
X116182732Y-72937363D01*
X116208069Y-72842804D01*
X116211277Y-72793857D01*
X116211277Y-69793857D01*
X116889848Y-69793857D01*
X116889848Y-72793857D01*
X116893056Y-72842804D01*
X116918393Y-72937363D01*
X116967340Y-73022143D01*
X117036562Y-73091365D01*
X117121342Y-73140312D01*
X117215901Y-73165649D01*
X117313795Y-73165649D01*
X117408354Y-73140312D01*
X117493134Y-73091365D01*
X117562356Y-73022143D01*
X117611303Y-72937363D01*
X117636640Y-72842804D01*
X117639848Y-72793857D01*
X117639848Y-71205943D01*
X118653543Y-72979909D01*
X118680612Y-73020815D01*
X118681204Y-73021412D01*
X118681626Y-73022143D01*
X118715740Y-73056257D01*
X118749526Y-73090345D01*
X118750250Y-73090767D01*
X118750848Y-73091365D01*
X118792517Y-73115422D01*
X118834086Y-73139670D01*
X118834900Y-73139892D01*
X118835628Y-73140312D01*
X118882052Y-73152751D01*
X118928531Y-73165427D01*
X118929372Y-73165430D01*
X118930187Y-73165649D01*
X118978377Y-73165649D01*
X119026426Y-73165863D01*
X119027239Y-73165649D01*
X119028081Y-73165649D01*
X119074618Y-73153179D01*
X119121096Y-73140947D01*
X119121825Y-73140530D01*
X119122640Y-73140312D01*
X119164449Y-73116173D01*
X119206092Y-73092378D01*
X119206687Y-73091788D01*
X119207420Y-73091365D01*
X119241589Y-73057195D01*
X119275622Y-73023465D01*
X119276044Y-73022740D01*
X119276642Y-73022143D01*
X119300728Y-72980424D01*
X119324947Y-72938904D01*
X119325168Y-72938090D01*
X119325589Y-72937363D01*
X119338015Y-72890987D01*
X119350705Y-72844459D01*
X119350708Y-72843614D01*
X119350926Y-72842804D01*
X119354134Y-72793857D01*
X119354134Y-69793857D01*
X120032705Y-69793857D01*
X120032705Y-72793857D01*
X120035913Y-72842804D01*
X120061250Y-72937363D01*
X120110197Y-73022143D01*
X120179419Y-73091365D01*
X120264199Y-73140312D01*
X120358758Y-73165649D01*
X120456652Y-73165649D01*
X120551211Y-73140312D01*
X120635991Y-73091365D01*
X120705213Y-73022143D01*
X120754160Y-72937363D01*
X120779497Y-72842804D01*
X120782705Y-72793857D01*
X120782705Y-71663472D01*
X120795703Y-71650473D01*
X121821991Y-73018857D01*
X121853925Y-73056090D01*
X121930930Y-73116535D01*
X122020956Y-73154990D01*
X122117867Y-73168835D01*
X122215059Y-73157124D01*
X122305908Y-73120659D01*
X122384224Y-73061922D01*
X122444669Y-72984917D01*
X122483124Y-72894892D01*
X122496969Y-72797981D01*
X122485258Y-72700789D01*
X122448793Y-72609939D01*
X122421991Y-72568857D01*
X121331418Y-71114759D01*
X122387156Y-70059022D01*
X122419498Y-70022143D01*
X122468446Y-69937364D01*
X122493784Y-69842804D01*
X122493784Y-69760986D01*
X122605577Y-69760986D01*
X122609798Y-69858790D01*
X122639189Y-69952168D01*
X122662761Y-69995185D01*
X123604134Y-71474485D01*
X123604134Y-72793857D01*
X123607342Y-72842804D01*
X123632679Y-72937363D01*
X123681626Y-73022143D01*
X123750848Y-73091365D01*
X123835628Y-73140312D01*
X123930187Y-73165649D01*
X124028081Y-73165649D01*
X124122640Y-73140312D01*
X124207420Y-73091365D01*
X124276642Y-73022143D01*
X124325589Y-72937363D01*
X124350926Y-72842804D01*
X124354134Y-72793857D01*
X124354134Y-71474484D01*
X125295507Y-69995185D01*
X125319079Y-69952168D01*
X125348470Y-69858790D01*
X125352691Y-69760986D01*
X125331455Y-69665422D01*
X125286208Y-69578611D01*
X125220035Y-69506469D01*
X125137445Y-69453912D01*
X125044067Y-69424521D01*
X124946263Y-69420300D01*
X124850699Y-69441536D01*
X124763888Y-69486783D01*
X124691746Y-69552956D01*
X124662761Y-69592528D01*
X123979133Y-70666799D01*
X123295507Y-69592529D01*
X123266522Y-69552956D01*
X123194380Y-69486783D01*
X123107569Y-69441536D01*
X123012005Y-69420300D01*
X122914201Y-69424521D01*
X122820823Y-69453912D01*
X122738233Y-69506469D01*
X122672060Y-69578611D01*
X122626813Y-69665422D01*
X122605577Y-69760986D01*
X122493784Y-69760986D01*
X122493784Y-69744910D01*
X122468446Y-69650350D01*
X122419499Y-69565571D01*
X122350277Y-69496350D01*
X122265498Y-69447402D01*
X122170939Y-69422064D01*
X122073044Y-69422064D01*
X121978485Y-69447402D01*
X121893705Y-69496349D01*
X121856826Y-69528692D01*
X120782705Y-70602812D01*
X120782705Y-69793857D01*
X120779497Y-69744910D01*
X120754160Y-69650351D01*
X120705213Y-69565571D01*
X120635991Y-69496349D01*
X120551211Y-69447402D01*
X120456652Y-69422065D01*
X120358758Y-69422065D01*
X120264199Y-69447402D01*
X120179419Y-69496349D01*
X120110197Y-69565571D01*
X120061250Y-69650351D01*
X120035913Y-69744910D01*
X120032705Y-69793857D01*
X119354134Y-69793857D01*
X119350926Y-69744910D01*
X119325589Y-69650351D01*
X119276642Y-69565571D01*
X119207420Y-69496349D01*
X119122640Y-69447402D01*
X119028081Y-69422065D01*
X118930187Y-69422065D01*
X118835628Y-69447402D01*
X118750848Y-69496349D01*
X118681626Y-69565571D01*
X118632679Y-69650351D01*
X118607342Y-69744910D01*
X118604134Y-69793857D01*
X118604134Y-71381770D01*
X117590439Y-69607805D01*
X117563369Y-69566899D01*
X117562779Y-69566303D01*
X117562356Y-69565571D01*
X117528186Y-69531401D01*
X117494456Y-69497369D01*
X117493731Y-69496946D01*
X117493134Y-69496349D01*
X117451464Y-69472291D01*
X117409896Y-69448044D01*
X117409081Y-69447821D01*
X117408354Y-69447402D01*
X117362006Y-69434983D01*
X117315450Y-69422286D01*
X117314605Y-69422282D01*
X117313795Y-69422065D01*
X117265715Y-69422065D01*
X117217556Y-69421851D01*
X117216743Y-69422065D01*
X117215901Y-69422065D01*
X117169391Y-69434527D01*
X117122885Y-69446767D01*
X117122154Y-69447184D01*
X117121342Y-69447402D01*
X117079579Y-69471513D01*
X117037890Y-69495336D01*
X117037294Y-69495925D01*
X117036562Y-69496349D01*
X117002392Y-69530518D01*
X116968360Y-69564249D01*
X116967937Y-69564973D01*
X116967340Y-69565571D01*
X116943282Y-69607240D01*
X116919035Y-69648809D01*
X116918812Y-69649623D01*
X116918393Y-69650351D01*
X116905974Y-69696698D01*
X116893277Y-69743255D01*
X116893273Y-69744099D01*
X116893056Y-69744910D01*
X116889848Y-69793857D01*
X116211277Y-69793857D01*
X116208069Y-69744910D01*
X116182732Y-69650351D01*
X116133785Y-69565571D01*
X116064563Y-69496349D01*
X115979783Y-69447402D01*
X115885224Y-69422065D01*
X115787330Y-69422065D01*
X115692771Y-69447402D01*
X115607991Y-69496349D01*
X115538769Y-69565571D01*
X115489822Y-69650351D01*
X115464485Y-69744910D01*
X115461277Y-69793857D01*
X113782706Y-69793857D01*
X113779498Y-69744910D01*
X113754161Y-69650351D01*
X113705214Y-69565571D01*
X113635992Y-69496349D01*
X113551212Y-69447402D01*
X113456653Y-69422065D01*
X113358759Y-69422065D01*
X113264200Y-69447402D01*
X113179420Y-69496349D01*
X113110198Y-69565571D01*
X113061251Y-69650351D01*
X113035914Y-69744910D01*
X113032706Y-69793857D01*
X112080894Y-69793857D01*
X111958586Y-69671549D01*
X111921707Y-69639207D01*
X111911923Y-69633558D01*
X111903471Y-69626063D01*
X111861126Y-69601304D01*
X111575411Y-69458447D01*
X111556733Y-69450589D01*
X111551212Y-69447402D01*
X111545548Y-69445884D01*
X111530196Y-69439426D01*
X111493161Y-69431847D01*
X111456653Y-69422065D01*
X111440035Y-69420975D01*
X111434289Y-69419800D01*
X111427923Y-69420182D01*
X111407706Y-69418857D01*
X110407706Y-69418857D01*
X110358759Y-69422065D01*
X110264200Y-69447402D01*
X110179420Y-69496349D01*
X110110198Y-69565571D01*
X110061251Y-69650351D01*
X110035914Y-69744910D01*
X110032706Y-69793857D01*
X109657706Y-69793857D01*
X109657706Y-69043857D01*
X125727691Y-69043857D01*
X125727691Y-73543857D01*
G37*
D12*
%TO.P,J1,3*%
%TO.N,N/C*%
X116000000Y-82800000D03*
D13*
%TO.P,J1,2*%
%TO.N,GND*%
X113000000Y-87500000D03*
D14*
%TO.P,J1,1*%
%TO.N,+9V*%
X119000000Y-87500000D03*
%TD*%
D15*
%TO.P,R3,1*%
%TO.N,Net-(U1-OUT)*%
X130277449Y-80602449D03*
%TO.P,R3,2*%
%TO.N,Net-(D1-A)*%
X132102449Y-80602449D03*
%TD*%
%TO.P,R2,1*%
%TO.N,+9V*%
X126939949Y-93602449D03*
%TO.P,R2,2*%
%TO.N,Net-(U1-DISCH)*%
X128764949Y-93602449D03*
%TD*%
D16*
%TO.P,D1,1,K*%
%TO.N,GND*%
X140352449Y-87652449D03*
%TO.P,D1,2,A*%
%TO.N,Net-(D1-A)*%
X140352449Y-85602449D03*
%TD*%
D15*
%TO.P,R1,1*%
%TO.N,Net-(U1-DISCH)*%
X130939949Y-93602449D03*
%TO.P,R1,2*%
%TO.N,Net-(U1-THRES)*%
X132764949Y-93602449D03*
%TD*%
D17*
%TO.P,C1,1*%
%TO.N,Net-(U1-THRES)*%
X127714949Y-80602449D03*
%TO.P,C1,2*%
%TO.N,GND*%
X125989949Y-80602449D03*
%TD*%
D18*
%TO.P,U1,1,GND*%
%TO.N,GND*%
X125172449Y-83297449D03*
D19*
%TO.P,U1,2,TRIG*%
%TO.N,Net-(U1-THRES)*%
X127712449Y-83297449D03*
%TO.P,U1,3,OUT*%
%TO.N,Net-(U1-OUT)*%
X130252449Y-83297449D03*
%TO.P,U1,4,~{RST}*%
%TO.N,+9V*%
X132792449Y-83297449D03*
%TO.P,U1,5,CONT*%
%TO.N,unconnected-(U1-CONT-Pad5)*%
X132792449Y-90917449D03*
%TO.P,U1,6,THRES*%
%TO.N,Net-(U1-THRES)*%
X130252449Y-90917449D03*
%TO.P,U1,7,DISCH*%
%TO.N,Net-(U1-DISCH)*%
X127712449Y-90917449D03*
%TO.P,U1,8,VCC*%
%TO.N,+9V*%
X125172449Y-90917449D03*
%TD*%
D20*
%TO.N,+9V*%
X126852449Y-93602449D02*
X126847551Y-93602449D01*
X126847551Y-93602449D02*
X125850000Y-94600000D01*
D21*
%TO.N,Net-(U1-DISCH)*%
X128764949Y-93602449D02*
X128750000Y-93587500D01*
X128750000Y-93587500D02*
X128750000Y-91955000D01*
X128750000Y-91955000D02*
X127712449Y-90917449D01*
D20*
%TO.N,+9V*%
X125172449Y-90917449D02*
X125200000Y-90889898D01*
X123800000Y-87500000D02*
X119000000Y-87500000D01*
X125200000Y-90889898D02*
X125200000Y-88900000D01*
X125200000Y-88900000D02*
X123800000Y-87500000D01*
X132792449Y-83502449D02*
X135852449Y-86562449D01*
X135852449Y-86562449D02*
X135852449Y-92602449D01*
X135852449Y-92602449D02*
X133102449Y-95352449D01*
X133102449Y-95352449D02*
X126602449Y-95352449D01*
X126602449Y-95352449D02*
X125172449Y-93922449D01*
X125172449Y-93922449D02*
X125172449Y-90917449D01*
D21*
%TO.N,Net-(U1-THRES)*%
X130252449Y-91002449D02*
X130252449Y-90917449D01*
X127714949Y-80602449D02*
X127714949Y-83294949D01*
X127714949Y-83294949D02*
X127712449Y-83297449D01*
X132764949Y-93602449D02*
X132869847Y-93497551D01*
X132869847Y-93497551D02*
X132747551Y-93497551D01*
X132747551Y-93497551D02*
X130252449Y-91002449D01*
%TO.N,Net-(U1-DISCH)*%
X128764949Y-93602449D02*
X130939949Y-93602449D01*
%TO.N,Net-(U1-OUT)*%
X130277449Y-80602449D02*
X130277449Y-83272449D01*
X130277449Y-83272449D02*
X130252449Y-83297449D01*
%TO.N,Net-(D1-A)*%
X132102449Y-80602449D02*
X137602449Y-80602449D01*
X140352449Y-83352449D02*
X140352449Y-85602449D01*
X137602449Y-80602449D02*
X140352449Y-83352449D01*
%TO.N,Net-(U1-THRES)*%
X133151085Y-84852449D02*
X135151449Y-86852813D01*
X133861085Y-93602449D02*
X132764949Y-93602449D01*
X135151449Y-92312085D02*
X133861085Y-93602449D01*
X135151449Y-86852813D02*
X135151449Y-92312085D01*
X129267449Y-84852449D02*
X133151085Y-84852449D01*
X127712449Y-83297449D02*
X129267449Y-84852449D01*
%TD*%
%TA.AperFunction,Conductor*%
%TO.N,GND*%
G36*
X142003243Y-67500669D02*
G01*
X142280182Y-67515184D01*
X142287575Y-67515794D01*
X142349875Y-67522813D01*
X142355353Y-67523555D01*
X142597128Y-67561848D01*
X142605289Y-67563423D01*
X142660830Y-67576100D01*
X142665181Y-67577179D01*
X142908157Y-67642284D01*
X142916999Y-67645013D01*
X142959629Y-67659930D01*
X142963079Y-67661195D01*
X143209378Y-67755739D01*
X143218711Y-67759770D01*
X143239307Y-67769689D01*
X143241754Y-67770900D01*
X143493968Y-67899411D01*
X143505203Y-67905898D01*
X143757608Y-68069812D01*
X143768109Y-68077441D01*
X144002010Y-68266850D01*
X144011655Y-68275535D01*
X144224464Y-68488344D01*
X144233149Y-68497989D01*
X144422558Y-68731890D01*
X144430187Y-68742391D01*
X144594101Y-68994796D01*
X144600591Y-69006036D01*
X144729075Y-69258199D01*
X144730309Y-69260691D01*
X144740223Y-69281277D01*
X144744268Y-69290643D01*
X144838791Y-69536887D01*
X144840068Y-69540369D01*
X144854985Y-69582999D01*
X144857719Y-69591860D01*
X144922806Y-69834766D01*
X144923923Y-69839269D01*
X144936569Y-69894679D01*
X144938150Y-69902872D01*
X144976440Y-70144627D01*
X144977187Y-70150142D01*
X144984204Y-70212424D01*
X144984814Y-70219816D01*
X144999330Y-70496755D01*
X144999500Y-70503246D01*
X144999500Y-94496753D01*
X144999330Y-94503244D01*
X144984814Y-94780182D01*
X144984204Y-94787574D01*
X144977187Y-94849856D01*
X144976440Y-94855371D01*
X144938150Y-95097126D01*
X144936569Y-95105319D01*
X144923923Y-95160729D01*
X144922806Y-95165232D01*
X144857719Y-95408138D01*
X144854985Y-95416999D01*
X144840068Y-95459629D01*
X144838791Y-95463111D01*
X144744268Y-95709355D01*
X144740223Y-95718721D01*
X144730309Y-95739307D01*
X144729075Y-95741799D01*
X144600591Y-95993964D01*
X144594105Y-96005197D01*
X144508881Y-96136432D01*
X144430187Y-96257609D01*
X144422558Y-96268109D01*
X144233149Y-96502010D01*
X144224464Y-96511655D01*
X144011655Y-96724464D01*
X144002010Y-96733149D01*
X143768109Y-96922558D01*
X143757609Y-96930187D01*
X143505197Y-97094105D01*
X143493964Y-97100591D01*
X143241799Y-97229075D01*
X143239307Y-97230309D01*
X143218721Y-97240223D01*
X143209355Y-97244268D01*
X142963111Y-97338791D01*
X142959629Y-97340068D01*
X142916999Y-97354985D01*
X142908138Y-97357719D01*
X142665232Y-97422806D01*
X142660729Y-97423923D01*
X142605319Y-97436569D01*
X142597126Y-97438150D01*
X142355371Y-97476440D01*
X142349856Y-97477187D01*
X142287574Y-97484204D01*
X142280182Y-97484814D01*
X142003244Y-97499330D01*
X141996753Y-97499500D01*
X108003246Y-97499500D01*
X107996757Y-97499330D01*
X107986676Y-97498801D01*
X107719816Y-97484814D01*
X107712424Y-97484204D01*
X107650142Y-97477187D01*
X107644627Y-97476440D01*
X107402872Y-97438150D01*
X107394679Y-97436569D01*
X107366044Y-97430033D01*
X107339245Y-97423917D01*
X107334766Y-97422806D01*
X107091860Y-97357719D01*
X107082999Y-97354985D01*
X107040369Y-97340068D01*
X107036887Y-97338791D01*
X106790643Y-97244268D01*
X106781277Y-97240223D01*
X106760691Y-97230309D01*
X106758199Y-97229075D01*
X106506036Y-97100591D01*
X106494796Y-97094101D01*
X106242391Y-96930187D01*
X106231890Y-96922558D01*
X105997989Y-96733149D01*
X105988344Y-96724464D01*
X105775535Y-96511655D01*
X105766850Y-96502010D01*
X105577441Y-96268109D01*
X105569812Y-96257608D01*
X105491119Y-96136432D01*
X105405896Y-96005199D01*
X105399408Y-95993963D01*
X105333223Y-95864068D01*
X105270900Y-95741754D01*
X105269689Y-95739307D01*
X105259775Y-95718721D01*
X105255739Y-95709378D01*
X105161195Y-95463079D01*
X105159930Y-95459629D01*
X105145013Y-95416999D01*
X105142284Y-95408157D01*
X105077179Y-95165181D01*
X105076100Y-95160830D01*
X105063423Y-95105289D01*
X105061848Y-95097126D01*
X105023555Y-94855353D01*
X105022811Y-94849856D01*
X105015794Y-94787574D01*
X105015184Y-94780181D01*
X105000670Y-94503243D01*
X105000500Y-94496753D01*
X105000500Y-86444902D01*
X111300000Y-86444902D01*
X111300000Y-87250000D01*
X112500000Y-87250000D01*
X112500000Y-87750000D01*
X111300001Y-87750000D01*
X111300001Y-88555098D01*
X111310078Y-88668460D01*
X111363228Y-88854215D01*
X111452686Y-89025474D01*
X111574784Y-89175215D01*
X111724525Y-89297313D01*
X111895784Y-89386771D01*
X112081538Y-89439920D01*
X112081541Y-89439921D01*
X112194903Y-89449999D01*
X112749999Y-89449999D01*
X112750000Y-89449998D01*
X112750000Y-88933012D01*
X112807007Y-88965925D01*
X112934174Y-89000000D01*
X113065826Y-89000000D01*
X113192993Y-88965925D01*
X113250000Y-88933012D01*
X113250000Y-89449999D01*
X113805092Y-89449999D01*
X113805098Y-89449998D01*
X113918460Y-89439921D01*
X114104215Y-89386771D01*
X114275474Y-89297313D01*
X114425215Y-89175215D01*
X114547313Y-89025474D01*
X114636771Y-88854215D01*
X114689920Y-88668461D01*
X114689921Y-88668458D01*
X114699999Y-88555097D01*
X114700000Y-88555095D01*
X114700000Y-87750000D01*
X113500000Y-87750000D01*
X113500000Y-87250000D01*
X114699999Y-87250000D01*
X114699999Y-86444907D01*
X114699998Y-86444901D01*
X114689921Y-86331539D01*
X114636771Y-86145784D01*
X114547313Y-85974525D01*
X114425217Y-85824785D01*
X114419671Y-85820264D01*
X114419670Y-85820262D01*
X114419669Y-85820262D01*
X114309275Y-85730247D01*
X117049500Y-85730247D01*
X117049500Y-89269752D01*
X117061131Y-89328229D01*
X117061132Y-89328230D01*
X117105447Y-89394552D01*
X117171769Y-89438867D01*
X117171770Y-89438868D01*
X117230247Y-89450499D01*
X117230250Y-89450500D01*
X117230252Y-89450500D01*
X120769750Y-89450500D01*
X120769751Y-89450499D01*
X120784568Y-89447552D01*
X120828229Y-89438868D01*
X120828229Y-89438867D01*
X120828231Y-89438867D01*
X120894552Y-89394552D01*
X120938867Y-89328231D01*
X120938867Y-89328229D01*
X120938868Y-89328229D01*
X120950499Y-89269752D01*
X120950500Y-89269750D01*
X120950500Y-88547347D01*
X120951942Y-88528493D01*
X120953643Y-88517430D01*
X120955947Y-88510764D01*
X120966444Y-88434218D01*
X120966592Y-88433261D01*
X120967285Y-88431780D01*
X120975658Y-88402160D01*
X120995234Y-88357685D01*
X121011781Y-88330325D01*
X121036571Y-88299241D01*
X121054928Y-88276223D01*
X121074431Y-88256696D01*
X121155540Y-88191845D01*
X121174839Y-88179168D01*
X121302179Y-88111588D01*
X121320269Y-88103763D01*
X121487490Y-88046737D01*
X121505655Y-88042043D01*
X121685205Y-88009908D01*
X121695314Y-88008526D01*
X121698159Y-88008255D01*
X121748823Y-88005799D01*
X121765415Y-88001866D01*
X121773949Y-88001056D01*
X121776575Y-88001563D01*
X121785676Y-88000500D01*
X123541324Y-88000500D01*
X123608363Y-88020185D01*
X123629005Y-88036819D01*
X124663181Y-89070995D01*
X124696666Y-89132318D01*
X124699500Y-89158676D01*
X124699500Y-89300400D01*
X124696234Y-89328671D01*
X124694234Y-89337208D01*
X124690225Y-89456229D01*
X124689531Y-89465794D01*
X124678811Y-89561941D01*
X124677123Y-89572739D01*
X124661915Y-89648070D01*
X124659045Y-89659470D01*
X124642577Y-89713852D01*
X124636342Y-89730188D01*
X124578057Y-89855561D01*
X124570623Y-89869234D01*
X124540656Y-89916949D01*
X124494556Y-89990348D01*
X124494077Y-89991104D01*
X124417634Y-90110884D01*
X124413641Y-90117407D01*
X124413211Y-90118140D01*
X124409490Y-90124757D01*
X124334198Y-90264691D01*
X124328813Y-90275442D01*
X124328239Y-90276677D01*
X124323519Y-90287657D01*
X124254740Y-90461437D01*
X124250426Y-90473405D01*
X124249973Y-90474796D01*
X124246395Y-90487065D01*
X124212599Y-90617982D01*
X124212598Y-90617981D01*
X124211009Y-90624136D01*
X124210398Y-90625614D01*
X124209622Y-90629511D01*
X124208747Y-90632904D01*
X124208746Y-90632908D01*
X124191935Y-90698031D01*
X124190478Y-90704044D01*
X124190344Y-90704636D01*
X124190177Y-90716713D01*
X124187806Y-90739187D01*
X124171949Y-90818904D01*
X124171949Y-91015994D01*
X124187513Y-91094239D01*
X124189832Y-91114449D01*
X124190389Y-91131802D01*
X124219470Y-91256899D01*
X124220896Y-91263031D01*
X124222556Y-91269659D01*
X124222606Y-91269858D01*
X124222782Y-91270512D01*
X124224797Y-91277520D01*
X124262292Y-91399775D01*
X124265896Y-91410470D01*
X124266321Y-91411626D01*
X124266327Y-91411643D01*
X124266330Y-91411649D01*
X124270429Y-91421928D01*
X124270438Y-91421948D01*
X124360843Y-91632055D01*
X124365955Y-91643032D01*
X124366552Y-91644222D01*
X124370427Y-91651396D01*
X124372405Y-91655058D01*
X124399310Y-91701497D01*
X124475564Y-91833112D01*
X124475990Y-91833842D01*
X124549758Y-91959565D01*
X124556344Y-91972460D01*
X124609757Y-92094092D01*
X124615304Y-92109373D01*
X124632278Y-92167832D01*
X124634955Y-92178940D01*
X124650179Y-92257928D01*
X124651729Y-92268325D01*
X124662180Y-92366919D01*
X124662807Y-92376022D01*
X124665142Y-92448947D01*
X124666692Y-92497329D01*
X124666692Y-92497333D01*
X124668949Y-92507405D01*
X124671949Y-92534514D01*
X124671949Y-93856557D01*
X124671949Y-93988341D01*
X124677283Y-94008247D01*
X124706057Y-94115636D01*
X124727722Y-94153160D01*
X124771949Y-94229763D01*
X126201949Y-95659763D01*
X126295135Y-95752949D01*
X126409263Y-95818841D01*
X126536556Y-95852949D01*
X126536557Y-95852949D01*
X126536558Y-95852949D01*
X133168339Y-95852949D01*
X133168341Y-95852949D01*
X133295635Y-95818841D01*
X133409763Y-95752949D01*
X136149553Y-93013156D01*
X136149558Y-93013153D01*
X136159761Y-93002949D01*
X136159763Y-93002949D01*
X136252949Y-92909763D01*
X136318841Y-92795635D01*
X136342436Y-92707577D01*
X136352949Y-92668342D01*
X136352949Y-92536557D01*
X136352949Y-88031645D01*
X139452450Y-88031645D01*
X139455300Y-88062055D01*
X139500102Y-88190094D01*
X139580656Y-88299241D01*
X139689803Y-88379795D01*
X139817846Y-88424598D01*
X139848241Y-88427448D01*
X140102448Y-88427448D01*
X140602449Y-88427448D01*
X140856645Y-88427448D01*
X140887055Y-88424597D01*
X141015094Y-88379795D01*
X141124241Y-88299241D01*
X141204795Y-88190094D01*
X141249598Y-88062053D01*
X141249598Y-88062049D01*
X141252449Y-88031655D01*
X141252449Y-87902449D01*
X140602449Y-87902449D01*
X140602449Y-88427448D01*
X140102448Y-88427448D01*
X140102449Y-88427447D01*
X140102449Y-87902449D01*
X139452450Y-87902449D01*
X139452450Y-88031645D01*
X136352949Y-88031645D01*
X136352949Y-87273242D01*
X139452449Y-87273242D01*
X139452449Y-87402449D01*
X140102449Y-87402449D01*
X140602449Y-87402449D01*
X141252448Y-87402449D01*
X141252448Y-87273252D01*
X141249597Y-87242842D01*
X141204795Y-87114803D01*
X141124241Y-87005656D01*
X141015094Y-86925102D01*
X140887051Y-86880299D01*
X140856656Y-86877449D01*
X140602449Y-86877449D01*
X140602449Y-87402449D01*
X140102449Y-87402449D01*
X140102449Y-86877449D01*
X139848253Y-86877449D01*
X139817842Y-86880300D01*
X139689803Y-86925102D01*
X139580656Y-87005656D01*
X139500102Y-87114803D01*
X139455299Y-87242844D01*
X139455299Y-87242848D01*
X139452449Y-87273242D01*
X136352949Y-87273242D01*
X136352949Y-86496557D01*
X136318841Y-86369263D01*
X136252949Y-86255135D01*
X136159763Y-86161949D01*
X134186672Y-84188858D01*
X134182179Y-84184122D01*
X134174985Y-84176127D01*
X134164292Y-84159062D01*
X134062384Y-84050999D01*
X134061418Y-84049925D01*
X134061288Y-84049655D01*
X134057000Y-84044735D01*
X133987113Y-83957878D01*
X133979903Y-83947947D01*
X133969522Y-83932049D01*
X133943308Y-83891901D01*
X133936506Y-83880115D01*
X133916131Y-83839855D01*
X133908394Y-83820786D01*
X133902928Y-83803263D01*
X133873868Y-83710096D01*
X133869638Y-83691718D01*
X133858416Y-83617529D01*
X133840338Y-83498011D01*
X133840057Y-83496044D01*
X133817341Y-83325878D01*
X133816779Y-83321961D01*
X133816711Y-83321517D01*
X133816079Y-83317636D01*
X133781617Y-83118198D01*
X133781268Y-83116237D01*
X133781217Y-83115958D01*
X133776225Y-83103621D01*
X133769556Y-83081312D01*
X133754500Y-83005614D01*
X133693459Y-82858247D01*
X133679084Y-82823541D01*
X133679077Y-82823528D01*
X133569588Y-82659667D01*
X133569585Y-82659663D01*
X133430234Y-82520312D01*
X133430230Y-82520309D01*
X133266369Y-82410820D01*
X133266356Y-82410813D01*
X133084288Y-82335399D01*
X133084278Y-82335396D01*
X132890992Y-82296949D01*
X132890990Y-82296949D01*
X132693908Y-82296949D01*
X132693906Y-82296949D01*
X132500619Y-82335396D01*
X132500609Y-82335399D01*
X132318541Y-82410813D01*
X132318528Y-82410820D01*
X132154667Y-82520309D01*
X132154663Y-82520312D01*
X132015312Y-82659663D01*
X132015309Y-82659667D01*
X131905820Y-82823528D01*
X131905813Y-82823541D01*
X131830399Y-83005609D01*
X131830396Y-83005619D01*
X131791949Y-83198905D01*
X131791949Y-83198906D01*
X131791949Y-83198908D01*
X131791949Y-83395990D01*
X131791949Y-83395992D01*
X131791948Y-83395992D01*
X131830396Y-83589278D01*
X131830399Y-83589288D01*
X131905813Y-83771356D01*
X131905820Y-83771369D01*
X132015309Y-83935230D01*
X132015312Y-83935234D01*
X132154664Y-84074586D01*
X132154667Y-84074588D01*
X132231888Y-84126185D01*
X132252840Y-84145181D01*
X132381981Y-84222614D01*
X132383652Y-84223690D01*
X132405257Y-84248667D01*
X132427665Y-84272958D01*
X132428020Y-84274980D01*
X132429362Y-84276532D01*
X132434034Y-84309220D01*
X132439752Y-84341775D01*
X132438957Y-84343667D01*
X132439248Y-84345699D01*
X132425497Y-84375741D01*
X132412715Y-84406201D01*
X132411024Y-84407363D01*
X132410170Y-84409230D01*
X132382358Y-84427070D01*
X132355139Y-84445783D01*
X132352540Y-84446198D01*
X132351360Y-84446955D01*
X132347817Y-84446952D01*
X132316525Y-84451949D01*
X130703062Y-84451949D01*
X130636023Y-84432264D01*
X130590268Y-84379460D01*
X130580324Y-84310302D01*
X130609349Y-84246746D01*
X130655610Y-84213388D01*
X130726356Y-84184084D01*
X130726356Y-84184083D01*
X130726363Y-84184081D01*
X130890231Y-84074588D01*
X131029588Y-83935231D01*
X131139081Y-83771363D01*
X131214500Y-83589284D01*
X131228152Y-83520650D01*
X131252949Y-83395992D01*
X131252949Y-83198906D01*
X131237256Y-83120018D01*
X131234948Y-83100148D01*
X131234691Y-83092776D01*
X131234333Y-83082499D01*
X131234287Y-83082305D01*
X131205990Y-82962125D01*
X131204049Y-82954534D01*
X131203810Y-82953667D01*
X131201649Y-82946367D01*
X131196712Y-82930768D01*
X131165574Y-82832376D01*
X131161488Y-82820698D01*
X131160986Y-82819391D01*
X131160973Y-82819359D01*
X131156267Y-82808119D01*
X131067793Y-82613246D01*
X131067789Y-82613239D01*
X131067785Y-82613229D01*
X131060882Y-82599426D01*
X131060037Y-82597884D01*
X131052094Y-82584601D01*
X130936490Y-82406847D01*
X130933323Y-82402123D01*
X130932975Y-82401619D01*
X130932951Y-82401584D01*
X130929748Y-82397078D01*
X130929739Y-82397065D01*
X130899742Y-82356052D01*
X130898254Y-82353972D01*
X130816265Y-82236881D01*
X130807853Y-82223020D01*
X130805239Y-82218000D01*
X130748078Y-82108208D01*
X130740761Y-82091145D01*
X130722710Y-82038457D01*
X130719096Y-82025723D01*
X130716544Y-82014475D01*
X130702365Y-81951988D01*
X130700249Y-81939917D01*
X130688563Y-81846115D01*
X130687702Y-81835477D01*
X130683227Y-81716365D01*
X130681062Y-81706885D01*
X130677949Y-81679275D01*
X130677949Y-81587929D01*
X130681677Y-81557753D01*
X130683249Y-81551490D01*
X130688501Y-81445395D01*
X130690014Y-81431286D01*
X130710516Y-81307577D01*
X130714270Y-81291587D01*
X130720135Y-81272424D01*
X130758575Y-81214083D01*
X130765049Y-81208962D01*
X130840660Y-81153160D01*
X130919065Y-81046924D01*
X130962674Y-80922298D01*
X130965449Y-80892705D01*
X130965449Y-80312193D01*
X130965449Y-80312188D01*
X131414449Y-80312188D01*
X131414449Y-80892709D01*
X131417223Y-80922298D01*
X131460833Y-81046925D01*
X131539237Y-81153159D01*
X131539238Y-81153160D01*
X131645472Y-81231564D01*
X131645473Y-81231564D01*
X131645474Y-81231565D01*
X131770100Y-81275174D01*
X131770099Y-81275174D01*
X131799689Y-81277949D01*
X131799693Y-81277949D01*
X132405209Y-81277949D01*
X132434798Y-81275174D01*
X132442648Y-81272427D01*
X132559424Y-81231565D01*
X132665660Y-81153160D01*
X132711782Y-81090665D01*
X132733059Y-81074509D01*
X132751920Y-81055577D01*
X132763925Y-81051073D01*
X132767428Y-81048414D01*
X132784960Y-81043182D01*
X132881780Y-81021928D01*
X132900161Y-81019316D01*
X133067610Y-81008222D01*
X133071160Y-81007330D01*
X133073749Y-81006681D01*
X133103941Y-81002949D01*
X137385194Y-81002949D01*
X137452233Y-81022634D01*
X137472875Y-81039268D01*
X139915630Y-83482023D01*
X139949115Y-83543346D01*
X139951949Y-83569704D01*
X139951949Y-84414699D01*
X139951340Y-84426975D01*
X139950364Y-84436777D01*
X139946661Y-84450829D01*
X139942935Y-84511456D01*
X139942701Y-84513812D01*
X139942487Y-84514338D01*
X139941644Y-84521793D01*
X139930104Y-84591484D01*
X139927390Y-84603894D01*
X139909382Y-84669835D01*
X139904576Y-84684005D01*
X139880111Y-84743977D01*
X139872550Y-84759371D01*
X139858248Y-84784020D01*
X139807578Y-84832127D01*
X139791950Y-84838830D01*
X139689568Y-84874655D01*
X139689566Y-84874656D01*
X139580299Y-84955299D01*
X139499656Y-85064566D01*
X139499655Y-85064568D01*
X139454802Y-85192747D01*
X139454802Y-85192749D01*
X139451949Y-85223179D01*
X139451949Y-85981718D01*
X139454802Y-86012148D01*
X139454802Y-86012150D01*
X139499655Y-86140329D01*
X139499656Y-86140331D01*
X139580299Y-86249599D01*
X139689567Y-86330242D01*
X139732294Y-86345193D01*
X139817748Y-86375095D01*
X139848179Y-86377949D01*
X139848183Y-86377949D01*
X140856719Y-86377949D01*
X140887148Y-86375095D01*
X140887150Y-86375095D01*
X140951239Y-86352668D01*
X141015331Y-86330242D01*
X141124599Y-86249599D01*
X141205242Y-86140331D01*
X141227668Y-86076239D01*
X141250095Y-86012150D01*
X141250095Y-86012148D01*
X141252949Y-85981718D01*
X141252949Y-85223179D01*
X141250095Y-85192749D01*
X141250095Y-85192747D01*
X141205242Y-85064568D01*
X141205241Y-85064566D01*
X141124599Y-84955299D01*
X141015331Y-84874656D01*
X141015329Y-84874655D01*
X140916990Y-84840245D01*
X140902158Y-84829607D01*
X140884971Y-84823458D01*
X140860873Y-84799996D01*
X140860214Y-84799524D01*
X140859682Y-84798837D01*
X140851079Y-84787660D01*
X140835961Y-84762233D01*
X140834694Y-84759371D01*
X140802332Y-84686288D01*
X140794906Y-84664033D01*
X140766914Y-84542994D01*
X140764092Y-84524569D01*
X140758175Y-84447515D01*
X140758029Y-84446952D01*
X140756922Y-84442683D01*
X140752949Y-84411547D01*
X140752949Y-83299724D01*
X140752949Y-83299722D01*
X140725656Y-83197861D01*
X140672929Y-83106536D01*
X137848362Y-80281969D01*
X137802699Y-80255605D01*
X137757038Y-80229242D01*
X137706106Y-80215595D01*
X137655176Y-80201949D01*
X137655175Y-80201949D01*
X133100314Y-80201949D01*
X133091258Y-80201618D01*
X133080587Y-80200836D01*
X133063856Y-80196649D01*
X132942121Y-80190697D01*
X132940603Y-80190586D01*
X132940023Y-80190368D01*
X132928220Y-80189049D01*
X132791858Y-80165105D01*
X132729236Y-80134125D01*
X132713536Y-80116608D01*
X132665660Y-80051738D01*
X132665659Y-80051737D01*
X132559425Y-79973333D01*
X132434797Y-79929723D01*
X132434798Y-79929723D01*
X132405209Y-79926949D01*
X132405205Y-79926949D01*
X131799693Y-79926949D01*
X131799689Y-79926949D01*
X131770099Y-79929723D01*
X131645472Y-79973333D01*
X131539238Y-80051737D01*
X131539237Y-80051738D01*
X131460833Y-80157972D01*
X131417223Y-80282599D01*
X131414449Y-80312188D01*
X130965449Y-80312188D01*
X130962674Y-80282600D01*
X130962453Y-80281969D01*
X130932598Y-80196649D01*
X130919065Y-80157974D01*
X130840660Y-80051738D01*
X130840659Y-80051737D01*
X130734425Y-79973333D01*
X130609797Y-79929723D01*
X130609798Y-79929723D01*
X130580209Y-79926949D01*
X130580205Y-79926949D01*
X129974693Y-79926949D01*
X129974689Y-79926949D01*
X129945099Y-79929723D01*
X129820472Y-79973333D01*
X129714238Y-80051737D01*
X129714237Y-80051738D01*
X129635833Y-80157972D01*
X129592223Y-80282599D01*
X129589449Y-80312188D01*
X129589449Y-80892709D01*
X129592223Y-80922298D01*
X129635833Y-81046925D01*
X129669019Y-81091890D01*
X129714238Y-81153160D01*
X129787617Y-81207315D01*
X129803148Y-81227771D01*
X129821657Y-81245584D01*
X129827060Y-81259265D01*
X129829867Y-81262962D01*
X129834622Y-81278411D01*
X129855988Y-81368302D01*
X129859001Y-81387693D01*
X129871711Y-81557002D01*
X129871713Y-81557009D01*
X129873015Y-81562057D01*
X129876949Y-81593039D01*
X129876949Y-81681474D01*
X129873835Y-81709090D01*
X129871710Y-81718391D01*
X129867325Y-81873690D01*
X129866678Y-81883306D01*
X129854306Y-81999614D01*
X129852395Y-82011790D01*
X129838568Y-82078156D01*
X129835075Y-82091276D01*
X129820630Y-82135613D01*
X129812780Y-82154341D01*
X129756913Y-82261940D01*
X129747621Y-82277076D01*
X129695460Y-82349793D01*
X129641042Y-82425656D01*
X129630299Y-82440632D01*
X129630277Y-82440662D01*
X129427436Y-82723255D01*
X129425307Y-82726277D01*
X129425144Y-82726513D01*
X129425141Y-82726518D01*
X129420113Y-82738360D01*
X129409081Y-82758784D01*
X129365818Y-82823533D01*
X129365813Y-82823542D01*
X129290399Y-83005609D01*
X129290396Y-83005619D01*
X129251949Y-83198905D01*
X129251949Y-83198906D01*
X129251949Y-83198908D01*
X129251949Y-83395990D01*
X129251949Y-83395992D01*
X129251948Y-83395992D01*
X129290396Y-83589278D01*
X129290399Y-83589288D01*
X129365813Y-83771356D01*
X129365820Y-83771369D01*
X129475309Y-83935230D01*
X129475312Y-83935234D01*
X129614663Y-84074585D01*
X129614667Y-84074588D01*
X129778528Y-84184077D01*
X129778541Y-84184084D01*
X129849288Y-84213388D01*
X129903692Y-84257228D01*
X129925757Y-84323523D01*
X129908478Y-84391222D01*
X129857341Y-84438833D01*
X129801836Y-84451949D01*
X129484704Y-84451949D01*
X129417665Y-84432264D01*
X129397023Y-84415630D01*
X129139399Y-84158006D01*
X129133930Y-84152173D01*
X129127041Y-84144333D01*
X129117140Y-84128291D01*
X129041636Y-84047134D01*
X129040468Y-84045805D01*
X129040320Y-84045486D01*
X129036208Y-84040685D01*
X128981651Y-83971422D01*
X128974952Y-83962053D01*
X128936930Y-83903268D01*
X128930737Y-83892553D01*
X128907834Y-83847909D01*
X128900560Y-83830620D01*
X128862166Y-83715688D01*
X128857367Y-83696182D01*
X128829199Y-83521756D01*
X128828862Y-83519538D01*
X128808086Y-83373860D01*
X128806607Y-83364909D01*
X128806416Y-83363893D01*
X128804538Y-83354993D01*
X128766951Y-83194525D01*
X128763139Y-83180502D01*
X128762651Y-83178929D01*
X128757906Y-83165338D01*
X128688164Y-82985998D01*
X128682049Y-82971865D01*
X128681291Y-82970279D01*
X128674080Y-82956547D01*
X128674078Y-82956544D01*
X128674072Y-82956532D01*
X128659274Y-82930768D01*
X128648669Y-82906706D01*
X128626290Y-82836568D01*
X128622098Y-82824699D01*
X128621580Y-82823364D01*
X128616672Y-82811778D01*
X128528661Y-82620567D01*
X128521355Y-82606205D01*
X128521349Y-82606194D01*
X128520464Y-82604610D01*
X128516264Y-82597745D01*
X128512068Y-82590885D01*
X128397336Y-82418821D01*
X128397325Y-82418805D01*
X128393612Y-82413424D01*
X128393159Y-82412790D01*
X128389108Y-82407309D01*
X128345092Y-82349793D01*
X128343670Y-82347898D01*
X128258496Y-82232080D01*
X128249536Y-82218000D01*
X128187888Y-82104995D01*
X128180010Y-82087436D01*
X128177135Y-82079413D01*
X128171163Y-82062744D01*
X128161710Y-82036361D01*
X128157787Y-82023139D01*
X128154330Y-82008555D01*
X128140652Y-81950854D01*
X128138348Y-81938267D01*
X128126316Y-81845736D01*
X128125379Y-81834641D01*
X128120732Y-81716017D01*
X128119141Y-81709090D01*
X128118594Y-81706705D01*
X128115449Y-81678955D01*
X128115449Y-81588819D01*
X128119318Y-81558086D01*
X128120748Y-81552497D01*
X128125597Y-81462955D01*
X128127297Y-81448150D01*
X128130272Y-81431266D01*
X128145515Y-81344751D01*
X128149688Y-81328002D01*
X128156987Y-81305515D01*
X128196409Y-81247831D01*
X128216990Y-81234172D01*
X128221919Y-81231566D01*
X128221924Y-81231565D01*
X128328160Y-81153160D01*
X128406565Y-81046924D01*
X128450174Y-80922298D01*
X128452949Y-80892705D01*
X128452949Y-80312193D01*
X128450174Y-80282600D01*
X128449953Y-80281969D01*
X128420098Y-80196649D01*
X128406565Y-80157974D01*
X128328160Y-80051738D01*
X128328159Y-80051737D01*
X128221925Y-79973333D01*
X128097297Y-79929723D01*
X128097298Y-79929723D01*
X128067709Y-79926949D01*
X128067705Y-79926949D01*
X127362193Y-79926949D01*
X127362189Y-79926949D01*
X127332599Y-79929723D01*
X127207972Y-79973333D01*
X127101738Y-80051737D01*
X127101737Y-80051738D01*
X127023333Y-80157972D01*
X126979723Y-80282599D01*
X126976949Y-80312188D01*
X126976949Y-80892709D01*
X126979723Y-80922298D01*
X127023333Y-81046925D01*
X127101736Y-81153158D01*
X127101737Y-81153158D01*
X127101738Y-81153160D01*
X127184287Y-81214083D01*
X127207974Y-81231565D01*
X127210583Y-81232944D01*
X127212907Y-81235206D01*
X127215452Y-81237084D01*
X127215195Y-81237432D01*
X127233879Y-81255614D01*
X127258076Y-81277308D01*
X127259481Y-81280529D01*
X127260656Y-81281672D01*
X127272193Y-81309656D01*
X127291558Y-81379982D01*
X127295407Y-81400715D01*
X127299119Y-81438297D01*
X127308786Y-81536203D01*
X127308995Y-81540015D01*
X127309979Y-81549090D01*
X127309959Y-81549092D01*
X127310242Y-81550943D01*
X127313848Y-81587440D01*
X127314449Y-81599632D01*
X127314449Y-81679915D01*
X127311113Y-81708485D01*
X127309175Y-81716668D01*
X127309174Y-81716673D01*
X127305242Y-81825400D01*
X127304454Y-81835573D01*
X127294065Y-81922859D01*
X127292167Y-81934251D01*
X127277511Y-82002465D01*
X127274294Y-82014475D01*
X127258971Y-82061992D01*
X127251852Y-82079413D01*
X127197881Y-82187298D01*
X127187368Y-82204615D01*
X127083013Y-82348519D01*
X127081623Y-82350398D01*
X126992924Y-82467984D01*
X126987528Y-82475481D01*
X126986983Y-82476273D01*
X126982020Y-82483858D01*
X126894721Y-82623911D01*
X126887522Y-82636418D01*
X126886749Y-82637877D01*
X126880342Y-82651089D01*
X126802542Y-82827295D01*
X126796810Y-82841730D01*
X126796228Y-82843374D01*
X126791588Y-82858247D01*
X126756190Y-82988965D01*
X126756191Y-82988966D01*
X126754110Y-82996651D01*
X126750398Y-83005614D01*
X126746841Y-83023495D01*
X126745737Y-83027573D01*
X126745736Y-83027574D01*
X126732738Y-83075572D01*
X126731031Y-83082324D01*
X126730862Y-83083043D01*
X126730652Y-83094783D01*
X126728290Y-83116749D01*
X126711949Y-83198906D01*
X126711949Y-83198908D01*
X126711949Y-83395990D01*
X126711949Y-83395992D01*
X126711948Y-83395992D01*
X126750396Y-83589278D01*
X126750399Y-83589288D01*
X126825813Y-83771356D01*
X126825820Y-83771369D01*
X126935309Y-83935230D01*
X126935312Y-83935234D01*
X127074664Y-84074586D01*
X127074667Y-84074588D01*
X127141706Y-84119382D01*
X127157301Y-84131721D01*
X127170303Y-84143825D01*
X127170305Y-84143827D01*
X127273002Y-84207260D01*
X127277416Y-84209871D01*
X127279726Y-84211238D01*
X127280510Y-84211682D01*
X127287564Y-84215497D01*
X127345093Y-84245174D01*
X127391787Y-84269263D01*
X127397775Y-84272123D01*
X127403141Y-84274686D01*
X127403809Y-84274980D01*
X127404460Y-84275267D01*
X127416174Y-84280004D01*
X127507774Y-84313801D01*
X127613312Y-84352741D01*
X127628686Y-84357736D01*
X127630456Y-84358235D01*
X127630465Y-84358237D01*
X127630468Y-84358238D01*
X127646156Y-84362002D01*
X127646162Y-84362003D01*
X127646178Y-84362007D01*
X127848519Y-84402201D01*
X127855419Y-84403449D01*
X127855462Y-84403456D01*
X127856146Y-84403568D01*
X127856158Y-84403569D01*
X127856184Y-84403574D01*
X127862714Y-84404534D01*
X127862735Y-84404536D01*
X127862764Y-84404541D01*
X127907578Y-84410392D01*
X127936810Y-84414209D01*
X127939042Y-84414521D01*
X128081433Y-84435858D01*
X128097773Y-84439448D01*
X128221295Y-84475485D01*
X128239344Y-84482317D01*
X128288330Y-84505366D01*
X128300497Y-84511946D01*
X128339557Y-84535979D01*
X128363623Y-84550786D01*
X128374224Y-84558093D01*
X128448067Y-84614872D01*
X128456627Y-84622093D01*
X128543787Y-84702650D01*
X128551858Y-84707705D01*
X128573722Y-84725115D01*
X129021536Y-85172929D01*
X129112861Y-85225656D01*
X129214722Y-85252949D01*
X129320176Y-85252949D01*
X132933830Y-85252949D01*
X133000869Y-85272634D01*
X133021511Y-85289268D01*
X134714630Y-86982387D01*
X134748115Y-87043710D01*
X134750949Y-87070068D01*
X134750949Y-92094829D01*
X134731264Y-92161868D01*
X134714630Y-92182510D01*
X133740551Y-93156588D01*
X133711076Y-93172682D01*
X133681954Y-93189448D01*
X133680042Y-93189628D01*
X133679228Y-93190073D01*
X133646816Y-93192759D01*
X133606105Y-93190769D01*
X133590720Y-93189049D01*
X133454358Y-93165105D01*
X133391736Y-93134125D01*
X133376036Y-93116608D01*
X133328160Y-93051738D01*
X133328159Y-93051737D01*
X133221925Y-92973333D01*
X133097297Y-92929723D01*
X133097298Y-92929723D01*
X133067709Y-92926949D01*
X133067705Y-92926949D01*
X133019007Y-92926949D01*
X133003598Y-92925988D01*
X132993210Y-92924687D01*
X132982112Y-92921338D01*
X132912601Y-92914591D01*
X132910894Y-92914378D01*
X132909028Y-92913566D01*
X132884241Y-92907986D01*
X132838636Y-92891540D01*
X132807940Y-92880471D01*
X132786745Y-92870473D01*
X132665686Y-92798664D01*
X132651466Y-92788828D01*
X132491367Y-92660699D01*
X132485329Y-92655540D01*
X132484327Y-92654627D01*
X132362417Y-92538642D01*
X132344273Y-92527003D01*
X132336525Y-92519943D01*
X132335784Y-92518725D01*
X132332363Y-92515970D01*
X131636070Y-91819677D01*
X131618623Y-91797754D01*
X131613703Y-91789889D01*
X131605990Y-91781697D01*
X131516617Y-91686777D01*
X131510171Y-91679363D01*
X131442752Y-91595307D01*
X131435543Y-91585345D01*
X131422562Y-91565393D01*
X131399537Y-91530002D01*
X131392726Y-91518150D01*
X131372957Y-91478889D01*
X131365198Y-91459607D01*
X131332187Y-91352376D01*
X131327910Y-91333176D01*
X131300788Y-91140255D01*
X131300497Y-91138047D01*
X131300232Y-91135880D01*
X131285568Y-91015992D01*
X131791948Y-91015992D01*
X131830396Y-91209278D01*
X131830399Y-91209288D01*
X131905813Y-91391356D01*
X131905820Y-91391369D01*
X132015309Y-91555230D01*
X132015312Y-91555234D01*
X132154663Y-91694585D01*
X132154667Y-91694588D01*
X132318528Y-91804077D01*
X132318541Y-91804084D01*
X132485578Y-91873272D01*
X132500614Y-91879500D01*
X132500618Y-91879500D01*
X132500619Y-91879501D01*
X132693905Y-91917949D01*
X132693908Y-91917949D01*
X132890992Y-91917949D01*
X133038571Y-91888593D01*
X133084284Y-91879500D01*
X133266363Y-91804081D01*
X133430231Y-91694588D01*
X133569588Y-91555231D01*
X133679081Y-91391363D01*
X133754500Y-91209284D01*
X133774972Y-91106367D01*
X133792949Y-91015992D01*
X133792949Y-90818905D01*
X133754501Y-90625619D01*
X133754500Y-90625618D01*
X133754500Y-90625614D01*
X133754498Y-90625609D01*
X133679084Y-90443541D01*
X133679077Y-90443528D01*
X133569588Y-90279667D01*
X133569585Y-90279663D01*
X133430234Y-90140312D01*
X133430230Y-90140309D01*
X133266369Y-90030820D01*
X133266356Y-90030813D01*
X133084288Y-89955399D01*
X133084278Y-89955396D01*
X132890992Y-89916949D01*
X132890990Y-89916949D01*
X132693908Y-89916949D01*
X132693906Y-89916949D01*
X132500619Y-89955396D01*
X132500609Y-89955399D01*
X132318541Y-90030813D01*
X132318528Y-90030820D01*
X132154667Y-90140309D01*
X132154663Y-90140312D01*
X132015312Y-90279663D01*
X132015309Y-90279667D01*
X131905820Y-90443528D01*
X131905813Y-90443541D01*
X131830399Y-90625609D01*
X131830396Y-90625619D01*
X131791949Y-90818905D01*
X131791949Y-90818908D01*
X131791949Y-91015990D01*
X131791949Y-91015992D01*
X131791948Y-91015992D01*
X131285568Y-91015992D01*
X131278711Y-90959926D01*
X131278095Y-90955323D01*
X131278019Y-90954800D01*
X131277297Y-90950200D01*
X131241719Y-90739094D01*
X131241312Y-90736757D01*
X131241253Y-90736430D01*
X131232245Y-90714092D01*
X131229995Y-90703464D01*
X131230023Y-90703097D01*
X131229690Y-90701984D01*
X131214500Y-90625614D01*
X131190271Y-90567119D01*
X131139084Y-90443541D01*
X131139077Y-90443528D01*
X131029588Y-90279667D01*
X131029585Y-90279663D01*
X130890234Y-90140312D01*
X130890230Y-90140309D01*
X130726369Y-90030820D01*
X130726356Y-90030813D01*
X130544288Y-89955399D01*
X130544278Y-89955396D01*
X130350992Y-89916949D01*
X130350990Y-89916949D01*
X130153908Y-89916949D01*
X130153906Y-89916949D01*
X129960619Y-89955396D01*
X129960609Y-89955399D01*
X129778541Y-90030813D01*
X129778528Y-90030820D01*
X129614667Y-90140309D01*
X129614663Y-90140312D01*
X129475312Y-90279663D01*
X129475309Y-90279667D01*
X129365820Y-90443528D01*
X129365813Y-90443541D01*
X129290399Y-90625609D01*
X129290396Y-90625619D01*
X129251949Y-90818905D01*
X129251949Y-90818908D01*
X129251949Y-91015990D01*
X129251949Y-91015992D01*
X129251948Y-91015992D01*
X129290396Y-91209278D01*
X129290399Y-91209288D01*
X129365813Y-91391356D01*
X129365820Y-91391369D01*
X129475309Y-91555230D01*
X129475312Y-91555234D01*
X129614664Y-91694586D01*
X129614667Y-91694588D01*
X129635462Y-91708483D01*
X129681301Y-91739111D01*
X129697090Y-91751630D01*
X129709902Y-91763607D01*
X129819002Y-91831312D01*
X129825431Y-91835141D01*
X129826168Y-91835562D01*
X129832681Y-91839128D01*
X129941724Y-91896294D01*
X129952220Y-91901422D01*
X129953443Y-91901977D01*
X129964441Y-91906588D01*
X129964458Y-91906595D01*
X130169961Y-91985823D01*
X130169970Y-91985826D01*
X130169975Y-91985828D01*
X130183768Y-91990590D01*
X130185353Y-91991075D01*
X130199396Y-91994834D01*
X130294362Y-92016688D01*
X130432708Y-92048526D01*
X130432709Y-92048526D01*
X130432905Y-92048571D01*
X130434540Y-92048941D01*
X130434707Y-92048978D01*
X130436006Y-92049261D01*
X130436106Y-92049282D01*
X130436113Y-92049284D01*
X130578422Y-92079849D01*
X130593266Y-92084017D01*
X130716794Y-92127171D01*
X130732845Y-92134085D01*
X130784389Y-92160747D01*
X130795101Y-92166987D01*
X130860259Y-92209441D01*
X130869547Y-92216123D01*
X130945253Y-92276096D01*
X130952814Y-92282598D01*
X131040627Y-92364471D01*
X131049093Y-92369812D01*
X131070612Y-92387005D01*
X131412739Y-92729132D01*
X131446224Y-92790455D01*
X131441240Y-92860147D01*
X131399368Y-92916080D01*
X131333904Y-92940497D01*
X131284103Y-92933854D01*
X131272299Y-92929723D01*
X131242709Y-92926949D01*
X131242705Y-92926949D01*
X130637193Y-92926949D01*
X130637189Y-92926949D01*
X130607599Y-92929723D01*
X130482972Y-92973333D01*
X130376740Y-93051735D01*
X130376735Y-93051741D01*
X130330614Y-93114233D01*
X130309333Y-93130390D01*
X130290476Y-93149319D01*
X130278472Y-93153821D01*
X130274966Y-93156484D01*
X130257430Y-93161715D01*
X130160619Y-93182966D01*
X130142232Y-93185579D01*
X129974786Y-93196675D01*
X129968650Y-93198216D01*
X129938453Y-93201949D01*
X129762814Y-93201949D01*
X129732710Y-93198239D01*
X129726356Y-93196649D01*
X129726354Y-93196648D01*
X129726351Y-93196648D01*
X129606104Y-93190769D01*
X129590720Y-93189049D01*
X129454358Y-93165105D01*
X129391736Y-93134125D01*
X129376036Y-93116608D01*
X129328160Y-93051738D01*
X129328159Y-93051737D01*
X129241406Y-92987711D01*
X129226616Y-92968232D01*
X129208645Y-92951631D01*
X129202043Y-92935868D01*
X129199155Y-92932064D01*
X129195019Y-92919101D01*
X129173523Y-92836236D01*
X129170092Y-92816651D01*
X129168411Y-92798664D01*
X129155038Y-92655540D01*
X129151038Y-92612731D01*
X129150500Y-92601195D01*
X129150500Y-92090492D01*
X129152120Y-92070514D01*
X129154960Y-92053118D01*
X129150584Y-91926325D01*
X129150501Y-91924796D01*
X129150501Y-91902273D01*
X129147029Y-91889318D01*
X129135738Y-91791037D01*
X129134448Y-91781704D01*
X129134277Y-91780646D01*
X129132567Y-91771412D01*
X129111794Y-91671975D01*
X129109484Y-91662133D01*
X129109195Y-91661025D01*
X129106431Y-91651396D01*
X129079460Y-91565395D01*
X129074604Y-91551640D01*
X129073998Y-91550100D01*
X129069853Y-91540567D01*
X129068219Y-91536808D01*
X128992201Y-91377607D01*
X128990477Y-91374223D01*
X128987430Y-91368240D01*
X128986855Y-91367179D01*
X128981518Y-91357915D01*
X128920388Y-91257911D01*
X128919769Y-91256899D01*
X128919722Y-91256822D01*
X128858718Y-91156861D01*
X128854427Y-91149237D01*
X128801343Y-91046615D01*
X128795738Y-91034137D01*
X128788761Y-91015989D01*
X128747735Y-90909268D01*
X128743323Y-90895417D01*
X128698944Y-90721344D01*
X128695608Y-90714114D01*
X128686582Y-90686354D01*
X128674500Y-90625614D01*
X128674498Y-90625609D01*
X128599084Y-90443541D01*
X128599077Y-90443528D01*
X128489588Y-90279667D01*
X128489585Y-90279663D01*
X128350234Y-90140312D01*
X128350230Y-90140309D01*
X128186369Y-90030820D01*
X128186356Y-90030813D01*
X128004288Y-89955399D01*
X128004278Y-89955396D01*
X127810992Y-89916949D01*
X127810990Y-89916949D01*
X127613908Y-89916949D01*
X127613906Y-89916949D01*
X127420619Y-89955396D01*
X127420609Y-89955399D01*
X127238541Y-90030813D01*
X127238528Y-90030820D01*
X127074667Y-90140309D01*
X127074663Y-90140312D01*
X126935312Y-90279663D01*
X126935309Y-90279667D01*
X126825820Y-90443528D01*
X126825813Y-90443541D01*
X126750399Y-90625609D01*
X126750396Y-90625619D01*
X126711949Y-90818905D01*
X126711949Y-90818908D01*
X126711949Y-91015990D01*
X126711949Y-91015992D01*
X126711948Y-91015992D01*
X126750396Y-91209278D01*
X126750399Y-91209288D01*
X126825813Y-91391356D01*
X126825820Y-91391369D01*
X126935309Y-91555230D01*
X126935312Y-91555234D01*
X127074663Y-91694585D01*
X127074667Y-91694588D01*
X127238528Y-91804077D01*
X127238541Y-91804084D01*
X127323166Y-91839136D01*
X127420614Y-91879500D01*
X127517609Y-91898793D01*
X127544897Y-91907645D01*
X127587129Y-91912622D01*
X127613908Y-91917949D01*
X127625040Y-91917949D01*
X127639553Y-91918801D01*
X127655898Y-91920727D01*
X127742951Y-91930987D01*
X127755128Y-91932057D01*
X127756510Y-91932137D01*
X127768616Y-91932480D01*
X128028279Y-91932190D01*
X128028282Y-91932190D01*
X128109204Y-91932097D01*
X128176264Y-91951705D01*
X128197024Y-91968416D01*
X128313181Y-92084573D01*
X128346666Y-92145896D01*
X128349500Y-92172254D01*
X128349500Y-92617087D01*
X128345791Y-92647189D01*
X128344200Y-92653545D01*
X128338159Y-92777110D01*
X128336377Y-92792847D01*
X128312261Y-92927937D01*
X128281101Y-92990473D01*
X128263825Y-93005915D01*
X128201741Y-93051735D01*
X128201735Y-93051740D01*
X128123333Y-93157972D01*
X128079723Y-93282599D01*
X128076949Y-93312188D01*
X128076949Y-93892709D01*
X128079723Y-93922298D01*
X128123333Y-94046925D01*
X128201737Y-94153159D01*
X128201738Y-94153160D01*
X128307972Y-94231564D01*
X128307973Y-94231564D01*
X128307974Y-94231565D01*
X128432600Y-94275174D01*
X128432599Y-94275174D01*
X128462189Y-94277949D01*
X128462193Y-94277949D01*
X129067709Y-94277949D01*
X129097298Y-94275174D01*
X129221924Y-94231565D01*
X129328160Y-94153160D01*
X129374282Y-94090665D01*
X129395559Y-94074509D01*
X129414420Y-94055577D01*
X129426425Y-94051073D01*
X129429928Y-94048414D01*
X129447460Y-94043182D01*
X129544280Y-94021928D01*
X129562661Y-94019316D01*
X129730110Y-94008222D01*
X129733660Y-94007330D01*
X129736249Y-94006681D01*
X129766441Y-94002949D01*
X129942087Y-94002949D01*
X129972187Y-94006658D01*
X129978541Y-94008248D01*
X130098800Y-94014128D01*
X130114158Y-94015845D01*
X130250535Y-94039790D01*
X130313161Y-94070772D01*
X130328861Y-94088289D01*
X130376737Y-94153159D01*
X130376738Y-94153160D01*
X130482972Y-94231564D01*
X130482973Y-94231564D01*
X130482974Y-94231565D01*
X130607600Y-94275174D01*
X130607599Y-94275174D01*
X130637189Y-94277949D01*
X130637193Y-94277949D01*
X131242709Y-94277949D01*
X131272298Y-94275174D01*
X131396924Y-94231565D01*
X131503160Y-94153160D01*
X131581565Y-94046924D01*
X131625174Y-93922298D01*
X131627949Y-93892705D01*
X131627949Y-93312193D01*
X131625174Y-93282600D01*
X131625174Y-93282599D01*
X131623564Y-93275226D01*
X131625091Y-93274892D01*
X131622399Y-93269376D01*
X131625288Y-93244815D01*
X131623954Y-93220118D01*
X131629299Y-93210721D01*
X131630563Y-93199985D01*
X131646274Y-93180882D01*
X131658503Y-93159388D01*
X131668078Y-93154373D01*
X131674947Y-93146023D01*
X131698492Y-93138447D01*
X131720400Y-93126976D01*
X131731167Y-93127934D01*
X131741459Y-93124624D01*
X131765361Y-93130980D01*
X131789994Y-93133174D01*
X131800310Y-93140274D01*
X131808982Y-93142580D01*
X131836240Y-93165001D01*
X131850778Y-93180933D01*
X131857736Y-93189263D01*
X131927834Y-93281068D01*
X131934221Y-93290265D01*
X131984476Y-93370105D01*
X131990575Y-93380970D01*
X132032263Y-93464846D01*
X132037748Y-93477636D01*
X132058563Y-93534841D01*
X132062897Y-93549511D01*
X132073809Y-93597075D01*
X132076949Y-93624800D01*
X132076949Y-93741650D01*
X132076804Y-93747647D01*
X132075959Y-93765079D01*
X132076584Y-93773197D01*
X132076949Y-93782702D01*
X132076949Y-93892709D01*
X132079723Y-93922298D01*
X132123333Y-94046925D01*
X132201737Y-94153159D01*
X132201738Y-94153160D01*
X132307972Y-94231564D01*
X132307973Y-94231564D01*
X132307974Y-94231565D01*
X132432600Y-94275174D01*
X132432599Y-94275174D01*
X132462189Y-94277949D01*
X132462193Y-94277949D01*
X133067709Y-94277949D01*
X133087433Y-94276099D01*
X133097298Y-94275174D01*
X133160758Y-94252967D01*
X133230534Y-94249405D01*
X133291162Y-94284133D01*
X133323390Y-94346125D01*
X133316987Y-94415701D01*
X133289393Y-94457690D01*
X132931454Y-94815630D01*
X132870131Y-94849115D01*
X132843773Y-94851949D01*
X126861125Y-94851949D01*
X126831684Y-94843304D01*
X126801698Y-94836781D01*
X126796682Y-94833026D01*
X126794086Y-94832264D01*
X126773444Y-94815630D01*
X126648902Y-94691088D01*
X126615417Y-94629765D01*
X126620401Y-94560073D01*
X126649291Y-94515338D01*
X126661494Y-94503243D01*
X126686259Y-94478695D01*
X126695761Y-94470201D01*
X126831684Y-94360704D01*
X126846573Y-94350407D01*
X126897788Y-94320269D01*
X126914211Y-94312174D01*
X126959517Y-94293869D01*
X126982741Y-94287036D01*
X127013538Y-94281165D01*
X127043412Y-94279152D01*
X127090560Y-94281689D01*
X127132888Y-94279590D01*
X127132894Y-94279589D01*
X127134148Y-94279396D01*
X127153034Y-94277949D01*
X127242709Y-94277949D01*
X127272298Y-94275174D01*
X127396924Y-94231565D01*
X127503160Y-94153160D01*
X127581565Y-94046924D01*
X127625174Y-93922298D01*
X127627949Y-93892705D01*
X127627949Y-93312193D01*
X127625174Y-93282600D01*
X127581565Y-93157974D01*
X127580542Y-93156588D01*
X127503160Y-93051738D01*
X127503159Y-93051737D01*
X127396925Y-92973333D01*
X127272297Y-92929723D01*
X127272298Y-92929723D01*
X127242709Y-92926949D01*
X127242705Y-92926949D01*
X126637193Y-92926949D01*
X126637189Y-92926949D01*
X126607599Y-92929723D01*
X126482972Y-92973333D01*
X126376738Y-93051737D01*
X126376737Y-93051738D01*
X126298333Y-93157972D01*
X126254723Y-93282599D01*
X126251949Y-93312188D01*
X126251949Y-93356429D01*
X126250726Y-93373804D01*
X126249320Y-93383735D01*
X126246442Y-93392975D01*
X126241743Y-93437275D01*
X126241442Y-93439408D01*
X126240013Y-93442554D01*
X126232420Y-93471387D01*
X126217069Y-93506769D01*
X126202959Y-93531219D01*
X126185557Y-93554714D01*
X126173593Y-93568591D01*
X125937680Y-93804504D01*
X125929734Y-93808842D01*
X125924309Y-93816090D01*
X125899549Y-93825324D01*
X125876357Y-93837989D01*
X125867327Y-93837343D01*
X125858845Y-93840507D01*
X125833024Y-93834890D01*
X125806665Y-93833005D01*
X125797611Y-93827186D01*
X125790572Y-93825655D01*
X125762318Y-93804504D01*
X125709268Y-93751454D01*
X125675783Y-93690131D01*
X125672949Y-93663773D01*
X125672949Y-92534295D01*
X125676186Y-92506146D01*
X125678209Y-92497468D01*
X125682249Y-92373745D01*
X125682903Y-92364465D01*
X125693757Y-92264363D01*
X125695360Y-92253831D01*
X125710778Y-92175420D01*
X125713504Y-92164300D01*
X125730415Y-92106957D01*
X125736290Y-92091111D01*
X125736569Y-92090492D01*
X125796222Y-91958072D01*
X125802570Y-91945848D01*
X125841866Y-91879500D01*
X125845555Y-91873271D01*
X125845556Y-91873272D01*
X125868257Y-91834943D01*
X125868411Y-91834686D01*
X125906185Y-91771412D01*
X125940114Y-91714580D01*
X125943582Y-91708539D01*
X125943970Y-91707836D01*
X125947316Y-91701517D01*
X126018175Y-91561856D01*
X126022897Y-91551897D01*
X126023404Y-91550749D01*
X126027582Y-91540556D01*
X126093015Y-91367906D01*
X126096844Y-91356865D01*
X126097245Y-91355593D01*
X126100457Y-91344286D01*
X126153256Y-91135931D01*
X126154528Y-91130619D01*
X126154658Y-91130042D01*
X126154820Y-91117752D01*
X126157190Y-91095208D01*
X126172949Y-91015990D01*
X126172949Y-90818908D01*
X126157431Y-90740899D01*
X126155109Y-90720547D01*
X126154579Y-90703340D01*
X126123080Y-90567111D01*
X126121410Y-90560406D01*
X126121405Y-90560389D01*
X126121397Y-90560355D01*
X126121211Y-90559659D01*
X126119354Y-90553138D01*
X126119351Y-90553126D01*
X126081225Y-90427148D01*
X126077879Y-90417043D01*
X126077467Y-90415899D01*
X126073575Y-90405918D01*
X125982281Y-90188666D01*
X125977950Y-90179057D01*
X125977430Y-90177977D01*
X125972604Y-90168589D01*
X125886570Y-90011273D01*
X125816603Y-89883243D01*
X125810687Y-89870822D01*
X125762546Y-89753331D01*
X125756250Y-89733257D01*
X125753798Y-89722239D01*
X125722939Y-89583582D01*
X125720216Y-89564314D01*
X125705787Y-89331106D01*
X125705787Y-89331104D01*
X125704135Y-89324432D01*
X125700500Y-89294629D01*
X125700500Y-88834110D01*
X125700500Y-88834108D01*
X125666392Y-88706814D01*
X125600500Y-88592686D01*
X125507314Y-88499500D01*
X124107314Y-87099500D01*
X124050250Y-87066554D01*
X123993187Y-87033608D01*
X123929539Y-87016554D01*
X123865892Y-86999500D01*
X123865891Y-86999500D01*
X121795507Y-86999500D01*
X121781457Y-86998701D01*
X121769979Y-86997392D01*
X121760617Y-86994503D01*
X121591127Y-86976995D01*
X121590360Y-86976908D01*
X121590071Y-86976786D01*
X121576718Y-86974575D01*
X121486651Y-86953940D01*
X121476611Y-86951192D01*
X121432071Y-86936961D01*
X121375454Y-86918872D01*
X121365274Y-86915121D01*
X121280346Y-86879537D01*
X121269590Y-86874410D01*
X121190831Y-86832106D01*
X121179652Y-86825318D01*
X121125554Y-86788426D01*
X121114164Y-86779649D01*
X121068908Y-86740385D01*
X121057667Y-86729301D01*
X121030836Y-86699239D01*
X121020455Y-86685872D01*
X121000116Y-86655631D01*
X120991214Y-86640074D01*
X120980343Y-86617416D01*
X120973681Y-86600421D01*
X120968108Y-86582392D01*
X120963332Y-86559419D01*
X120956213Y-86495105D01*
X120956212Y-86495098D01*
X120953286Y-86481526D01*
X120950500Y-86455390D01*
X120950500Y-85730249D01*
X120950499Y-85730247D01*
X120938868Y-85671770D01*
X120938867Y-85671769D01*
X120894552Y-85605447D01*
X120828230Y-85561132D01*
X120828229Y-85561131D01*
X120769752Y-85549500D01*
X120769748Y-85549500D01*
X117230252Y-85549500D01*
X117230247Y-85549500D01*
X117171770Y-85561131D01*
X117171769Y-85561132D01*
X117105447Y-85605447D01*
X117061132Y-85671769D01*
X117061131Y-85671770D01*
X117049500Y-85730247D01*
X114309275Y-85730247D01*
X114275474Y-85702686D01*
X114104215Y-85613228D01*
X113918461Y-85560079D01*
X113918458Y-85560078D01*
X113805097Y-85550000D01*
X113250000Y-85550000D01*
X113250000Y-86066988D01*
X113192993Y-86034075D01*
X113065826Y-86000000D01*
X112934174Y-86000000D01*
X112807007Y-86034075D01*
X112750000Y-86066988D01*
X112750000Y-85550000D01*
X112194907Y-85550000D01*
X112194901Y-85550001D01*
X112081539Y-85560078D01*
X111895784Y-85613228D01*
X111724525Y-85702686D01*
X111574784Y-85824784D01*
X111452686Y-85974525D01*
X111363228Y-86145784D01*
X111310079Y-86331538D01*
X111310078Y-86331541D01*
X111300000Y-86444902D01*
X105000500Y-86444902D01*
X105000500Y-81842882D01*
X114049500Y-81842882D01*
X114049500Y-83757118D01*
X114052249Y-83803263D01*
X114052249Y-83803267D01*
X114052250Y-83803268D01*
X114095907Y-84003961D01*
X114095909Y-84003968D01*
X114176760Y-84192771D01*
X114176763Y-84192777D01*
X114176766Y-84192781D01*
X114291882Y-84362868D01*
X114291890Y-84362877D01*
X114437122Y-84508109D01*
X114437131Y-84508117D01*
X114500176Y-84550786D01*
X114607223Y-84623237D01*
X114607228Y-84623239D01*
X114796031Y-84704090D01*
X114796038Y-84704092D01*
X114846969Y-84715171D01*
X114996737Y-84747751D01*
X115042882Y-84750500D01*
X115042893Y-84750500D01*
X116957107Y-84750500D01*
X116957118Y-84750500D01*
X117003263Y-84747751D01*
X117187352Y-84707705D01*
X117203961Y-84704092D01*
X117203968Y-84704090D01*
X117297523Y-84664027D01*
X117392777Y-84623237D01*
X117554453Y-84513812D01*
X117562868Y-84508117D01*
X117562869Y-84508115D01*
X117562875Y-84508112D01*
X117708112Y-84362875D01*
X117708700Y-84362007D01*
X117734746Y-84323523D01*
X117823237Y-84192777D01*
X117904091Y-84003965D01*
X117947751Y-83803263D01*
X117950500Y-83757118D01*
X117950500Y-82693242D01*
X124172449Y-82693242D01*
X124172449Y-83047449D01*
X124856763Y-83047449D01*
X124852369Y-83051843D01*
X124799708Y-83143055D01*
X124772449Y-83244788D01*
X124772449Y-83350110D01*
X124799708Y-83451843D01*
X124852369Y-83543055D01*
X124856763Y-83547449D01*
X124172450Y-83547449D01*
X124172450Y-83901645D01*
X124175300Y-83932055D01*
X124220102Y-84060094D01*
X124300656Y-84169241D01*
X124409803Y-84249795D01*
X124537846Y-84294598D01*
X124568241Y-84297448D01*
X124922448Y-84297448D01*
X124922449Y-84297447D01*
X124922449Y-83613135D01*
X124926843Y-83617529D01*
X125018055Y-83670190D01*
X125119788Y-83697449D01*
X125225110Y-83697449D01*
X125326843Y-83670190D01*
X125418055Y-83617529D01*
X125422449Y-83613135D01*
X125422449Y-84297448D01*
X125776645Y-84297448D01*
X125807055Y-84294597D01*
X125935094Y-84249795D01*
X126044241Y-84169241D01*
X126124795Y-84060094D01*
X126169598Y-83932053D01*
X126169598Y-83932049D01*
X126172449Y-83901655D01*
X126172449Y-83547449D01*
X125488135Y-83547449D01*
X125492529Y-83543055D01*
X125545190Y-83451843D01*
X125572449Y-83350110D01*
X125572449Y-83244788D01*
X125545190Y-83143055D01*
X125492529Y-83051843D01*
X125488135Y-83047449D01*
X126172448Y-83047449D01*
X126172448Y-82693252D01*
X126169597Y-82662842D01*
X126124795Y-82534803D01*
X126044241Y-82425656D01*
X125935094Y-82345102D01*
X125807051Y-82300299D01*
X125776656Y-82297449D01*
X125422449Y-82297449D01*
X125422449Y-82981763D01*
X125418055Y-82977369D01*
X125326843Y-82924708D01*
X125225110Y-82897449D01*
X125119788Y-82897449D01*
X125018055Y-82924708D01*
X124926843Y-82977369D01*
X124922449Y-82981763D01*
X124922449Y-82297449D01*
X124568253Y-82297449D01*
X124537842Y-82300300D01*
X124409803Y-82345102D01*
X124300656Y-82425656D01*
X124220102Y-82534803D01*
X124175299Y-82662844D01*
X124175299Y-82662848D01*
X124172449Y-82693242D01*
X117950500Y-82693242D01*
X117950500Y-81842882D01*
X117947751Y-81796737D01*
X117918644Y-81662935D01*
X117904092Y-81596038D01*
X117904090Y-81596031D01*
X117823239Y-81407228D01*
X117823237Y-81407223D01*
X117744967Y-81291578D01*
X117708117Y-81237131D01*
X117708109Y-81237122D01*
X117562877Y-81091890D01*
X117562868Y-81091882D01*
X117392781Y-80976766D01*
X117392777Y-80976763D01*
X117392773Y-80976761D01*
X117392771Y-80976760D01*
X117248723Y-80915075D01*
X117203968Y-80895909D01*
X117203961Y-80895907D01*
X117189021Y-80892657D01*
X125252449Y-80892657D01*
X125255219Y-80922199D01*
X125255221Y-80922211D01*
X125298778Y-81046686D01*
X125377095Y-81152802D01*
X125483211Y-81231119D01*
X125607686Y-81274676D01*
X125607698Y-81274678D01*
X125637241Y-81277449D01*
X125739949Y-81277449D01*
X126239949Y-81277449D01*
X126342657Y-81277449D01*
X126372199Y-81274678D01*
X126372211Y-81274676D01*
X126496686Y-81231119D01*
X126602802Y-81152802D01*
X126681119Y-81046686D01*
X126724676Y-80922211D01*
X126724678Y-80922199D01*
X126727449Y-80892657D01*
X126727449Y-80852449D01*
X126239949Y-80852449D01*
X126239949Y-81277449D01*
X125739949Y-81277449D01*
X125739949Y-80852449D01*
X125252449Y-80852449D01*
X125252449Y-80892657D01*
X117189021Y-80892657D01*
X117003268Y-80852250D01*
X117003267Y-80852249D01*
X117003263Y-80852249D01*
X116957118Y-80849500D01*
X115042882Y-80849500D01*
X114996737Y-80852249D01*
X114996732Y-80852249D01*
X114996731Y-80852250D01*
X114796038Y-80895907D01*
X114796031Y-80895909D01*
X114607228Y-80976760D01*
X114607218Y-80976766D01*
X114437131Y-81091882D01*
X114437122Y-81091890D01*
X114291890Y-81237122D01*
X114291882Y-81237131D01*
X114176766Y-81407218D01*
X114176760Y-81407228D01*
X114095909Y-81596031D01*
X114095907Y-81596038D01*
X114052250Y-81796731D01*
X114052249Y-81796737D01*
X114049500Y-81842882D01*
X105000500Y-81842882D01*
X105000500Y-80312240D01*
X125252449Y-80312240D01*
X125252449Y-80352449D01*
X125739949Y-80352449D01*
X126239949Y-80352449D01*
X126727449Y-80352449D01*
X126727449Y-80312240D01*
X126724678Y-80282698D01*
X126724676Y-80282686D01*
X126681119Y-80158211D01*
X126602802Y-80052095D01*
X126496686Y-79973778D01*
X126372211Y-79930221D01*
X126372199Y-79930219D01*
X126342657Y-79927449D01*
X126239949Y-79927449D01*
X126239949Y-80352449D01*
X125739949Y-80352449D01*
X125739949Y-79927449D01*
X125637241Y-79927449D01*
X125607698Y-79930219D01*
X125607686Y-79930221D01*
X125483211Y-79973778D01*
X125377095Y-80052095D01*
X125298778Y-80158211D01*
X125255221Y-80282686D01*
X125255219Y-80282698D01*
X125252449Y-80312240D01*
X105000500Y-80312240D01*
X105000500Y-76347464D01*
X109968558Y-76347464D01*
X133232666Y-76347464D01*
X133232666Y-74032913D01*
X109968558Y-74032913D01*
X109968558Y-76347464D01*
X105000500Y-76347464D01*
X105000500Y-73177034D01*
X110027706Y-73177034D01*
X125360909Y-73177034D01*
X125360909Y-70500002D01*
X133497430Y-70500002D01*
X133499076Y-70519863D01*
X133499500Y-70530105D01*
X133499500Y-70618097D01*
X133514957Y-70715692D01*
X133515681Y-70720269D01*
X133517923Y-70747315D01*
X133523375Y-70768848D01*
X133524260Y-70774430D01*
X133524261Y-70774434D01*
X133536446Y-70851366D01*
X133536447Y-70851369D01*
X133570646Y-70956624D01*
X133571919Y-70960544D01*
X133578843Y-70987884D01*
X133586398Y-71005107D01*
X133588303Y-71010971D01*
X133588306Y-71010977D01*
X133609432Y-71075993D01*
X133665729Y-71186482D01*
X133667362Y-71189687D01*
X133678529Y-71215145D01*
X133686728Y-71227695D01*
X133689756Y-71233637D01*
X133689757Y-71233639D01*
X133716657Y-71286433D01*
X133798666Y-71399308D01*
X133798667Y-71399310D01*
X133800485Y-71401812D01*
X133814261Y-71422898D01*
X133821580Y-71430849D01*
X133825803Y-71436661D01*
X133855480Y-71477506D01*
X133855485Y-71477512D01*
X133969438Y-71591465D01*
X133982337Y-71605477D01*
X133987358Y-71609385D01*
X134022490Y-71644517D01*
X134172815Y-71753735D01*
X134172857Y-71753765D01*
X134178172Y-71757902D01*
X134179657Y-71758706D01*
X134204073Y-71776445D01*
X134213565Y-71783342D01*
X134424003Y-71890566D01*
X134424005Y-71890566D01*
X134424008Y-71890568D01*
X134533392Y-71926109D01*
X134648631Y-71963553D01*
X134881903Y-72000500D01*
X134881908Y-72000500D01*
X142118097Y-72000500D01*
X142351368Y-71963553D01*
X142575992Y-71890568D01*
X142786433Y-71783343D01*
X142820349Y-71758700D01*
X142821828Y-71757902D01*
X142827113Y-71753787D01*
X142977510Y-71644517D01*
X143012647Y-71609379D01*
X143017663Y-71605477D01*
X143030550Y-71591476D01*
X143144517Y-71477510D01*
X143178416Y-71430851D01*
X143185739Y-71422898D01*
X143199500Y-71401831D01*
X143283343Y-71286433D01*
X143313271Y-71227695D01*
X143321471Y-71215145D01*
X143332632Y-71189696D01*
X143390568Y-71075992D01*
X143413593Y-71005125D01*
X143421157Y-70987884D01*
X143428079Y-70960544D01*
X143463553Y-70851368D01*
X143476620Y-70768861D01*
X143482077Y-70747315D01*
X143484318Y-70720258D01*
X143500500Y-70618092D01*
X143500500Y-70524992D01*
X143502571Y-70500000D01*
X143500500Y-70475007D01*
X143500500Y-70381910D01*
X143500500Y-70381907D01*
X143484318Y-70279740D01*
X143482077Y-70252685D01*
X143476621Y-70231143D01*
X143463553Y-70148632D01*
X143428080Y-70039459D01*
X143421157Y-70012116D01*
X143413593Y-69994874D01*
X143390568Y-69924008D01*
X143332639Y-69810317D01*
X143321471Y-69784855D01*
X143313271Y-69772304D01*
X143283343Y-69713567D01*
X143201321Y-69600673D01*
X143199512Y-69598184D01*
X143185739Y-69577102D01*
X143178414Y-69569146D01*
X143174187Y-69563327D01*
X143144524Y-69522498D01*
X143144518Y-69522491D01*
X143030561Y-69408534D01*
X143017663Y-69394523D01*
X143012641Y-69390614D01*
X142977511Y-69355484D01*
X142977508Y-69355482D01*
X142873607Y-69279993D01*
X142828786Y-69247428D01*
X142828786Y-69247427D01*
X142827113Y-69246212D01*
X142821828Y-69242098D01*
X142820350Y-69241298D01*
X142815608Y-69237853D01*
X142815582Y-69237835D01*
X142786432Y-69216656D01*
X142575996Y-69109433D01*
X142351368Y-69036446D01*
X142118097Y-68999500D01*
X142118092Y-68999500D01*
X142000207Y-68999500D01*
X135000500Y-68999500D01*
X135000000Y-68999500D01*
X134881908Y-68999500D01*
X134881903Y-68999500D01*
X134648631Y-69036446D01*
X134424003Y-69109433D01*
X134213562Y-69216659D01*
X134184402Y-69237845D01*
X134184397Y-69237849D01*
X134179644Y-69241301D01*
X134178172Y-69242098D01*
X134172922Y-69246183D01*
X134171229Y-69247414D01*
X134171219Y-69247422D01*
X134022491Y-69355482D01*
X133992793Y-69385179D01*
X133992792Y-69385178D01*
X133987343Y-69390626D01*
X133982337Y-69394523D01*
X133969483Y-69408485D01*
X133967631Y-69410338D01*
X133967632Y-69410338D01*
X133855483Y-69522489D01*
X133855480Y-69522493D01*
X133825808Y-69563332D01*
X133825807Y-69563334D01*
X133821580Y-69569150D01*
X133814261Y-69577102D01*
X133800506Y-69598155D01*
X133798679Y-69600670D01*
X133798675Y-69600672D01*
X133716661Y-69713560D01*
X133716653Y-69713573D01*
X133689756Y-69766361D01*
X133686723Y-69772312D01*
X133678529Y-69784855D01*
X133667371Y-69810291D01*
X133665729Y-69813515D01*
X133609433Y-69924003D01*
X133588306Y-69989021D01*
X133588307Y-69989022D01*
X133586404Y-69994877D01*
X133578843Y-70012116D01*
X133571915Y-70039471D01*
X133570984Y-70042336D01*
X133570652Y-70043362D01*
X133570651Y-70043364D01*
X133570649Y-70043365D01*
X133570650Y-70043365D01*
X133536447Y-70148627D01*
X133536447Y-70148629D01*
X133524262Y-70225560D01*
X133524262Y-70225561D01*
X133523377Y-70231146D01*
X133517923Y-70252685D01*
X133515682Y-70279719D01*
X133514960Y-70284283D01*
X133514959Y-70284293D01*
X133499500Y-70381907D01*
X133499500Y-70469884D01*
X133499077Y-70480121D01*
X133497430Y-70500002D01*
X125360909Y-70500002D01*
X125360909Y-69411582D01*
X110027706Y-69411582D01*
X110027706Y-73177034D01*
X105000500Y-73177034D01*
X105000500Y-70503246D01*
X105000670Y-70496756D01*
X105011805Y-70284293D01*
X105015184Y-70219811D01*
X105015794Y-70212424D01*
X105022814Y-70150112D01*
X105023553Y-70144658D01*
X105061850Y-69902860D01*
X105063420Y-69894721D01*
X105076105Y-69839144D01*
X105077172Y-69834844D01*
X105142289Y-69591827D01*
X105145007Y-69583016D01*
X105159943Y-69540331D01*
X105161178Y-69536964D01*
X105255743Y-69290612D01*
X105259762Y-69281305D01*
X105269729Y-69260608D01*
X105270863Y-69258318D01*
X105399415Y-69006023D01*
X105405891Y-68994808D01*
X105569819Y-68742380D01*
X105577434Y-68731899D01*
X105766858Y-68497979D01*
X105775525Y-68488354D01*
X105988354Y-68275525D01*
X105997979Y-68266858D01*
X106231899Y-68077434D01*
X106242380Y-68069819D01*
X106494808Y-67905891D01*
X106506023Y-67899415D01*
X106758318Y-67770863D01*
X106760608Y-67769729D01*
X106781305Y-67759762D01*
X106790603Y-67755746D01*
X107036964Y-67661178D01*
X107040331Y-67659943D01*
X107083016Y-67645007D01*
X107091827Y-67642289D01*
X107334844Y-67577172D01*
X107339144Y-67576105D01*
X107394721Y-67563420D01*
X107402860Y-67561850D01*
X107644658Y-67523553D01*
X107650112Y-67522814D01*
X107712430Y-67515793D01*
X107719811Y-67515184D01*
X107996756Y-67500669D01*
X108003246Y-67500500D01*
X141996754Y-67500500D01*
X142003243Y-67500669D01*
G37*
%TD.AperFunction*%
%TD*%
%TA.AperFunction,Conductor*%
%TO.N,+9V*%
G36*
X126466916Y-93405076D02*
G01*
X126712255Y-93506925D01*
X126935973Y-93599798D01*
X126942300Y-93606135D01*
X126942439Y-93606487D01*
X127113178Y-94060686D01*
X127112881Y-94069636D01*
X127106343Y-94075755D01*
X127101598Y-94076486D01*
X127014435Y-94071797D01*
X127014429Y-94071797D01*
X126912513Y-94091223D01*
X126814601Y-94130781D01*
X126721559Y-94185534D01*
X126553625Y-94320818D01*
X126553623Y-94320821D01*
X126415678Y-94457549D01*
X126374537Y-94499552D01*
X126366300Y-94503064D01*
X126357992Y-94499723D01*
X126357906Y-94499638D01*
X125950697Y-94092429D01*
X125947270Y-94084156D01*
X125950697Y-94075883D01*
X125951118Y-94075482D01*
X125955189Y-94071797D01*
X126057538Y-93979152D01*
X126136792Y-93909403D01*
X126293238Y-93754604D01*
X126390567Y-93623193D01*
X126441010Y-93506925D01*
X126450796Y-93414647D01*
X126455076Y-93406783D01*
X126463665Y-93404248D01*
X126466916Y-93405076D01*
G37*
%TD.AperFunction*%
%TD*%
%TA.AperFunction,Conductor*%
%TO.N,Net-(U1-DISCH)*%
G36*
X128946678Y-92655876D02*
G01*
X128950105Y-92664043D01*
X128950176Y-92671955D01*
X128967950Y-92862166D01*
X128967951Y-92862172D01*
X129010477Y-93026111D01*
X129070758Y-93146721D01*
X129144996Y-93227586D01*
X129144998Y-93227588D01*
X129144999Y-93227588D01*
X129145001Y-93227590D01*
X129178446Y-93244981D01*
X129217275Y-93265172D01*
X129223034Y-93272029D01*
X129222257Y-93280950D01*
X129218597Y-93285129D01*
X128771669Y-93598733D01*
X128762929Y-93600680D01*
X128758229Y-93598733D01*
X128485049Y-93407046D01*
X128311810Y-93285487D01*
X128307007Y-93277931D01*
X128308954Y-93269191D01*
X128313424Y-93265384D01*
X128355500Y-93244983D01*
X128401217Y-93206180D01*
X128439268Y-93157723D01*
X128479693Y-93080638D01*
X128509078Y-92994784D01*
X128542385Y-92808206D01*
X128549456Y-92663578D01*
X128553283Y-92655482D01*
X128561142Y-92652449D01*
X128938405Y-92652449D01*
X128946678Y-92655876D01*
G37*
%TD.AperFunction*%
%TD*%
%TA.AperFunction,Conductor*%
%TO.N,Net-(U1-DISCH)*%
G36*
X128494989Y-90765282D02*
G01*
X128499814Y-90772112D01*
X128548975Y-90964940D01*
X128610451Y-91124857D01*
X128610453Y-91124861D01*
X128610455Y-91124865D01*
X128660523Y-91221656D01*
X128677245Y-91253984D01*
X128745051Y-91365090D01*
X128806181Y-91465094D01*
X128806756Y-91466155D01*
X128882771Y-91625349D01*
X128883377Y-91626889D01*
X128910348Y-91712890D01*
X128910637Y-91713998D01*
X128931410Y-91813435D01*
X128931581Y-91814493D01*
X128945137Y-91932482D01*
X128945206Y-91933413D01*
X128949582Y-92060206D01*
X128946443Y-92068593D01*
X128938293Y-92072303D01*
X128937889Y-92072310D01*
X128560757Y-92072310D01*
X128552484Y-92068883D01*
X128549098Y-92061592D01*
X128546011Y-92024944D01*
X128540012Y-91953684D01*
X128511095Y-91865138D01*
X128473736Y-91814493D01*
X128464821Y-91802407D01*
X128402759Y-91761227D01*
X128402756Y-91761226D01*
X128326478Y-91737329D01*
X128326473Y-91737328D01*
X128237559Y-91726452D01*
X128237554Y-91726452D01*
X128028049Y-91726690D01*
X127768386Y-91726980D01*
X127767004Y-91726900D01*
X127568950Y-91703558D01*
X127561134Y-91699186D01*
X127558699Y-91690569D01*
X127558838Y-91689686D01*
X127710923Y-90924126D01*
X127715896Y-90916681D01*
X127720127Y-90914931D01*
X128486211Y-90763524D01*
X128494989Y-90765282D01*
G37*
%TD.AperFunction*%
%TD*%
%TA.AperFunction,Conductor*%
%TO.N,+9V*%
G36*
X120750491Y-86513193D02*
G01*
X120751960Y-86517708D01*
X120762527Y-86613162D01*
X120762528Y-86613170D01*
X120784537Y-86684364D01*
X120784538Y-86684366D01*
X120816264Y-86750496D01*
X120862516Y-86819265D01*
X120918348Y-86881821D01*
X120918356Y-86881829D01*
X120993953Y-86947417D01*
X120993960Y-86947423D01*
X121078239Y-87004897D01*
X121078254Y-87004907D01*
X121186313Y-87062948D01*
X121299172Y-87110235D01*
X121427257Y-87151157D01*
X121550488Y-87179391D01*
X121739503Y-87198915D01*
X121747379Y-87203174D01*
X121750000Y-87210553D01*
X121750000Y-87788854D01*
X121746573Y-87797127D01*
X121738867Y-87800540D01*
X121669884Y-87803886D01*
X121444842Y-87844163D01*
X121444835Y-87844164D01*
X121283004Y-87899352D01*
X121229060Y-87917748D01*
X121229059Y-87917748D01*
X121051293Y-88012090D01*
X121051282Y-88012097D01*
X120917283Y-88119235D01*
X120917273Y-88119245D01*
X120824408Y-88235686D01*
X120824406Y-88235689D01*
X120768980Y-88361615D01*
X120768979Y-88361618D01*
X120752353Y-88482840D01*
X120747834Y-88490571D01*
X120739172Y-88492841D01*
X120734960Y-88491410D01*
X119016790Y-87510160D01*
X119011305Y-87503081D01*
X119012432Y-87494198D01*
X119016790Y-87489840D01*
X120734530Y-86508834D01*
X120743412Y-86507708D01*
X120750491Y-86513193D01*
G37*
%TD.AperFunction*%
%TD*%
%TA.AperFunction,Conductor*%
%TO.N,+9V*%
G36*
X125497274Y-89336248D02*
G01*
X125500679Y-89343798D01*
X125516712Y-89602901D01*
X125561754Y-89805289D01*
X125561757Y-89805296D01*
X125627485Y-89965708D01*
X125706271Y-90109876D01*
X125792308Y-90267197D01*
X125792829Y-90268278D01*
X125884123Y-90485530D01*
X125884535Y-90486674D01*
X125922661Y-90612652D01*
X125922862Y-90613405D01*
X125954361Y-90749634D01*
X125952886Y-90758467D01*
X125945598Y-90763669D01*
X125945259Y-90763742D01*
X125174746Y-90917989D01*
X125170152Y-90917989D01*
X124399942Y-90763803D01*
X124392503Y-90758819D01*
X124390767Y-90750034D01*
X124390902Y-90749438D01*
X124445369Y-90538444D01*
X124445818Y-90537066D01*
X124465762Y-90486674D01*
X124514594Y-90363293D01*
X124515163Y-90362069D01*
X124590452Y-90222140D01*
X124590871Y-90221426D01*
X124667924Y-90100692D01*
X124755666Y-89960988D01*
X124832510Y-89795698D01*
X124860257Y-89704070D01*
X124881437Y-89599157D01*
X124895180Y-89475896D01*
X124895180Y-89475894D01*
X124895181Y-89475882D01*
X124899619Y-89344127D01*
X124903322Y-89335974D01*
X124911312Y-89332821D01*
X125489001Y-89332821D01*
X125497274Y-89336248D01*
G37*
%TD.AperFunction*%
%TD*%
%TA.AperFunction,Conductor*%
%TO.N,+9V*%
G36*
X133574099Y-83145460D02*
G01*
X133579067Y-83152910D01*
X133579118Y-83153189D01*
X133613580Y-83352627D01*
X133613648Y-83353071D01*
X133636728Y-83525954D01*
X133670206Y-83747293D01*
X133670208Y-83747302D01*
X133720385Y-83908166D01*
X133720387Y-83908173D01*
X133751139Y-83968935D01*
X133761337Y-83989085D01*
X133816765Y-84073975D01*
X133868384Y-84138128D01*
X133904998Y-84183633D01*
X133905007Y-84183643D01*
X134014786Y-84300052D01*
X134017969Y-84308422D01*
X134014547Y-84316352D01*
X133606245Y-84724654D01*
X133602313Y-84726282D01*
X133598449Y-84728071D01*
X133598208Y-84727982D01*
X133597972Y-84728081D01*
X133590043Y-84724985D01*
X133589839Y-84724797D01*
X133589495Y-84724466D01*
X133396999Y-84531970D01*
X133396994Y-84531966D01*
X133305675Y-84479242D01*
X133304964Y-84478948D01*
X133304981Y-84478904D01*
X133301833Y-84477396D01*
X133221570Y-84418754D01*
X133221553Y-84418742D01*
X133068322Y-84334103D01*
X132916094Y-84266245D01*
X132915921Y-84266166D01*
X132640817Y-84138128D01*
X132639737Y-84137555D01*
X132358517Y-83968935D01*
X132353184Y-83961742D01*
X132354500Y-83952884D01*
X132354798Y-83952413D01*
X132384284Y-83908167D01*
X132789046Y-83300787D01*
X132796484Y-83295804D01*
X132796487Y-83295803D01*
X133565318Y-83143703D01*
X133574099Y-83145460D01*
G37*
%TD.AperFunction*%
%TD*%
%TA.AperFunction,Conductor*%
%TO.N,+9V*%
G36*
X125899607Y-91062016D02*
G01*
X125945008Y-91071105D01*
X125952447Y-91076089D01*
X125954183Y-91084874D01*
X125954053Y-91085451D01*
X125901254Y-91293806D01*
X125900853Y-91295078D01*
X125835420Y-91467728D01*
X125834913Y-91468876D01*
X125764054Y-91608537D01*
X125763666Y-91609240D01*
X125691608Y-91729940D01*
X125691598Y-91729959D01*
X125668743Y-91768546D01*
X125616396Y-91856932D01*
X125539678Y-92027232D01*
X125512083Y-92120804D01*
X125490984Y-92228108D01*
X125477265Y-92354640D01*
X125472819Y-92490759D01*
X125469124Y-92498916D01*
X125461125Y-92502077D01*
X124883781Y-92502077D01*
X124875508Y-92498650D01*
X124872087Y-92490751D01*
X124870538Y-92442379D01*
X124867817Y-92357338D01*
X124854611Y-92232751D01*
X124833867Y-92125131D01*
X124806619Y-92031289D01*
X124736754Y-91872191D01*
X124653300Y-91729960D01*
X124550218Y-91552039D01*
X124549607Y-91550822D01*
X124459196Y-91340704D01*
X124458759Y-91339516D01*
X124444740Y-91293806D01*
X124421261Y-91217251D01*
X124421059Y-91216499D01*
X124390553Y-91085273D01*
X124392017Y-91076439D01*
X124399300Y-91071228D01*
X124399614Y-91071160D01*
X125170156Y-90916908D01*
X125174742Y-90916908D01*
X125899607Y-91062016D01*
G37*
%TD.AperFunction*%
%TD*%
%TA.AperFunction,Conductor*%
%TO.N,Net-(U1-THRES)*%
G36*
X127722440Y-80607692D02*
G01*
X128172866Y-80983080D01*
X128177027Y-80991009D01*
X128174363Y-80999559D01*
X128168540Y-81003332D01*
X128140694Y-81011156D01*
X128097556Y-81034139D01*
X128097549Y-81034144D01*
X128052263Y-81073138D01*
X128052258Y-81073144D01*
X128014911Y-81121761D01*
X127975104Y-81200252D01*
X127975097Y-81200269D01*
X127947132Y-81286421D01*
X127947125Y-81286447D01*
X127921472Y-81432035D01*
X127921472Y-81432044D01*
X127916148Y-81530331D01*
X127915549Y-81541382D01*
X127911680Y-81549458D01*
X127903866Y-81552449D01*
X127526521Y-81552449D01*
X127518248Y-81549022D01*
X127514822Y-81540878D01*
X127514809Y-81539727D01*
X127514706Y-81530331D01*
X127497150Y-81352537D01*
X127456158Y-81203668D01*
X127398560Y-81098104D01*
X127327399Y-81030892D01*
X127258562Y-81004463D01*
X127252067Y-80998298D01*
X127251833Y-80989346D01*
X127255264Y-80984553D01*
X127707458Y-80607691D01*
X127716008Y-80605028D01*
X127722440Y-80607692D01*
G37*
%TD.AperFunction*%
%TD*%
%TA.AperFunction,Conductor*%
%TO.N,Net-(U1-THRES)*%
G36*
X127911972Y-81716248D02*
G01*
X127915390Y-81724063D01*
X127920620Y-81857530D01*
X127936760Y-81981658D01*
X127936761Y-81981665D01*
X127936762Y-81981667D01*
X127962061Y-82088394D01*
X127962062Y-82088399D01*
X127962064Y-82088404D01*
X127995201Y-82180887D01*
X127995206Y-82180899D01*
X128062030Y-82303394D01*
X128079776Y-82335924D01*
X128179981Y-82472180D01*
X128225918Y-82532208D01*
X128226360Y-82532827D01*
X128341092Y-82704891D01*
X128341986Y-82706490D01*
X128429997Y-82897701D01*
X128430515Y-82899036D01*
X128466228Y-83010960D01*
X128466469Y-83011827D01*
X128494292Y-83129592D01*
X128492859Y-83138431D01*
X128485595Y-83143669D01*
X128485202Y-83143754D01*
X127714746Y-83297989D01*
X127710152Y-83297989D01*
X126940086Y-83143832D01*
X126932647Y-83138848D01*
X126930911Y-83130063D01*
X126931084Y-83129327D01*
X126989948Y-82911952D01*
X126990530Y-82910308D01*
X127068338Y-82734084D01*
X127069111Y-82732625D01*
X127085921Y-82705657D01*
X127156406Y-82592578D01*
X127156973Y-82591752D01*
X127247557Y-82471668D01*
X127369582Y-82303397D01*
X127446859Y-82148927D01*
X127474951Y-82061808D01*
X127496312Y-81962395D01*
X127510119Y-81846387D01*
X127514541Y-81724097D01*
X127518264Y-81715954D01*
X127526233Y-81712821D01*
X127903699Y-81712821D01*
X127911972Y-81716248D01*
G37*
%TD.AperFunction*%
%TD*%
%TA.AperFunction,Conductor*%
%TO.N,Net-(U1-THRES)*%
G36*
X131034050Y-90765469D02*
G01*
X131039018Y-90772919D01*
X131039077Y-90773246D01*
X131074655Y-90984352D01*
X131074731Y-90984875D01*
X131096875Y-91165918D01*
X131128065Y-91387769D01*
X131128068Y-91387778D01*
X131176948Y-91546557D01*
X131217364Y-91626820D01*
X131217369Y-91626829D01*
X131272216Y-91711132D01*
X131272217Y-91711133D01*
X131272223Y-91711140D01*
X131272226Y-91711145D01*
X131358037Y-91818130D01*
X131464088Y-91930763D01*
X131467265Y-91939135D01*
X131463843Y-91947056D01*
X131197017Y-92213882D01*
X131188744Y-92217309D01*
X131180765Y-92214166D01*
X131083266Y-92123261D01*
X131083251Y-92123248D01*
X130985212Y-92045584D01*
X130985211Y-92045583D01*
X130893461Y-91985803D01*
X130806559Y-91940851D01*
X130641664Y-91883246D01*
X130641655Y-91883244D01*
X130479159Y-91848343D01*
X130478992Y-91848306D01*
X130245483Y-91794569D01*
X130243898Y-91794084D01*
X130038364Y-91714844D01*
X130037141Y-91714289D01*
X129928098Y-91657123D01*
X129927361Y-91656702D01*
X129818261Y-91588997D01*
X129813038Y-91581723D01*
X129814489Y-91572887D01*
X129814665Y-91572612D01*
X130249046Y-90920787D01*
X130256484Y-90915804D01*
X130256487Y-90915803D01*
X131025271Y-90763712D01*
X131034050Y-90765469D01*
G37*
%TD.AperFunction*%
%TD*%
%TA.AperFunction,Conductor*%
%TO.N,Net-(U1-THRES)*%
G36*
X132220770Y-92687526D02*
G01*
X132279760Y-92743649D01*
X132351947Y-92812327D01*
X132541040Y-92963662D01*
X132708806Y-93063176D01*
X132853374Y-93115310D01*
X132962263Y-93125877D01*
X132970167Y-93130087D01*
X132972778Y-93138652D01*
X132971813Y-93142300D01*
X132767741Y-93598494D01*
X132761235Y-93604646D01*
X132760819Y-93604796D01*
X132296137Y-93762423D01*
X132287202Y-93761835D01*
X132281299Y-93755101D01*
X132280855Y-93749327D01*
X132283009Y-93737039D01*
X132287602Y-93658481D01*
X132280596Y-93579410D01*
X132258640Y-93483711D01*
X132224527Y-93389960D01*
X132195873Y-93332308D01*
X132167223Y-93274664D01*
X132167222Y-93274663D01*
X132167221Y-93274662D01*
X132167219Y-93274657D01*
X132100206Y-93168194D01*
X132071109Y-93130087D01*
X132012315Y-93053087D01*
X131937193Y-92970758D01*
X131934148Y-92962337D01*
X131937562Y-92954600D01*
X132204433Y-92687729D01*
X132212705Y-92684303D01*
X132220770Y-92687526D01*
G37*
%TD.AperFunction*%
%TD*%
%TA.AperFunction,Conductor*%
%TO.N,Net-(U1-DISCH)*%
G36*
X130606198Y-93156776D02*
G01*
X130609887Y-93159996D01*
X130935704Y-93595440D01*
X130937917Y-93604117D01*
X130935704Y-93609458D01*
X130610485Y-94044103D01*
X130602785Y-94048675D01*
X130594108Y-94046462D01*
X130590625Y-94042271D01*
X130567443Y-93995288D01*
X130527463Y-93949500D01*
X130477843Y-93911464D01*
X130477840Y-93911462D01*
X130477839Y-93911461D01*
X130399085Y-93871086D01*
X130399082Y-93871085D01*
X130399078Y-93871083D01*
X130311754Y-93841896D01*
X130129415Y-93809880D01*
X130101525Y-93808516D01*
X129988578Y-93802993D01*
X129980482Y-93799166D01*
X129977449Y-93791307D01*
X129977449Y-93413399D01*
X129980876Y-93405126D01*
X129988374Y-93401725D01*
X130180513Y-93388994D01*
X130349315Y-93351939D01*
X130471778Y-93297242D01*
X130552825Y-93228802D01*
X130590290Y-93161325D01*
X130597302Y-93155756D01*
X130606198Y-93156776D01*
G37*
%TD.AperFunction*%
%TD*%
%TA.AperFunction,Conductor*%
%TO.N,Net-(U1-DISCH)*%
G36*
X129110789Y-93158435D02*
G01*
X129114272Y-93162626D01*
X129137454Y-93209608D01*
X129177433Y-93255396D01*
X129227052Y-93293432D01*
X129227054Y-93293433D01*
X129227055Y-93293434D01*
X129305812Y-93333812D01*
X129305816Y-93333814D01*
X129393138Y-93363001D01*
X129575480Y-93395018D01*
X129716321Y-93401904D01*
X129724416Y-93405731D01*
X129727449Y-93413590D01*
X129727449Y-93791498D01*
X129724022Y-93799771D01*
X129716523Y-93803172D01*
X129524396Y-93815903D01*
X129524379Y-93815905D01*
X129355586Y-93852958D01*
X129233122Y-93907655D01*
X129152071Y-93976097D01*
X129114607Y-94043572D01*
X129107595Y-94049141D01*
X129098698Y-94048121D01*
X129095010Y-94044901D01*
X128951390Y-93852958D01*
X128769192Y-93609457D01*
X128766980Y-93600781D01*
X128769193Y-93595440D01*
X129094414Y-93160792D01*
X129102112Y-93156222D01*
X129110789Y-93158435D01*
G37*
%TD.AperFunction*%
%TD*%
%TA.AperFunction,Conductor*%
%TO.N,Net-(U1-OUT)*%
G36*
X130474453Y-81716248D02*
G01*
X130477872Y-81724082D01*
X130482882Y-81857402D01*
X130498347Y-81981533D01*
X130522593Y-82088393D01*
X130522598Y-82088409D01*
X130554375Y-82181158D01*
X130635548Y-82337070D01*
X130731859Y-82474616D01*
X130731866Y-82474625D01*
X130763870Y-82518382D01*
X130764218Y-82518886D01*
X130826827Y-82615154D01*
X130879822Y-82696640D01*
X130880667Y-82698182D01*
X130969149Y-82893073D01*
X130969651Y-82894380D01*
X131005721Y-83008355D01*
X131005955Y-83009203D01*
X131034303Y-83129598D01*
X131032863Y-83138437D01*
X131025596Y-83143669D01*
X131025211Y-83143752D01*
X130257216Y-83297494D01*
X130248431Y-83295758D01*
X130248409Y-83295743D01*
X129649074Y-82894380D01*
X129597314Y-82859717D01*
X129592347Y-82852268D01*
X129594104Y-82843487D01*
X129594320Y-82843175D01*
X129797223Y-82560492D01*
X129928392Y-82377636D01*
X130007640Y-82225004D01*
X130036062Y-82137771D01*
X130056920Y-82037656D01*
X130072383Y-81892291D01*
X130077128Y-81724190D01*
X130080787Y-81716018D01*
X130088823Y-81712821D01*
X130466180Y-81712821D01*
X130474453Y-81716248D01*
G37*
%TD.AperFunction*%
%TD*%
%TA.AperFunction,Conductor*%
%TO.N,Net-(U1-OUT)*%
G36*
X130284169Y-80606164D02*
G01*
X130731195Y-80919837D01*
X130735999Y-80927394D01*
X130734052Y-80936134D01*
X130729931Y-80939764D01*
X130664536Y-80974235D01*
X130618258Y-81019276D01*
X130580106Y-81073841D01*
X130580104Y-81073844D01*
X130539821Y-81159389D01*
X130539819Y-81159396D01*
X130511361Y-81252385D01*
X130495810Y-81346221D01*
X130484188Y-81416345D01*
X130484188Y-81416346D01*
X130478000Y-81541328D01*
X130474168Y-81549421D01*
X130466314Y-81552449D01*
X130088303Y-81552449D01*
X130080030Y-81549022D01*
X130076636Y-81541625D01*
X130067231Y-81416345D01*
X130061967Y-81346221D01*
X130022389Y-81179715D01*
X130012818Y-81159389D01*
X129965143Y-81058138D01*
X129965140Y-81058133D01*
X129894069Y-80977181D01*
X129894068Y-80977180D01*
X129824717Y-80939825D01*
X129819058Y-80932884D01*
X129819964Y-80923976D01*
X129823542Y-80919949D01*
X130270729Y-80606163D01*
X130279469Y-80604217D01*
X130284169Y-80606164D01*
G37*
%TD.AperFunction*%
%TD*%
%TA.AperFunction,Conductor*%
%TO.N,Net-(D1-A)*%
G36*
X132448289Y-80158435D02*
G01*
X132451772Y-80162626D01*
X132474954Y-80209608D01*
X132514933Y-80255396D01*
X132564552Y-80293432D01*
X132564554Y-80293433D01*
X132564555Y-80293434D01*
X132643312Y-80333812D01*
X132643316Y-80333814D01*
X132730638Y-80363001D01*
X132912980Y-80395018D01*
X133053821Y-80401904D01*
X133061916Y-80405731D01*
X133064949Y-80413590D01*
X133064949Y-80791498D01*
X133061522Y-80799771D01*
X133054023Y-80803172D01*
X132861896Y-80815903D01*
X132861879Y-80815905D01*
X132693086Y-80852958D01*
X132570622Y-80907655D01*
X132489571Y-80976097D01*
X132452107Y-81043572D01*
X132445095Y-81049141D01*
X132436198Y-81048121D01*
X132432510Y-81044901D01*
X132288890Y-80852958D01*
X132106692Y-80609457D01*
X132104480Y-80600781D01*
X132106693Y-80595440D01*
X132431914Y-80160792D01*
X132439612Y-80156222D01*
X132448289Y-80158435D01*
G37*
%TD.AperFunction*%
%TD*%
%TA.AperFunction,Conductor*%
%TO.N,Net-(D1-A)*%
G36*
X140549886Y-84455876D02*
G01*
X140553278Y-84463252D01*
X140559068Y-84538638D01*
X140561099Y-84565082D01*
X140601746Y-84740845D01*
X140601750Y-84740857D01*
X140664090Y-84881641D01*
X140664091Y-84881642D01*
X140734928Y-84973668D01*
X140739899Y-84980125D01*
X140826734Y-85040595D01*
X140826737Y-85040597D01*
X140906670Y-85060818D01*
X140913850Y-85066170D01*
X140915144Y-85075030D01*
X140911790Y-85080709D01*
X140360438Y-85595982D01*
X140352053Y-85599127D01*
X140344460Y-85595982D01*
X139793327Y-85080914D01*
X139789623Y-85072762D01*
X139792768Y-85064377D01*
X139798578Y-85060991D01*
X139829487Y-85053555D01*
X139872141Y-85043295D01*
X139872143Y-85043294D01*
X139872143Y-85043293D01*
X139872147Y-85043293D01*
X139925048Y-85013385D01*
X139971513Y-84973668D01*
X140021126Y-84912780D01*
X140061756Y-84842760D01*
X140102376Y-84743185D01*
X140130083Y-84641732D01*
X140147153Y-84538645D01*
X140151774Y-84463431D01*
X140155702Y-84455384D01*
X140163452Y-84452449D01*
X140541613Y-84452449D01*
X140549886Y-84455876D01*
G37*
%TD.AperFunction*%
%TD*%
%TA.AperFunction,Conductor*%
%TO.N,Net-(U1-THRES)*%
G36*
X133110789Y-93158435D02*
G01*
X133114272Y-93162626D01*
X133137454Y-93209608D01*
X133177433Y-93255396D01*
X133227052Y-93293432D01*
X133227054Y-93293433D01*
X133227055Y-93293434D01*
X133305812Y-93333812D01*
X133305816Y-93333814D01*
X133393138Y-93363001D01*
X133575480Y-93395018D01*
X133716321Y-93401904D01*
X133724416Y-93405731D01*
X133727449Y-93413590D01*
X133727449Y-93791498D01*
X133724022Y-93799771D01*
X133716523Y-93803172D01*
X133524396Y-93815903D01*
X133524379Y-93815905D01*
X133355586Y-93852958D01*
X133233122Y-93907655D01*
X133152071Y-93976097D01*
X133114607Y-94043572D01*
X133107595Y-94049141D01*
X133098698Y-94048121D01*
X133095010Y-94044901D01*
X132951390Y-93852958D01*
X132769192Y-93609457D01*
X132766980Y-93600781D01*
X132769193Y-93595440D01*
X133094414Y-93160792D01*
X133102112Y-93156222D01*
X133110789Y-93158435D01*
G37*
%TD.AperFunction*%
%TD*%
%TA.AperFunction,Conductor*%
%TO.N,Net-(U1-THRES)*%
G36*
X128383442Y-82863175D02*
G01*
X128383852Y-82863836D01*
X128495879Y-83058893D01*
X128496637Y-83060479D01*
X128566379Y-83239819D01*
X128566867Y-83241392D01*
X128604454Y-83401860D01*
X128604645Y-83402876D01*
X128625850Y-83551554D01*
X128658766Y-83755390D01*
X128713577Y-83919462D01*
X128755423Y-84001027D01*
X128810732Y-84086539D01*
X128868552Y-84159946D01*
X128883148Y-84178477D01*
X128966684Y-84268267D01*
X128969810Y-84276657D01*
X128966391Y-84284508D01*
X128699482Y-84551417D01*
X128691209Y-84554844D01*
X128683268Y-84551736D01*
X128585163Y-84461063D01*
X128585153Y-84461054D01*
X128485909Y-84384744D01*
X128392488Y-84327264D01*
X128392484Y-84327262D01*
X128303554Y-84285417D01*
X128244762Y-84268265D01*
X128133933Y-84235931D01*
X127966485Y-84210840D01*
X127889323Y-84200764D01*
X127888558Y-84200639D01*
X127686217Y-84160445D01*
X127684447Y-84159946D01*
X127487318Y-84087212D01*
X127486004Y-84086633D01*
X127381778Y-84032866D01*
X127380994Y-84032422D01*
X127278296Y-83968989D01*
X127273058Y-83961726D01*
X127274490Y-83952887D01*
X127274681Y-83952588D01*
X127710443Y-83298690D01*
X127713691Y-83295443D01*
X127795998Y-83240593D01*
X128367220Y-82859926D01*
X128376003Y-82858191D01*
X128383442Y-82863175D01*
G37*
%TD.AperFunction*%
%TD*%
M02*
