%TF.GenerationSoftware,KiCad,Pcbnew,9.0.7*%
%TF.CreationDate,2026-02-26T18:01:03-05:00*%
%TF.ProjectId,blinky_PCB,626c696e-6b79-45f5-9043-422e6b696361,rev?*%
%TF.SameCoordinates,Original*%
%TF.FileFunction,Copper,L1,Top*%
%TF.FilePolarity,Positive*%
%FSLAX46Y46*%
G04 Gerber Fmt 4.6, Leading zero omitted, Abs format (unit mm)*
G04 Created by KiCad (PCBNEW 9.0.7) date 2026-02-26 18:01:03*
%MOMM*%
%LPD*%
G01*
G04 APERTURE LIST*
G04 Aperture macros list*
%AMRoundRect*
0 Rectangle with rounded corners*
0 $1 Rounding radius*
0 $2 $3 $4 $5 $6 $7 $8 $9 X,Y pos of 4 corners*
0 Add a 4 corners polygon primitive as box body*
4,1,4,$2,$3,$4,$5,$6,$7,$8,$9,$2,$3,0*
0 Add four circle primitives for the rounded corners*
1,1,$1+$1,$2,$3*
1,1,$1+$1,$4,$5*
1,1,$1+$1,$6,$7*
1,1,$1+$1,$8,$9*
0 Add four rect primitives between the rounded corners*
20,1,$1+$1,$2,$3,$4,$5,0*
20,1,$1+$1,$4,$5,$6,$7,0*
20,1,$1+$1,$6,$7,$8,$9,0*
20,1,$1+$1,$8,$9,$2,$3,0*%
G04 Aperture macros list end*
%ADD10C,0.500000*%
%TA.AperFunction,NonConductor*%
%ADD11C,0.500000*%
%TD*%
%TA.AperFunction,SMDPad,CuDef*%
%ADD12RoundRect,0.237500X-0.250000X-0.237500X0.250000X-0.237500X0.250000X0.237500X-0.250000X0.237500X0*%
%TD*%
%TA.AperFunction,ComponentPad*%
%ADD13RoundRect,0.875000X-0.875000X-0.875000X0.875000X-0.875000X0.875000X0.875000X-0.875000X0.875000X0*%
%TD*%
%TA.AperFunction,ComponentPad*%
%ADD14RoundRect,0.750000X-0.750000X-1.000000X0.750000X-1.000000X0.750000X1.000000X-0.750000X1.000000X0*%
%TD*%
%TA.AperFunction,ComponentPad*%
%ADD15R,3.500000X3.500000*%
%TD*%
%TA.AperFunction,SMDPad,CuDef*%
%ADD16RoundRect,0.250000X0.450000X-0.325000X0.450000X0.325000X-0.450000X0.325000X-0.450000X-0.325000X0*%
%TD*%
%TA.AperFunction,ComponentPad*%
%ADD17RoundRect,0.250000X-0.550000X0.550000X-0.550000X-0.550000X0.550000X-0.550000X0.550000X0.550000X0*%
%TD*%
%TA.AperFunction,ComponentPad*%
%ADD18C,1.600000*%
%TD*%
%TA.AperFunction,SMDPad,CuDef*%
%ADD19RoundRect,0.237500X0.300000X0.237500X-0.300000X0.237500X-0.300000X-0.237500X0.300000X-0.237500X0*%
%TD*%
%TA.AperFunction,Conductor*%
%ADD20C,0.400000*%
%TD*%
%TA.AperFunction,Conductor*%
%ADD21C,0.600000*%
%TD*%
G04 APERTURE END LIST*
D10*
D11*
X108793232Y-71035428D02*
X109221804Y-71178285D01*
X109221804Y-71178285D02*
X109364661Y-71321142D01*
X109364661Y-71321142D02*
X109507518Y-71606857D01*
X109507518Y-71606857D02*
X109507518Y-72035428D01*
X109507518Y-72035428D02*
X109364661Y-72321142D01*
X109364661Y-72321142D02*
X109221804Y-72464000D01*
X109221804Y-72464000D02*
X108936089Y-72606857D01*
X108936089Y-72606857D02*
X107793232Y-72606857D01*
X107793232Y-72606857D02*
X107793232Y-69606857D01*
X107793232Y-69606857D02*
X108793232Y-69606857D01*
X108793232Y-69606857D02*
X109078947Y-69749714D01*
X109078947Y-69749714D02*
X109221804Y-69892571D01*
X109221804Y-69892571D02*
X109364661Y-70178285D01*
X109364661Y-70178285D02*
X109364661Y-70464000D01*
X109364661Y-70464000D02*
X109221804Y-70749714D01*
X109221804Y-70749714D02*
X109078947Y-70892571D01*
X109078947Y-70892571D02*
X108793232Y-71035428D01*
X108793232Y-71035428D02*
X107793232Y-71035428D01*
X112221804Y-72606857D02*
X110793232Y-72606857D01*
X110793232Y-72606857D02*
X110793232Y-69606857D01*
X113221803Y-72606857D02*
X113221803Y-69606857D01*
X114650374Y-72606857D02*
X114650374Y-69606857D01*
X114650374Y-69606857D02*
X116364660Y-72606857D01*
X116364660Y-72606857D02*
X116364660Y-69606857D01*
X117793231Y-72606857D02*
X117793231Y-69606857D01*
X119507517Y-72606857D02*
X118221803Y-70892571D01*
X119507517Y-69606857D02*
X117793231Y-71321142D01*
X121364660Y-71178285D02*
X121364660Y-72606857D01*
X120364660Y-69606857D02*
X121364660Y-71178285D01*
X121364660Y-71178285D02*
X122364660Y-69606857D01*
D10*
D11*
X107793232Y-77106857D02*
X107793232Y-74106857D01*
X107793232Y-75535428D02*
X109507518Y-75535428D01*
X109507518Y-77106857D02*
X109507518Y-74106857D01*
X110793232Y-76249714D02*
X112221804Y-76249714D01*
X110507518Y-77106857D02*
X111507518Y-74106857D01*
X111507518Y-74106857D02*
X112507518Y-77106857D01*
X115221804Y-77106857D02*
X114221804Y-75678285D01*
X113507518Y-77106857D02*
X113507518Y-74106857D01*
X113507518Y-74106857D02*
X114650375Y-74106857D01*
X114650375Y-74106857D02*
X114936090Y-74249714D01*
X114936090Y-74249714D02*
X115078947Y-74392571D01*
X115078947Y-74392571D02*
X115221804Y-74678285D01*
X115221804Y-74678285D02*
X115221804Y-75106857D01*
X115221804Y-75106857D02*
X115078947Y-75392571D01*
X115078947Y-75392571D02*
X114936090Y-75535428D01*
X114936090Y-75535428D02*
X114650375Y-75678285D01*
X114650375Y-75678285D02*
X113507518Y-75678285D01*
X118221804Y-77106857D02*
X117221804Y-75678285D01*
X116507518Y-77106857D02*
X116507518Y-74106857D01*
X116507518Y-74106857D02*
X117650375Y-74106857D01*
X117650375Y-74106857D02*
X117936090Y-74249714D01*
X117936090Y-74249714D02*
X118078947Y-74392571D01*
X118078947Y-74392571D02*
X118221804Y-74678285D01*
X118221804Y-74678285D02*
X118221804Y-75106857D01*
X118221804Y-75106857D02*
X118078947Y-75392571D01*
X118078947Y-75392571D02*
X117936090Y-75535428D01*
X117936090Y-75535428D02*
X117650375Y-75678285D01*
X117650375Y-75678285D02*
X116507518Y-75678285D01*
X119507518Y-77106857D02*
X119507518Y-74106857D01*
X120793232Y-76964000D02*
X121221804Y-77106857D01*
X121221804Y-77106857D02*
X121936089Y-77106857D01*
X121936089Y-77106857D02*
X122221804Y-76964000D01*
X122221804Y-76964000D02*
X122364661Y-76821142D01*
X122364661Y-76821142D02*
X122507518Y-76535428D01*
X122507518Y-76535428D02*
X122507518Y-76249714D01*
X122507518Y-76249714D02*
X122364661Y-75964000D01*
X122364661Y-75964000D02*
X122221804Y-75821142D01*
X122221804Y-75821142D02*
X121936089Y-75678285D01*
X121936089Y-75678285D02*
X121364661Y-75535428D01*
X121364661Y-75535428D02*
X121078946Y-75392571D01*
X121078946Y-75392571D02*
X120936089Y-75249714D01*
X120936089Y-75249714D02*
X120793232Y-74964000D01*
X120793232Y-74964000D02*
X120793232Y-74678285D01*
X120793232Y-74678285D02*
X120936089Y-74392571D01*
X120936089Y-74392571D02*
X121078946Y-74249714D01*
X121078946Y-74249714D02*
X121364661Y-74106857D01*
X121364661Y-74106857D02*
X122078946Y-74106857D01*
X122078946Y-74106857D02*
X122507518Y-74249714D01*
X127507518Y-77106857D02*
X126078946Y-77106857D01*
X126078946Y-77106857D02*
X126078946Y-74106857D01*
X128364660Y-76249714D02*
X129793232Y-76249714D01*
X128078946Y-77106857D02*
X129078946Y-74106857D01*
X129078946Y-74106857D02*
X130078946Y-77106857D01*
X132078946Y-75535428D02*
X132507518Y-75678285D01*
X132507518Y-75678285D02*
X132650375Y-75821142D01*
X132650375Y-75821142D02*
X132793232Y-76106857D01*
X132793232Y-76106857D02*
X132793232Y-76535428D01*
X132793232Y-76535428D02*
X132650375Y-76821142D01*
X132650375Y-76821142D02*
X132507518Y-76964000D01*
X132507518Y-76964000D02*
X132221803Y-77106857D01*
X132221803Y-77106857D02*
X131078946Y-77106857D01*
X131078946Y-77106857D02*
X131078946Y-74106857D01*
X131078946Y-74106857D02*
X132078946Y-74106857D01*
X132078946Y-74106857D02*
X132364661Y-74249714D01*
X132364661Y-74249714D02*
X132507518Y-74392571D01*
X132507518Y-74392571D02*
X132650375Y-74678285D01*
X132650375Y-74678285D02*
X132650375Y-74964000D01*
X132650375Y-74964000D02*
X132507518Y-75249714D01*
X132507518Y-75249714D02*
X132364661Y-75392571D01*
X132364661Y-75392571D02*
X132078946Y-75535428D01*
X132078946Y-75535428D02*
X131078946Y-75535428D01*
X136507517Y-74106857D02*
X136221803Y-74678285D01*
X137650374Y-74392571D02*
X137793231Y-74249714D01*
X137793231Y-74249714D02*
X138078946Y-74106857D01*
X138078946Y-74106857D02*
X138793231Y-74106857D01*
X138793231Y-74106857D02*
X139078946Y-74249714D01*
X139078946Y-74249714D02*
X139221803Y-74392571D01*
X139221803Y-74392571D02*
X139364660Y-74678285D01*
X139364660Y-74678285D02*
X139364660Y-74964000D01*
X139364660Y-74964000D02*
X139221803Y-75392571D01*
X139221803Y-75392571D02*
X137507517Y-77106857D01*
X137507517Y-77106857D02*
X139364660Y-77106857D01*
X141936089Y-74106857D02*
X141364660Y-74106857D01*
X141364660Y-74106857D02*
X141078946Y-74249714D01*
X141078946Y-74249714D02*
X140936089Y-74392571D01*
X140936089Y-74392571D02*
X140650374Y-74821142D01*
X140650374Y-74821142D02*
X140507517Y-75392571D01*
X140507517Y-75392571D02*
X140507517Y-76535428D01*
X140507517Y-76535428D02*
X140650374Y-76821142D01*
X140650374Y-76821142D02*
X140793231Y-76964000D01*
X140793231Y-76964000D02*
X141078946Y-77106857D01*
X141078946Y-77106857D02*
X141650374Y-77106857D01*
X141650374Y-77106857D02*
X141936089Y-76964000D01*
X141936089Y-76964000D02*
X142078946Y-76821142D01*
X142078946Y-76821142D02*
X142221803Y-76535428D01*
X142221803Y-76535428D02*
X142221803Y-75821142D01*
X142221803Y-75821142D02*
X142078946Y-75535428D01*
X142078946Y-75535428D02*
X141936089Y-75392571D01*
X141936089Y-75392571D02*
X141650374Y-75249714D01*
X141650374Y-75249714D02*
X141078946Y-75249714D01*
X141078946Y-75249714D02*
X140793231Y-75392571D01*
X140793231Y-75392571D02*
X140650374Y-75535428D01*
X140650374Y-75535428D02*
X140507517Y-75821142D01*
D12*
%TO.P,R1,2*%
%TO.N,Net-(U1-THRES)*%
X132764949Y-93602449D03*
%TO.P,R1,1*%
%TO.N,Net-(U1-DISCH)*%
X130939949Y-93602449D03*
%TD*%
D13*
%TO.P,J1,3*%
%TO.N,N/C*%
X115250000Y-82800000D03*
D14*
%TO.P,J1,2*%
%TO.N,GND*%
X112250000Y-87500000D03*
D15*
%TO.P,J1,1*%
%TO.N,+9V*%
X118250000Y-87500000D03*
%TD*%
D16*
%TO.P,D1,2,A*%
%TO.N,Net-(D1-A)*%
X140352449Y-85602449D03*
%TO.P,D1,1,K*%
%TO.N,GND*%
X140352449Y-87652449D03*
%TD*%
D17*
%TO.P,U1,1,GND*%
%TO.N,GND*%
X125172449Y-83297449D03*
D18*
%TO.P,U1,2,TRIG*%
%TO.N,Net-(U1-THRES)*%
X127712449Y-83297449D03*
%TO.P,U1,3,OUT*%
%TO.N,Net-(U1-OUT)*%
X130252449Y-83297449D03*
%TO.P,U1,4,~{RST}*%
%TO.N,+9V*%
X132792449Y-83297449D03*
%TO.P,U1,5,CONT*%
%TO.N,unconnected-(U1-CONT-Pad5)*%
X132792449Y-90917449D03*
%TO.P,U1,6,THRES*%
%TO.N,Net-(U1-THRES)*%
X130252449Y-90917449D03*
%TO.P,U1,7,DISCH*%
%TO.N,Net-(U1-DISCH)*%
X127712449Y-90917449D03*
%TO.P,U1,8,VCC*%
%TO.N,+9V*%
X125172449Y-90917449D03*
%TD*%
D12*
%TO.P,R2,2*%
%TO.N,Net-(U1-DISCH)*%
X128764949Y-93602449D03*
%TO.P,R2,1*%
%TO.N,+9V*%
X126939949Y-93602449D03*
%TD*%
D19*
%TO.P,C1,2*%
%TO.N,GND*%
X125989949Y-80602449D03*
%TO.P,C1,1*%
%TO.N,Net-(U1-THRES)*%
X127714949Y-80602449D03*
%TD*%
D12*
%TO.P,R3,2*%
%TO.N,Net-(D1-A)*%
X132102449Y-80602449D03*
%TO.P,R3,1*%
%TO.N,Net-(U1-OUT)*%
X130277449Y-80602449D03*
%TD*%
D20*
%TO.N,Net-(U1-DISCH)*%
X128764949Y-93602449D02*
X130939949Y-93602449D01*
D21*
%TO.N,+9V*%
X132792449Y-83502449D02*
X135852449Y-86562449D01*
D20*
%TO.N,Net-(U1-THRES)*%
X132764949Y-93602449D02*
X132869847Y-93497551D01*
X132747551Y-93497551D02*
X130252449Y-91002449D01*
X132868243Y-84852449D02*
X134951449Y-86935655D01*
D21*
%TO.N,+9V*%
X125189949Y-93352449D02*
X125172449Y-93334949D01*
X125852449Y-94602449D02*
X126852449Y-93602449D01*
D20*
%TO.N,Net-(U1-THRES)*%
X134951449Y-92229243D02*
X133578243Y-93602449D01*
X130252449Y-91002449D02*
X130252449Y-90917449D01*
%TO.N,Net-(D1-A)*%
X132102449Y-80602449D02*
X137602449Y-80602449D01*
%TO.N,Net-(U1-THRES)*%
X132869847Y-93497551D02*
X132747551Y-93497551D01*
D21*
%TO.N,+9V*%
X126852449Y-93602449D02*
X126939949Y-93602449D01*
D20*
%TO.N,Net-(U1-THRES)*%
X127714949Y-80602449D02*
X127714949Y-83294949D01*
D21*
%TO.N,+9V*%
X133102449Y-95352449D02*
X126602449Y-95352449D01*
X126602449Y-95352449D02*
X125189949Y-93939949D01*
X125189949Y-93939949D02*
X125189949Y-93352449D01*
D20*
%TO.N,Net-(U1-OUT)*%
X130277449Y-80602449D02*
X130277449Y-83272449D01*
%TO.N,Net-(U1-THRES)*%
X127714949Y-83294949D02*
X127712449Y-83297449D01*
%TO.N,Net-(D1-A)*%
X137602449Y-80602449D02*
X140352449Y-83352449D01*
X140352449Y-83352449D02*
X140352449Y-85602449D01*
%TO.N,Net-(U1-THRES)*%
X134951449Y-86935655D02*
X134951449Y-92229243D01*
X133578243Y-93602449D02*
X132764949Y-93602449D01*
X127712449Y-83297449D02*
X129267449Y-84852449D01*
X129267449Y-84852449D02*
X132868243Y-84852449D01*
D21*
%TO.N,+9V*%
X121550000Y-87500000D02*
X118250000Y-87500000D01*
X135852449Y-92602449D02*
X133102449Y-95352449D01*
X135852449Y-86562449D02*
X135852449Y-92602449D01*
X125172449Y-91122449D02*
X121550000Y-87500000D01*
D20*
%TO.N,Net-(U1-DISCH)*%
X128514949Y-93352449D02*
X128514949Y-91719949D01*
D21*
%TO.N,+9V*%
X125172449Y-93334949D02*
X125172449Y-91122449D01*
D20*
%TO.N,Net-(U1-DISCH)*%
X128764949Y-93602449D02*
X128514949Y-93352449D01*
X128514949Y-91719949D02*
X127712449Y-90917449D01*
%TO.N,Net-(U1-OUT)*%
X130277449Y-83272449D02*
X130252449Y-83297449D01*
%TD*%
%TA.AperFunction,Conductor*%
%TO.N,GND*%
G36*
X142003243Y-67500669D02*
G01*
X142280182Y-67515184D01*
X142287575Y-67515794D01*
X142349875Y-67522813D01*
X142355353Y-67523555D01*
X142597128Y-67561848D01*
X142605289Y-67563423D01*
X142660830Y-67576100D01*
X142665181Y-67577179D01*
X142908157Y-67642284D01*
X142916999Y-67645013D01*
X142959629Y-67659930D01*
X142963079Y-67661195D01*
X143209378Y-67755739D01*
X143218711Y-67759770D01*
X143239307Y-67769689D01*
X143241754Y-67770900D01*
X143493968Y-67899411D01*
X143505203Y-67905898D01*
X143757608Y-68069812D01*
X143768109Y-68077441D01*
X144002010Y-68266850D01*
X144011655Y-68275535D01*
X144224464Y-68488344D01*
X144233149Y-68497989D01*
X144422558Y-68731890D01*
X144430187Y-68742391D01*
X144594101Y-68994796D01*
X144600591Y-69006036D01*
X144729075Y-69258199D01*
X144730309Y-69260691D01*
X144740223Y-69281277D01*
X144744268Y-69290643D01*
X144838791Y-69536887D01*
X144840068Y-69540369D01*
X144854985Y-69582999D01*
X144857719Y-69591860D01*
X144922806Y-69834766D01*
X144923923Y-69839269D01*
X144936569Y-69894679D01*
X144938150Y-69902872D01*
X144976440Y-70144627D01*
X144977187Y-70150142D01*
X144984204Y-70212424D01*
X144984814Y-70219816D01*
X144999330Y-70496755D01*
X144999500Y-70503246D01*
X144999500Y-94496753D01*
X144999330Y-94503244D01*
X144984814Y-94780182D01*
X144984204Y-94787574D01*
X144977187Y-94849856D01*
X144976440Y-94855371D01*
X144938150Y-95097126D01*
X144936569Y-95105319D01*
X144923923Y-95160729D01*
X144922806Y-95165232D01*
X144857719Y-95408138D01*
X144854985Y-95416999D01*
X144840068Y-95459629D01*
X144838791Y-95463111D01*
X144744268Y-95709355D01*
X144740223Y-95718721D01*
X144730309Y-95739307D01*
X144729075Y-95741799D01*
X144600591Y-95993964D01*
X144594105Y-96005197D01*
X144508881Y-96136432D01*
X144430187Y-96257609D01*
X144422558Y-96268109D01*
X144233149Y-96502010D01*
X144224464Y-96511655D01*
X144011655Y-96724464D01*
X144002010Y-96733149D01*
X143768109Y-96922558D01*
X143757609Y-96930187D01*
X143505197Y-97094105D01*
X143493964Y-97100591D01*
X143241799Y-97229075D01*
X143239307Y-97230309D01*
X143218721Y-97240223D01*
X143209355Y-97244268D01*
X142963111Y-97338791D01*
X142959629Y-97340068D01*
X142916999Y-97354985D01*
X142908138Y-97357719D01*
X142665232Y-97422806D01*
X142660729Y-97423923D01*
X142605319Y-97436569D01*
X142597126Y-97438150D01*
X142355371Y-97476440D01*
X142349856Y-97477187D01*
X142287574Y-97484204D01*
X142280182Y-97484814D01*
X142003244Y-97499330D01*
X141996753Y-97499500D01*
X108003246Y-97499500D01*
X107996757Y-97499330D01*
X107986676Y-97498801D01*
X107719816Y-97484814D01*
X107712424Y-97484204D01*
X107650142Y-97477187D01*
X107644627Y-97476440D01*
X107402872Y-97438150D01*
X107394679Y-97436569D01*
X107366044Y-97430033D01*
X107339245Y-97423917D01*
X107334766Y-97422806D01*
X107091860Y-97357719D01*
X107082999Y-97354985D01*
X107040369Y-97340068D01*
X107036887Y-97338791D01*
X106790643Y-97244268D01*
X106781277Y-97240223D01*
X106760691Y-97230309D01*
X106758199Y-97229075D01*
X106506036Y-97100591D01*
X106494796Y-97094101D01*
X106242391Y-96930187D01*
X106231890Y-96922558D01*
X105997989Y-96733149D01*
X105988344Y-96724464D01*
X105775535Y-96511655D01*
X105766850Y-96502010D01*
X105577441Y-96268109D01*
X105569812Y-96257608D01*
X105491119Y-96136432D01*
X105405896Y-96005199D01*
X105399408Y-95993963D01*
X105333223Y-95864068D01*
X105270900Y-95741754D01*
X105269689Y-95739307D01*
X105259775Y-95718721D01*
X105255739Y-95709378D01*
X105161195Y-95463079D01*
X105159930Y-95459629D01*
X105145013Y-95416999D01*
X105142284Y-95408157D01*
X105077179Y-95165181D01*
X105076100Y-95160830D01*
X105063423Y-95105289D01*
X105061848Y-95097126D01*
X105023555Y-94855353D01*
X105022811Y-94849856D01*
X105015794Y-94787574D01*
X105015184Y-94780181D01*
X105000670Y-94503243D01*
X105000500Y-94496753D01*
X105000500Y-86435803D01*
X110250000Y-86435803D01*
X110250000Y-87250000D01*
X111750000Y-87250000D01*
X111750000Y-87750000D01*
X110250001Y-87750000D01*
X110250001Y-88564197D01*
X110260400Y-88696332D01*
X110315377Y-88914519D01*
X110408428Y-89119374D01*
X110408431Y-89119380D01*
X110536559Y-89304323D01*
X110536569Y-89304335D01*
X110695664Y-89463430D01*
X110695676Y-89463440D01*
X110880619Y-89591568D01*
X110880625Y-89591571D01*
X111085480Y-89684622D01*
X111303667Y-89739599D01*
X111435810Y-89749999D01*
X111999999Y-89749999D01*
X112000000Y-89749998D01*
X112000000Y-88933012D01*
X112057007Y-88965925D01*
X112184174Y-89000000D01*
X112315826Y-89000000D01*
X112442993Y-88965925D01*
X112500000Y-88933012D01*
X112500000Y-89749999D01*
X113064182Y-89749999D01*
X113064197Y-89749998D01*
X113196332Y-89739599D01*
X113414519Y-89684622D01*
X113619374Y-89591571D01*
X113619380Y-89591568D01*
X113804323Y-89463440D01*
X113804335Y-89463430D01*
X113963430Y-89304335D01*
X113963440Y-89304323D01*
X114091568Y-89119380D01*
X114091571Y-89119374D01*
X114184622Y-88914519D01*
X114239599Y-88696332D01*
X114249999Y-88564196D01*
X114250000Y-88564184D01*
X114250000Y-87750000D01*
X112750000Y-87750000D01*
X112750000Y-87250000D01*
X114249999Y-87250000D01*
X114249999Y-86435817D01*
X114249998Y-86435802D01*
X114239599Y-86303667D01*
X114184622Y-86085480D01*
X114091571Y-85880625D01*
X114091568Y-85880619D01*
X114032098Y-85794778D01*
X114032095Y-85794776D01*
X113987390Y-85730247D01*
X116299500Y-85730247D01*
X116299500Y-89269752D01*
X116311131Y-89328229D01*
X116311132Y-89328230D01*
X116355447Y-89394552D01*
X116421769Y-89438867D01*
X116421770Y-89438868D01*
X116480247Y-89450499D01*
X116480250Y-89450500D01*
X116480252Y-89450500D01*
X120019750Y-89450500D01*
X120019751Y-89450499D01*
X120034568Y-89447552D01*
X120078229Y-89438868D01*
X120078229Y-89438867D01*
X120078231Y-89438867D01*
X120144552Y-89394552D01*
X120188867Y-89328231D01*
X120188867Y-89328229D01*
X120188868Y-89328229D01*
X120200499Y-89269752D01*
X120200500Y-89269750D01*
X120200500Y-88124500D01*
X120220185Y-88057461D01*
X120272989Y-88011706D01*
X120324500Y-88000500D01*
X121291324Y-88000500D01*
X121358363Y-88020185D01*
X121379005Y-88036819D01*
X124135630Y-90793444D01*
X124169115Y-90854767D01*
X124171949Y-90881125D01*
X124171949Y-91015990D01*
X124171949Y-91015992D01*
X124171948Y-91015992D01*
X124210396Y-91209278D01*
X124210399Y-91209288D01*
X124285813Y-91391356D01*
X124285820Y-91391369D01*
X124395309Y-91555230D01*
X124395312Y-91555234D01*
X124534662Y-91694584D01*
X124534665Y-91694586D01*
X124534667Y-91694588D01*
X124616840Y-91749494D01*
X124661644Y-91803104D01*
X124671949Y-91852595D01*
X124671949Y-93269057D01*
X124671949Y-93400841D01*
X124683453Y-93443773D01*
X124685224Y-93450384D01*
X124689449Y-93482477D01*
X124689449Y-94005840D01*
X124723557Y-94133136D01*
X124735118Y-94153159D01*
X124789449Y-94247263D01*
X126295135Y-95752949D01*
X126409263Y-95818841D01*
X126536557Y-95852949D01*
X126536559Y-95852949D01*
X133168339Y-95852949D01*
X133168341Y-95852949D01*
X133295635Y-95818841D01*
X133409763Y-95752949D01*
X136149553Y-93013156D01*
X136149558Y-93013153D01*
X136159761Y-93002949D01*
X136159763Y-93002949D01*
X136252949Y-92909763D01*
X136318841Y-92795635D01*
X136352949Y-92668341D01*
X136352949Y-88027435D01*
X139152450Y-88027435D01*
X139162943Y-88130146D01*
X139218090Y-88296568D01*
X139218092Y-88296573D01*
X139310133Y-88445794D01*
X139434103Y-88569764D01*
X139583324Y-88661805D01*
X139583329Y-88661807D01*
X139749751Y-88716954D01*
X139749758Y-88716955D01*
X139852468Y-88727448D01*
X140102448Y-88727448D01*
X140602449Y-88727448D01*
X140852421Y-88727448D01*
X140852435Y-88727447D01*
X140955146Y-88716954D01*
X141121568Y-88661807D01*
X141121573Y-88661805D01*
X141270794Y-88569764D01*
X141394764Y-88445794D01*
X141486805Y-88296573D01*
X141486807Y-88296568D01*
X141541954Y-88130146D01*
X141541955Y-88130139D01*
X141552448Y-88027435D01*
X141552449Y-88027422D01*
X141552449Y-87902449D01*
X140602449Y-87902449D01*
X140602449Y-88727448D01*
X140102448Y-88727448D01*
X140102449Y-88727447D01*
X140102449Y-87902449D01*
X139152450Y-87902449D01*
X139152450Y-88027435D01*
X136352949Y-88027435D01*
X136352949Y-86496557D01*
X136318841Y-86369263D01*
X136252949Y-86255135D01*
X136159763Y-86161949D01*
X133764055Y-83766241D01*
X133730570Y-83704918D01*
X133735554Y-83635226D01*
X133737154Y-83631159D01*
X133754500Y-83589284D01*
X133792949Y-83395990D01*
X133792949Y-83198908D01*
X133792949Y-83198905D01*
X133754501Y-83005619D01*
X133754500Y-83005618D01*
X133754500Y-83005614D01*
X133709697Y-82897449D01*
X133679084Y-82823541D01*
X133679077Y-82823528D01*
X133569588Y-82659667D01*
X133569585Y-82659663D01*
X133430234Y-82520312D01*
X133430230Y-82520309D01*
X133266369Y-82410820D01*
X133266356Y-82410813D01*
X133084288Y-82335399D01*
X133084278Y-82335396D01*
X132890992Y-82296949D01*
X132890990Y-82296949D01*
X132693908Y-82296949D01*
X132693906Y-82296949D01*
X132500619Y-82335396D01*
X132500609Y-82335399D01*
X132318541Y-82410813D01*
X132318528Y-82410820D01*
X132154667Y-82520309D01*
X132154663Y-82520312D01*
X132015312Y-82659663D01*
X132015309Y-82659667D01*
X131905820Y-82823528D01*
X131905813Y-82823541D01*
X131830399Y-83005609D01*
X131830396Y-83005619D01*
X131791949Y-83198905D01*
X131791949Y-83198908D01*
X131791949Y-83395990D01*
X131791949Y-83395992D01*
X131791948Y-83395992D01*
X131830396Y-83589278D01*
X131830399Y-83589288D01*
X131905813Y-83771356D01*
X131905820Y-83771369D01*
X132015309Y-83935230D01*
X132015312Y-83935234D01*
X132154663Y-84074585D01*
X132154667Y-84074588D01*
X132318528Y-84184077D01*
X132318541Y-84184084D01*
X132389288Y-84213388D01*
X132443692Y-84257228D01*
X132465757Y-84323523D01*
X132448478Y-84391222D01*
X132397341Y-84438833D01*
X132341836Y-84451949D01*
X130703062Y-84451949D01*
X130636023Y-84432264D01*
X130590268Y-84379460D01*
X130580324Y-84310302D01*
X130609349Y-84246746D01*
X130655610Y-84213388D01*
X130726356Y-84184084D01*
X130726356Y-84184083D01*
X130726363Y-84184081D01*
X130890231Y-84074588D01*
X131029588Y-83935231D01*
X131139081Y-83771363D01*
X131214500Y-83589284D01*
X131252949Y-83395990D01*
X131252949Y-83198908D01*
X131252949Y-83198905D01*
X131214501Y-83005619D01*
X131214500Y-83005618D01*
X131214500Y-83005614D01*
X131169697Y-82897449D01*
X131139084Y-82823541D01*
X131139077Y-82823528D01*
X131029588Y-82659667D01*
X131029585Y-82659663D01*
X130890234Y-82520312D01*
X130890230Y-82520309D01*
X130733058Y-82415289D01*
X130688253Y-82361676D01*
X130677949Y-82312187D01*
X130677949Y-81335843D01*
X130697634Y-81268804D01*
X130728316Y-81236073D01*
X130789189Y-81191147D01*
X130840660Y-81153160D01*
X130919065Y-81046924D01*
X130962674Y-80922298D01*
X130965449Y-80892705D01*
X130965449Y-80312193D01*
X130965449Y-80312188D01*
X131414449Y-80312188D01*
X131414449Y-80892709D01*
X131417223Y-80922298D01*
X131460833Y-81046925D01*
X131539237Y-81153159D01*
X131539238Y-81153160D01*
X131645472Y-81231564D01*
X131645473Y-81231564D01*
X131645474Y-81231565D01*
X131770100Y-81275174D01*
X131770099Y-81275174D01*
X131799689Y-81277949D01*
X131799693Y-81277949D01*
X132405209Y-81277949D01*
X132434798Y-81275174D01*
X132455288Y-81268004D01*
X132559424Y-81231565D01*
X132665660Y-81153160D01*
X132739348Y-81053316D01*
X132794995Y-81011065D01*
X132839118Y-81002949D01*
X137385194Y-81002949D01*
X137452233Y-81022634D01*
X137472875Y-81039268D01*
X139915630Y-83482023D01*
X139949115Y-83543346D01*
X139951949Y-83569704D01*
X139951949Y-84704302D01*
X139932264Y-84771341D01*
X139879460Y-84817096D01*
X139839528Y-84827760D01*
X139817749Y-84829802D01*
X139817747Y-84829802D01*
X139689568Y-84874655D01*
X139689566Y-84874656D01*
X139580299Y-84955299D01*
X139499656Y-85064566D01*
X139499655Y-85064568D01*
X139454802Y-85192747D01*
X139454802Y-85192749D01*
X139451949Y-85223179D01*
X139451949Y-85981718D01*
X139454802Y-86012148D01*
X139454802Y-86012150D01*
X139499655Y-86140329D01*
X139499656Y-86140331D01*
X139580299Y-86249599D01*
X139689567Y-86330242D01*
X139753482Y-86352607D01*
X139810256Y-86393327D01*
X139836004Y-86458279D01*
X139822548Y-86526841D01*
X139774161Y-86577244D01*
X139751531Y-86587353D01*
X139583327Y-86643091D01*
X139583324Y-86643092D01*
X139434103Y-86735133D01*
X139310133Y-86859103D01*
X139218092Y-87008324D01*
X139218090Y-87008329D01*
X139162943Y-87174751D01*
X139162942Y-87174758D01*
X139152449Y-87277462D01*
X139152449Y-87402449D01*
X141552448Y-87402449D01*
X141552448Y-87277477D01*
X141552447Y-87277462D01*
X141541954Y-87174751D01*
X141486807Y-87008329D01*
X141486805Y-87008324D01*
X141394764Y-86859103D01*
X141270794Y-86735133D01*
X141121573Y-86643092D01*
X141121568Y-86643090D01*
X140953366Y-86587354D01*
X140895921Y-86547582D01*
X140869098Y-86483066D01*
X140881413Y-86414290D01*
X140928956Y-86363090D01*
X140951415Y-86352607D01*
X140951421Y-86352605D01*
X141015331Y-86330242D01*
X141124599Y-86249599D01*
X141205242Y-86140331D01*
X141227668Y-86076239D01*
X141250095Y-86012150D01*
X141250095Y-86012148D01*
X141252949Y-85981718D01*
X141252949Y-85223179D01*
X141250095Y-85192749D01*
X141250095Y-85192747D01*
X141205242Y-85064568D01*
X141205241Y-85064566D01*
X141124599Y-84955299D01*
X141015331Y-84874656D01*
X141015329Y-84874655D01*
X140887149Y-84829802D01*
X140865370Y-84827760D01*
X140800462Y-84801902D01*
X140759837Y-84745056D01*
X140752949Y-84704302D01*
X140752949Y-83299724D01*
X140752949Y-83299722D01*
X140737542Y-83242222D01*
X140737542Y-83242221D01*
X140725657Y-83197862D01*
X140694013Y-83143055D01*
X140672929Y-83106536D01*
X137848362Y-80281969D01*
X137802699Y-80255605D01*
X137757038Y-80229242D01*
X137703123Y-80214796D01*
X137655176Y-80201949D01*
X137655175Y-80201949D01*
X132839118Y-80201949D01*
X132772079Y-80182264D01*
X132739348Y-80151582D01*
X132665660Y-80051738D01*
X132665659Y-80051737D01*
X132559425Y-79973333D01*
X132434797Y-79929723D01*
X132434798Y-79929723D01*
X132405209Y-79926949D01*
X132405205Y-79926949D01*
X131799693Y-79926949D01*
X131799689Y-79926949D01*
X131770099Y-79929723D01*
X131645472Y-79973333D01*
X131539238Y-80051737D01*
X131539237Y-80051738D01*
X131460833Y-80157972D01*
X131417223Y-80282599D01*
X131414449Y-80312188D01*
X130965449Y-80312188D01*
X130962674Y-80282600D01*
X130962453Y-80281969D01*
X130934453Y-80201949D01*
X130919065Y-80157974D01*
X130840660Y-80051738D01*
X130839114Y-80050597D01*
X130734425Y-79973333D01*
X130609797Y-79929723D01*
X130609798Y-79929723D01*
X130580209Y-79926949D01*
X130580205Y-79926949D01*
X129974693Y-79926949D01*
X129974689Y-79926949D01*
X129945099Y-79929723D01*
X129820472Y-79973333D01*
X129714238Y-80051737D01*
X129714237Y-80051738D01*
X129635833Y-80157972D01*
X129592223Y-80282599D01*
X129589449Y-80312188D01*
X129589449Y-80892709D01*
X129592223Y-80922298D01*
X129635833Y-81046925D01*
X129714237Y-81153159D01*
X129714238Y-81153160D01*
X129826582Y-81236073D01*
X129868833Y-81291720D01*
X129876949Y-81335843D01*
X129876949Y-82287198D01*
X129857264Y-82354237D01*
X129804460Y-82399992D01*
X129800402Y-82401759D01*
X129778538Y-82410815D01*
X129778528Y-82410820D01*
X129614667Y-82520309D01*
X129614663Y-82520312D01*
X129475312Y-82659663D01*
X129475309Y-82659667D01*
X129365820Y-82823528D01*
X129365813Y-82823541D01*
X129290399Y-83005609D01*
X129290396Y-83005619D01*
X129251949Y-83198905D01*
X129251949Y-83198908D01*
X129251949Y-83395990D01*
X129251949Y-83395992D01*
X129251948Y-83395992D01*
X129290396Y-83589278D01*
X129290399Y-83589288D01*
X129365813Y-83771356D01*
X129365820Y-83771369D01*
X129475309Y-83935230D01*
X129475312Y-83935234D01*
X129614663Y-84074585D01*
X129614667Y-84074588D01*
X129778528Y-84184077D01*
X129778541Y-84184084D01*
X129849288Y-84213388D01*
X129903692Y-84257228D01*
X129925757Y-84323523D01*
X129908478Y-84391222D01*
X129857341Y-84438833D01*
X129801836Y-84451949D01*
X129484704Y-84451949D01*
X129417665Y-84432264D01*
X129397023Y-84415630D01*
X128702677Y-83721284D01*
X128669192Y-83659961D01*
X128673806Y-83595436D01*
X128672732Y-83595111D01*
X128674168Y-83590376D01*
X128674176Y-83590269D01*
X128674284Y-83589992D01*
X128674498Y-83589288D01*
X128674500Y-83589284D01*
X128712949Y-83395990D01*
X128712949Y-83198908D01*
X128712949Y-83198905D01*
X128674501Y-83005619D01*
X128674500Y-83005618D01*
X128674500Y-83005614D01*
X128629697Y-82897449D01*
X128599084Y-82823541D01*
X128599077Y-82823528D01*
X128489588Y-82659667D01*
X128489585Y-82659663D01*
X128350234Y-82520312D01*
X128350230Y-82520309D01*
X128186364Y-82410817D01*
X128180993Y-82407946D01*
X128131150Y-82358982D01*
X128115449Y-82298589D01*
X128115449Y-81356805D01*
X128135134Y-81289766D01*
X128187938Y-81244011D01*
X128198495Y-81239763D01*
X128206034Y-81237125D01*
X128221924Y-81231565D01*
X128328160Y-81153160D01*
X128406565Y-81046924D01*
X128450174Y-80922298D01*
X128452949Y-80892705D01*
X128452949Y-80312193D01*
X128450174Y-80282600D01*
X128449953Y-80281969D01*
X128421953Y-80201949D01*
X128406565Y-80157974D01*
X128328160Y-80051738D01*
X128326614Y-80050597D01*
X128221925Y-79973333D01*
X128097297Y-79929723D01*
X128097298Y-79929723D01*
X128067709Y-79926949D01*
X128067705Y-79926949D01*
X127362193Y-79926949D01*
X127362189Y-79926949D01*
X127332599Y-79929723D01*
X127207974Y-79973332D01*
X127115009Y-80041943D01*
X127049379Y-80065913D01*
X126981209Y-80050597D01*
X126935837Y-80007269D01*
X126872392Y-79904409D01*
X126750487Y-79782504D01*
X126750483Y-79782501D01*
X126603760Y-79692000D01*
X126603749Y-79691995D01*
X126440101Y-79637768D01*
X126339103Y-79627449D01*
X126239949Y-79627449D01*
X126239949Y-81577448D01*
X126339089Y-81577448D01*
X126339103Y-81577447D01*
X126440101Y-81567129D01*
X126603749Y-81512902D01*
X126603760Y-81512897D01*
X126750483Y-81422396D01*
X126750487Y-81422393D01*
X126872394Y-81300486D01*
X126935837Y-81197629D01*
X126943043Y-81191147D01*
X126946998Y-81182296D01*
X126968597Y-81168162D01*
X126987785Y-81150904D01*
X126997352Y-81149347D01*
X127005464Y-81144039D01*
X127031271Y-81143826D01*
X127056747Y-81139681D01*
X127067501Y-81143529D01*
X127075331Y-81143465D01*
X127096825Y-81154022D01*
X127107555Y-81157862D01*
X127111379Y-81160275D01*
X127207974Y-81231565D01*
X127244705Y-81244417D01*
X127256628Y-81251942D01*
X127270779Y-81268004D01*
X127288179Y-81280484D01*
X127293418Y-81293701D01*
X127302816Y-81304368D01*
X127306037Y-81325533D01*
X127313927Y-81345437D01*
X127314449Y-81356805D01*
X127314449Y-82296517D01*
X127294764Y-82363556D01*
X127243787Y-82407727D01*
X127243905Y-82407947D01*
X127242937Y-82408464D01*
X127241960Y-82409311D01*
X127238682Y-82410738D01*
X127238528Y-82410820D01*
X127074667Y-82520309D01*
X127074663Y-82520312D01*
X126935312Y-82659663D01*
X126935309Y-82659667D01*
X126825820Y-82823528D01*
X126825813Y-82823541D01*
X126750399Y-83005609D01*
X126750396Y-83005619D01*
X126718065Y-83168156D01*
X126685680Y-83230067D01*
X126624964Y-83264641D01*
X126555194Y-83260900D01*
X126498523Y-83220034D01*
X126472941Y-83155016D01*
X126472448Y-83143964D01*
X126472448Y-82697477D01*
X126472447Y-82697461D01*
X126461954Y-82594751D01*
X126406807Y-82428329D01*
X126406803Y-82428321D01*
X126314764Y-82279103D01*
X126190794Y-82155133D01*
X126041573Y-82063092D01*
X126041568Y-82063090D01*
X125875146Y-82007943D01*
X125875139Y-82007942D01*
X125772435Y-81997449D01*
X125422449Y-81997449D01*
X125422449Y-82981763D01*
X125418055Y-82977369D01*
X125326843Y-82924708D01*
X125225110Y-82897449D01*
X125119788Y-82897449D01*
X125018055Y-82924708D01*
X124926843Y-82977369D01*
X124922449Y-82981763D01*
X124922449Y-81997449D01*
X124572477Y-81997449D01*
X124572461Y-81997450D01*
X124469751Y-82007943D01*
X124303329Y-82063090D01*
X124303324Y-82063092D01*
X124154103Y-82155133D01*
X124030133Y-82279103D01*
X123938095Y-82428321D01*
X123938090Y-82428329D01*
X123882943Y-82594751D01*
X123882942Y-82594758D01*
X123872449Y-82697462D01*
X123872449Y-83047449D01*
X124856763Y-83047449D01*
X124852369Y-83051843D01*
X124799708Y-83143055D01*
X124772449Y-83244788D01*
X124772449Y-83350110D01*
X124799708Y-83451843D01*
X124852369Y-83543055D01*
X124856763Y-83547449D01*
X123872450Y-83547449D01*
X123872450Y-83897435D01*
X123882943Y-84000146D01*
X123938090Y-84166568D01*
X123938092Y-84166573D01*
X124030133Y-84315794D01*
X124154103Y-84439764D01*
X124303324Y-84531805D01*
X124303329Y-84531807D01*
X124469751Y-84586954D01*
X124469758Y-84586955D01*
X124572468Y-84597448D01*
X124922448Y-84597448D01*
X124922449Y-84597447D01*
X124922449Y-83613135D01*
X124926843Y-83617529D01*
X125018055Y-83670190D01*
X125119788Y-83697449D01*
X125225110Y-83697449D01*
X125326843Y-83670190D01*
X125418055Y-83617529D01*
X125422449Y-83613135D01*
X125422449Y-84597448D01*
X125772421Y-84597448D01*
X125772435Y-84597447D01*
X125875146Y-84586954D01*
X126041568Y-84531807D01*
X126041573Y-84531805D01*
X126190794Y-84439764D01*
X126314764Y-84315794D01*
X126406805Y-84166573D01*
X126406807Y-84166568D01*
X126461954Y-84000146D01*
X126461955Y-84000139D01*
X126472448Y-83897435D01*
X126472448Y-83450934D01*
X126492132Y-83383895D01*
X126544936Y-83338140D01*
X126614095Y-83328196D01*
X126677651Y-83357221D01*
X126715425Y-83415999D01*
X126718065Y-83426742D01*
X126750396Y-83589278D01*
X126750399Y-83589288D01*
X126825813Y-83771356D01*
X126825820Y-83771369D01*
X126935309Y-83935230D01*
X126935312Y-83935234D01*
X127074663Y-84074585D01*
X127074667Y-84074588D01*
X127238528Y-84184077D01*
X127238541Y-84184084D01*
X127420609Y-84259498D01*
X127420614Y-84259500D01*
X127420618Y-84259500D01*
X127420619Y-84259501D01*
X127613905Y-84297949D01*
X127613908Y-84297949D01*
X127810992Y-84297949D01*
X127941031Y-84272081D01*
X128004284Y-84259500D01*
X128004291Y-84259496D01*
X128010111Y-84257732D01*
X128010730Y-84259774D01*
X128070580Y-84253321D01*
X128133069Y-84284576D01*
X128136284Y-84287677D01*
X129021536Y-85172929D01*
X129112861Y-85225656D01*
X129214722Y-85252949D01*
X132650988Y-85252949D01*
X132718027Y-85272634D01*
X132738669Y-85289268D01*
X134514630Y-87065229D01*
X134548115Y-87126552D01*
X134550949Y-87152910D01*
X134550949Y-92011987D01*
X134531264Y-92079026D01*
X134514630Y-92099668D01*
X133529582Y-93084715D01*
X133468259Y-93118200D01*
X133398567Y-93113216D01*
X133342634Y-93071344D01*
X133342132Y-93070669D01*
X133328159Y-93051737D01*
X133221925Y-92973333D01*
X133097297Y-92929723D01*
X133097298Y-92929723D01*
X133067709Y-92926949D01*
X133067705Y-92926949D01*
X132794704Y-92926949D01*
X132727665Y-92907264D01*
X132707023Y-92890630D01*
X131217781Y-91401388D01*
X131184296Y-91340065D01*
X131189280Y-91270373D01*
X131190889Y-91266284D01*
X131214500Y-91209284D01*
X131252949Y-91015992D01*
X131791948Y-91015992D01*
X131830396Y-91209278D01*
X131830399Y-91209288D01*
X131905813Y-91391356D01*
X131905820Y-91391369D01*
X132015309Y-91555230D01*
X132015312Y-91555234D01*
X132154663Y-91694585D01*
X132154667Y-91694588D01*
X132318528Y-91804077D01*
X132318541Y-91804084D01*
X132435659Y-91852595D01*
X132500614Y-91879500D01*
X132500618Y-91879500D01*
X132500619Y-91879501D01*
X132693905Y-91917949D01*
X132693908Y-91917949D01*
X132890992Y-91917949D01*
X133034981Y-91889307D01*
X133084284Y-91879500D01*
X133266363Y-91804081D01*
X133430231Y-91694588D01*
X133569588Y-91555231D01*
X133679081Y-91391363D01*
X133754500Y-91209284D01*
X133792949Y-91015990D01*
X133792949Y-90818908D01*
X133792949Y-90818905D01*
X133754501Y-90625619D01*
X133754500Y-90625618D01*
X133754500Y-90625614D01*
X133754498Y-90625609D01*
X133679084Y-90443541D01*
X133679077Y-90443528D01*
X133569588Y-90279667D01*
X133569585Y-90279663D01*
X133430234Y-90140312D01*
X133430230Y-90140309D01*
X133266369Y-90030820D01*
X133266356Y-90030813D01*
X133084288Y-89955399D01*
X133084278Y-89955396D01*
X132890992Y-89916949D01*
X132890990Y-89916949D01*
X132693908Y-89916949D01*
X132693906Y-89916949D01*
X132500619Y-89955396D01*
X132500609Y-89955399D01*
X132318541Y-90030813D01*
X132318528Y-90030820D01*
X132154667Y-90140309D01*
X132154663Y-90140312D01*
X132015312Y-90279663D01*
X132015309Y-90279667D01*
X131905820Y-90443528D01*
X131905813Y-90443541D01*
X131830399Y-90625609D01*
X131830396Y-90625619D01*
X131791949Y-90818905D01*
X131791949Y-90818908D01*
X131791949Y-91015990D01*
X131791949Y-91015992D01*
X131791948Y-91015992D01*
X131252949Y-91015992D01*
X131252949Y-91015990D01*
X131252949Y-90818908D01*
X131252949Y-90818905D01*
X131214501Y-90625619D01*
X131214500Y-90625618D01*
X131214500Y-90625614D01*
X131214498Y-90625609D01*
X131139084Y-90443541D01*
X131139077Y-90443528D01*
X131029588Y-90279667D01*
X131029585Y-90279663D01*
X130890234Y-90140312D01*
X130890230Y-90140309D01*
X130726369Y-90030820D01*
X130726356Y-90030813D01*
X130544288Y-89955399D01*
X130544278Y-89955396D01*
X130350992Y-89916949D01*
X130350990Y-89916949D01*
X130153908Y-89916949D01*
X130153906Y-89916949D01*
X129960619Y-89955396D01*
X129960609Y-89955399D01*
X129778541Y-90030813D01*
X129778528Y-90030820D01*
X129614667Y-90140309D01*
X129614663Y-90140312D01*
X129475312Y-90279663D01*
X129475309Y-90279667D01*
X129365820Y-90443528D01*
X129365813Y-90443541D01*
X129290399Y-90625609D01*
X129290396Y-90625619D01*
X129251949Y-90818905D01*
X129251949Y-90818908D01*
X129251949Y-91015990D01*
X129251949Y-91015992D01*
X129251948Y-91015992D01*
X129290396Y-91209278D01*
X129290399Y-91209288D01*
X129365813Y-91391356D01*
X129365820Y-91391369D01*
X129475309Y-91555230D01*
X129475312Y-91555234D01*
X129614663Y-91694585D01*
X129614667Y-91694588D01*
X129778528Y-91804077D01*
X129778541Y-91804084D01*
X129895659Y-91852595D01*
X129960614Y-91879500D01*
X129960618Y-91879500D01*
X129960619Y-91879501D01*
X130153905Y-91917949D01*
X130153908Y-91917949D01*
X130350991Y-91917949D01*
X130373360Y-91913499D01*
X130494979Y-91889307D01*
X130564568Y-91895534D01*
X130606850Y-91923243D01*
X131412739Y-92729132D01*
X131446224Y-92790455D01*
X131441240Y-92860147D01*
X131399368Y-92916080D01*
X131333904Y-92940497D01*
X131284103Y-92933854D01*
X131272299Y-92929723D01*
X131242709Y-92926949D01*
X131242705Y-92926949D01*
X130637193Y-92926949D01*
X130637189Y-92926949D01*
X130607599Y-92929723D01*
X130482972Y-92973333D01*
X130376738Y-93051737D01*
X130376737Y-93051738D01*
X130303050Y-93151582D01*
X130247403Y-93193833D01*
X130203280Y-93201949D01*
X129501618Y-93201949D01*
X129434579Y-93182264D01*
X129401848Y-93151582D01*
X129328160Y-93051738D01*
X129328159Y-93051737D01*
X129221925Y-92973333D01*
X129097297Y-92929723D01*
X129097298Y-92929723D01*
X129067709Y-92926949D01*
X129067705Y-92926949D01*
X129039449Y-92926949D01*
X128972410Y-92907264D01*
X128926655Y-92854460D01*
X128915449Y-92802949D01*
X128915449Y-91667224D01*
X128915449Y-91667222D01*
X128888156Y-91565362D01*
X128835429Y-91474036D01*
X128760862Y-91399469D01*
X128702677Y-91341284D01*
X128669192Y-91279961D01*
X128673806Y-91215436D01*
X128672732Y-91215111D01*
X128674168Y-91210376D01*
X128674176Y-91210269D01*
X128674284Y-91209992D01*
X128674498Y-91209288D01*
X128674500Y-91209284D01*
X128712949Y-91015990D01*
X128712949Y-90818908D01*
X128712949Y-90818905D01*
X128674501Y-90625619D01*
X128674500Y-90625618D01*
X128674500Y-90625614D01*
X128674498Y-90625609D01*
X128599084Y-90443541D01*
X128599077Y-90443528D01*
X128489588Y-90279667D01*
X128489585Y-90279663D01*
X128350234Y-90140312D01*
X128350230Y-90140309D01*
X128186369Y-90030820D01*
X128186356Y-90030813D01*
X128004288Y-89955399D01*
X128004278Y-89955396D01*
X127810992Y-89916949D01*
X127810990Y-89916949D01*
X127613908Y-89916949D01*
X127613906Y-89916949D01*
X127420619Y-89955396D01*
X127420609Y-89955399D01*
X127238541Y-90030813D01*
X127238528Y-90030820D01*
X127074667Y-90140309D01*
X127074663Y-90140312D01*
X126935312Y-90279663D01*
X126935309Y-90279667D01*
X126825820Y-90443528D01*
X126825813Y-90443541D01*
X126750399Y-90625609D01*
X126750396Y-90625619D01*
X126711949Y-90818905D01*
X126711949Y-90818908D01*
X126711949Y-91015990D01*
X126711949Y-91015992D01*
X126711948Y-91015992D01*
X126750396Y-91209278D01*
X126750399Y-91209288D01*
X126825813Y-91391356D01*
X126825820Y-91391369D01*
X126935309Y-91555230D01*
X126935312Y-91555234D01*
X127074663Y-91694585D01*
X127074667Y-91694588D01*
X127238528Y-91804077D01*
X127238541Y-91804084D01*
X127355659Y-91852595D01*
X127420614Y-91879500D01*
X127420618Y-91879500D01*
X127420619Y-91879501D01*
X127613905Y-91917949D01*
X127613908Y-91917949D01*
X127810992Y-91917949D01*
X127954981Y-91889307D01*
X127966257Y-91887064D01*
X128035849Y-91893291D01*
X128091026Y-91936154D01*
X128114271Y-92002043D01*
X128114449Y-92008681D01*
X128114449Y-93162294D01*
X128107490Y-93203250D01*
X128079725Y-93282595D01*
X128079723Y-93282604D01*
X128076949Y-93312188D01*
X128076949Y-93892709D01*
X128079723Y-93922298D01*
X128123333Y-94046925D01*
X128201737Y-94153159D01*
X128201738Y-94153160D01*
X128307972Y-94231564D01*
X128307973Y-94231564D01*
X128307974Y-94231565D01*
X128432600Y-94275174D01*
X128432599Y-94275174D01*
X128462189Y-94277949D01*
X128462193Y-94277949D01*
X129067709Y-94277949D01*
X129097298Y-94275174D01*
X129221924Y-94231565D01*
X129328160Y-94153160D01*
X129401848Y-94053316D01*
X129457495Y-94011065D01*
X129501618Y-94002949D01*
X130203280Y-94002949D01*
X130270319Y-94022634D01*
X130303050Y-94053316D01*
X130376737Y-94153159D01*
X130376738Y-94153160D01*
X130482972Y-94231564D01*
X130482973Y-94231564D01*
X130482974Y-94231565D01*
X130607600Y-94275174D01*
X130607599Y-94275174D01*
X130637189Y-94277949D01*
X130637193Y-94277949D01*
X131242709Y-94277949D01*
X131272298Y-94275174D01*
X131396924Y-94231565D01*
X131503160Y-94153160D01*
X131581565Y-94046924D01*
X131625174Y-93922298D01*
X131627949Y-93892705D01*
X131627949Y-93312193D01*
X131625174Y-93282600D01*
X131621043Y-93270797D01*
X131617480Y-93201019D01*
X131652206Y-93140391D01*
X131714198Y-93108161D01*
X131783774Y-93114564D01*
X131825765Y-93142158D01*
X132040630Y-93357023D01*
X132074115Y-93418346D01*
X132076949Y-93444704D01*
X132076949Y-93892709D01*
X132079723Y-93922298D01*
X132123333Y-94046925D01*
X132201737Y-94153159D01*
X132201738Y-94153160D01*
X132307972Y-94231564D01*
X132307973Y-94231564D01*
X132307974Y-94231565D01*
X132432600Y-94275174D01*
X132432599Y-94275174D01*
X132462189Y-94277949D01*
X132462193Y-94277949D01*
X133067709Y-94277949D01*
X133091379Y-94275729D01*
X133097298Y-94275174D01*
X133160755Y-94252968D01*
X133230534Y-94249406D01*
X133291161Y-94284134D01*
X133323389Y-94346127D01*
X133316985Y-94415703D01*
X133289392Y-94457691D01*
X132931454Y-94815630D01*
X132870131Y-94849115D01*
X132843773Y-94851949D01*
X126861125Y-94851949D01*
X126831684Y-94843304D01*
X126801698Y-94836781D01*
X126796682Y-94833026D01*
X126794086Y-94832264D01*
X126773444Y-94815630D01*
X126647944Y-94690130D01*
X126614459Y-94628807D01*
X126619443Y-94559115D01*
X126647944Y-94514768D01*
X126848444Y-94314268D01*
X126909767Y-94280783D01*
X126936125Y-94277949D01*
X127242709Y-94277949D01*
X127272298Y-94275174D01*
X127396924Y-94231565D01*
X127503160Y-94153160D01*
X127581565Y-94046924D01*
X127625174Y-93922298D01*
X127627949Y-93892705D01*
X127627949Y-93312193D01*
X127625174Y-93282600D01*
X127625172Y-93282595D01*
X127590449Y-93183362D01*
X127581565Y-93157974D01*
X127569892Y-93142158D01*
X127503160Y-93051738D01*
X127503159Y-93051737D01*
X127396925Y-92973333D01*
X127272297Y-92929723D01*
X127272298Y-92929723D01*
X127242709Y-92926949D01*
X127242705Y-92926949D01*
X126637193Y-92926949D01*
X126637189Y-92926949D01*
X126607599Y-92929723D01*
X126482972Y-92973333D01*
X126376738Y-93051737D01*
X126376737Y-93051738D01*
X126298333Y-93157972D01*
X126254723Y-93282599D01*
X126251949Y-93312188D01*
X126251949Y-93443773D01*
X126232264Y-93510812D01*
X126215630Y-93531454D01*
X125940130Y-93806954D01*
X125932184Y-93811292D01*
X125926759Y-93818540D01*
X125901999Y-93827774D01*
X125878807Y-93840439D01*
X125869777Y-93839793D01*
X125861295Y-93842957D01*
X125835474Y-93837340D01*
X125809115Y-93835455D01*
X125800061Y-93829636D01*
X125793022Y-93828105D01*
X125764768Y-93806954D01*
X125726768Y-93768954D01*
X125693283Y-93707631D01*
X125690449Y-93681273D01*
X125690449Y-93286559D01*
X125690448Y-93286555D01*
X125689389Y-93282604D01*
X125677174Y-93237012D01*
X125672949Y-93204920D01*
X125672949Y-91852595D01*
X125692634Y-91785556D01*
X125728056Y-91749495D01*
X125810231Y-91694588D01*
X125949588Y-91555231D01*
X126059081Y-91391363D01*
X126134500Y-91209284D01*
X126172949Y-91015990D01*
X126172949Y-90818908D01*
X126172949Y-90818905D01*
X126134501Y-90625619D01*
X126134500Y-90625618D01*
X126134500Y-90625614D01*
X126134498Y-90625609D01*
X126059084Y-90443541D01*
X126059077Y-90443528D01*
X125949588Y-90279667D01*
X125949585Y-90279663D01*
X125810234Y-90140312D01*
X125810230Y-90140309D01*
X125646369Y-90030820D01*
X125646356Y-90030813D01*
X125464288Y-89955399D01*
X125464278Y-89955396D01*
X125270992Y-89916949D01*
X125270990Y-89916949D01*
X125073908Y-89916949D01*
X125073906Y-89916949D01*
X124880615Y-89955397D01*
X124880609Y-89955399D01*
X124838786Y-89972722D01*
X124769317Y-89980189D01*
X124706838Y-89948913D01*
X124703655Y-89945841D01*
X121857316Y-87099502D01*
X121857314Y-87099500D01*
X121797955Y-87065229D01*
X121743187Y-87033608D01*
X121679539Y-87016554D01*
X121615892Y-86999500D01*
X121615891Y-86999500D01*
X120324500Y-86999500D01*
X120257461Y-86979815D01*
X120211706Y-86927011D01*
X120200500Y-86875500D01*
X120200500Y-85730249D01*
X120200499Y-85730247D01*
X120188868Y-85671770D01*
X120188867Y-85671769D01*
X120144552Y-85605447D01*
X120078230Y-85561132D01*
X120078229Y-85561131D01*
X120019752Y-85549500D01*
X120019748Y-85549500D01*
X116480252Y-85549500D01*
X116480247Y-85549500D01*
X116421770Y-85561131D01*
X116421769Y-85561132D01*
X116355447Y-85605447D01*
X116311132Y-85671769D01*
X116311131Y-85671770D01*
X116299500Y-85730247D01*
X113987390Y-85730247D01*
X113963434Y-85695669D01*
X113963430Y-85695664D01*
X113804335Y-85536569D01*
X113804323Y-85536559D01*
X113619380Y-85408431D01*
X113619374Y-85408428D01*
X113414519Y-85315377D01*
X113196332Y-85260400D01*
X113064196Y-85250000D01*
X112500000Y-85250000D01*
X112500000Y-86066988D01*
X112442993Y-86034075D01*
X112315826Y-86000000D01*
X112184174Y-86000000D01*
X112057007Y-86034075D01*
X112000000Y-86066988D01*
X112000000Y-85250000D01*
X111435817Y-85250000D01*
X111435802Y-85250001D01*
X111303667Y-85260400D01*
X111085480Y-85315377D01*
X110880625Y-85408428D01*
X110880619Y-85408431D01*
X110695676Y-85536559D01*
X110695664Y-85536569D01*
X110536569Y-85695664D01*
X110536559Y-85695676D01*
X110408431Y-85880619D01*
X110408428Y-85880625D01*
X110315377Y-86085480D01*
X110260400Y-86303667D01*
X110250000Y-86435803D01*
X105000500Y-86435803D01*
X105000500Y-81842882D01*
X113299500Y-81842882D01*
X113299500Y-83757118D01*
X113302249Y-83803263D01*
X113302249Y-83803267D01*
X113302250Y-83803268D01*
X113345907Y-84003961D01*
X113345909Y-84003968D01*
X113423037Y-84184077D01*
X113426763Y-84192777D01*
X113426766Y-84192781D01*
X113541882Y-84362868D01*
X113541890Y-84362877D01*
X113687122Y-84508109D01*
X113687131Y-84508117D01*
X113789849Y-84577637D01*
X113857223Y-84623237D01*
X113857228Y-84623239D01*
X114046031Y-84704090D01*
X114046038Y-84704092D01*
X114112935Y-84718644D01*
X114246737Y-84747751D01*
X114292882Y-84750500D01*
X114292893Y-84750500D01*
X116207107Y-84750500D01*
X116207118Y-84750500D01*
X116253263Y-84747751D01*
X116428954Y-84709531D01*
X116453961Y-84704092D01*
X116453968Y-84704090D01*
X116516902Y-84677139D01*
X116642777Y-84623237D01*
X116812875Y-84508112D01*
X116958112Y-84362875D01*
X117073237Y-84192777D01*
X117154091Y-84003965D01*
X117197751Y-83803263D01*
X117200500Y-83757118D01*
X117200500Y-81842882D01*
X117197751Y-81796737D01*
X117154091Y-81596035D01*
X117154090Y-81596031D01*
X117073239Y-81407228D01*
X117073237Y-81407223D01*
X117003623Y-81304368D01*
X116958117Y-81237131D01*
X116958109Y-81237122D01*
X116812877Y-81091890D01*
X116812868Y-81091882D01*
X116642781Y-80976766D01*
X116642777Y-80976763D01*
X116642773Y-80976761D01*
X116642771Y-80976760D01*
X116498723Y-80915075D01*
X116453968Y-80895909D01*
X116453961Y-80895907D01*
X116422683Y-80889103D01*
X124952450Y-80889103D01*
X124962768Y-80990101D01*
X125016995Y-81153749D01*
X125017000Y-81153760D01*
X125107501Y-81300483D01*
X125107504Y-81300487D01*
X125229410Y-81422393D01*
X125229414Y-81422396D01*
X125376137Y-81512897D01*
X125376148Y-81512902D01*
X125539796Y-81567129D01*
X125640800Y-81577448D01*
X125739949Y-81577447D01*
X125739949Y-80852449D01*
X124952450Y-80852449D01*
X124952450Y-80889103D01*
X116422683Y-80889103D01*
X116253268Y-80852250D01*
X116253267Y-80852249D01*
X116253263Y-80852249D01*
X116207118Y-80849500D01*
X114292882Y-80849500D01*
X114246737Y-80852249D01*
X114246732Y-80852249D01*
X114246731Y-80852250D01*
X114046038Y-80895907D01*
X114046031Y-80895909D01*
X113857228Y-80976760D01*
X113857218Y-80976766D01*
X113687131Y-81091882D01*
X113687122Y-81091890D01*
X113541890Y-81237122D01*
X113541882Y-81237131D01*
X113426766Y-81407218D01*
X113426760Y-81407228D01*
X113345909Y-81596031D01*
X113345907Y-81596038D01*
X113302250Y-81796731D01*
X113302249Y-81796737D01*
X113299500Y-81842882D01*
X105000500Y-81842882D01*
X105000500Y-80315794D01*
X124952449Y-80315794D01*
X124952449Y-80352449D01*
X125739949Y-80352449D01*
X125739949Y-79627448D01*
X125640809Y-79627449D01*
X125640793Y-79627450D01*
X125539796Y-79637768D01*
X125376148Y-79691995D01*
X125376137Y-79692000D01*
X125229414Y-79782501D01*
X125229410Y-79782504D01*
X125107504Y-79904410D01*
X125107501Y-79904414D01*
X125017000Y-80051137D01*
X125016995Y-80051148D01*
X124962768Y-80214796D01*
X124952449Y-80315794D01*
X105000500Y-80315794D01*
X105000500Y-77567119D01*
X107337732Y-77567119D01*
X142680187Y-77567119D01*
X142680187Y-73648473D01*
X107337732Y-73648473D01*
X107337732Y-77567119D01*
X105000500Y-77567119D01*
X105000500Y-73066827D01*
X107337732Y-73066827D01*
X122824919Y-73066827D01*
X122824919Y-70500002D01*
X133497430Y-70500002D01*
X133499076Y-70519863D01*
X133499500Y-70530105D01*
X133499500Y-70618097D01*
X133514957Y-70715692D01*
X133515681Y-70720269D01*
X133517923Y-70747315D01*
X133523375Y-70768848D01*
X133524260Y-70774430D01*
X133524261Y-70774434D01*
X133536446Y-70851366D01*
X133536447Y-70851369D01*
X133570646Y-70956624D01*
X133571919Y-70960544D01*
X133578843Y-70987884D01*
X133586398Y-71005107D01*
X133588303Y-71010971D01*
X133588306Y-71010977D01*
X133609432Y-71075993D01*
X133665729Y-71186482D01*
X133667362Y-71189687D01*
X133678529Y-71215145D01*
X133686728Y-71227695D01*
X133689756Y-71233637D01*
X133689757Y-71233639D01*
X133716657Y-71286433D01*
X133798666Y-71399308D01*
X133798667Y-71399310D01*
X133800485Y-71401812D01*
X133814261Y-71422898D01*
X133821580Y-71430849D01*
X133825803Y-71436661D01*
X133855480Y-71477506D01*
X133855485Y-71477512D01*
X133969438Y-71591465D01*
X133982337Y-71605477D01*
X133987358Y-71609385D01*
X134022490Y-71644517D01*
X134172815Y-71753735D01*
X134172857Y-71753765D01*
X134178172Y-71757902D01*
X134179657Y-71758706D01*
X134204073Y-71776445D01*
X134213565Y-71783342D01*
X134424003Y-71890566D01*
X134424005Y-71890566D01*
X134424008Y-71890568D01*
X134533392Y-71926109D01*
X134648631Y-71963553D01*
X134881903Y-72000500D01*
X134881908Y-72000500D01*
X142118097Y-72000500D01*
X142351368Y-71963553D01*
X142575992Y-71890568D01*
X142786433Y-71783343D01*
X142820349Y-71758700D01*
X142821828Y-71757902D01*
X142827113Y-71753787D01*
X142977510Y-71644517D01*
X143012647Y-71609379D01*
X143017663Y-71605477D01*
X143030550Y-71591476D01*
X143144517Y-71477510D01*
X143178416Y-71430851D01*
X143185739Y-71422898D01*
X143199500Y-71401831D01*
X143283343Y-71286433D01*
X143313271Y-71227695D01*
X143321471Y-71215145D01*
X143332632Y-71189696D01*
X143390568Y-71075992D01*
X143413593Y-71005125D01*
X143421157Y-70987884D01*
X143428079Y-70960544D01*
X143463553Y-70851368D01*
X143476620Y-70768861D01*
X143482077Y-70747315D01*
X143484318Y-70720258D01*
X143500500Y-70618092D01*
X143500500Y-70524992D01*
X143502571Y-70500000D01*
X143500500Y-70475007D01*
X143500500Y-70381910D01*
X143500500Y-70381907D01*
X143484318Y-70279740D01*
X143482077Y-70252685D01*
X143476621Y-70231143D01*
X143463553Y-70148632D01*
X143428080Y-70039459D01*
X143421157Y-70012116D01*
X143413593Y-69994874D01*
X143390568Y-69924008D01*
X143332639Y-69810317D01*
X143321471Y-69784855D01*
X143313271Y-69772304D01*
X143283343Y-69713567D01*
X143201321Y-69600673D01*
X143199512Y-69598184D01*
X143185739Y-69577102D01*
X143178414Y-69569146D01*
X143174187Y-69563327D01*
X143144524Y-69522498D01*
X143144518Y-69522491D01*
X143030561Y-69408534D01*
X143017663Y-69394523D01*
X143012641Y-69390614D01*
X142977511Y-69355484D01*
X142977508Y-69355482D01*
X142873607Y-69279993D01*
X142828786Y-69247428D01*
X142828786Y-69247427D01*
X142827113Y-69246212D01*
X142821828Y-69242098D01*
X142820350Y-69241298D01*
X142815608Y-69237853D01*
X142815582Y-69237835D01*
X142786432Y-69216656D01*
X142575996Y-69109433D01*
X142351368Y-69036446D01*
X142118097Y-68999500D01*
X142118092Y-68999500D01*
X142000207Y-68999500D01*
X135000500Y-68999500D01*
X135000000Y-68999500D01*
X134881908Y-68999500D01*
X134881903Y-68999500D01*
X134648631Y-69036446D01*
X134424003Y-69109433D01*
X134213562Y-69216659D01*
X134184402Y-69237845D01*
X134184397Y-69237849D01*
X134179644Y-69241301D01*
X134178172Y-69242098D01*
X134172922Y-69246183D01*
X134171229Y-69247414D01*
X134171219Y-69247422D01*
X134022491Y-69355482D01*
X133992793Y-69385179D01*
X133992792Y-69385178D01*
X133987343Y-69390626D01*
X133982337Y-69394523D01*
X133969483Y-69408485D01*
X133967631Y-69410338D01*
X133967632Y-69410338D01*
X133855483Y-69522489D01*
X133855480Y-69522493D01*
X133825808Y-69563332D01*
X133825807Y-69563334D01*
X133821580Y-69569150D01*
X133814261Y-69577102D01*
X133800506Y-69598155D01*
X133798679Y-69600670D01*
X133798675Y-69600672D01*
X133716661Y-69713560D01*
X133716653Y-69713573D01*
X133689756Y-69766361D01*
X133686723Y-69772312D01*
X133678529Y-69784855D01*
X133667371Y-69810291D01*
X133665729Y-69813515D01*
X133609433Y-69924003D01*
X133588306Y-69989021D01*
X133588307Y-69989022D01*
X133586404Y-69994877D01*
X133578843Y-70012116D01*
X133571915Y-70039471D01*
X133570984Y-70042336D01*
X133570652Y-70043362D01*
X133570651Y-70043364D01*
X133570649Y-70043365D01*
X133570650Y-70043365D01*
X133536447Y-70148627D01*
X133536447Y-70148629D01*
X133524262Y-70225560D01*
X133524262Y-70225561D01*
X133523377Y-70231146D01*
X133517923Y-70252685D01*
X133515682Y-70279719D01*
X133514960Y-70284283D01*
X133514959Y-70284293D01*
X133499500Y-70381907D01*
X133499500Y-70469884D01*
X133499077Y-70480121D01*
X133497430Y-70500002D01*
X122824919Y-70500002D01*
X122824919Y-69146598D01*
X107337732Y-69146598D01*
X107337732Y-73066827D01*
X105000500Y-73066827D01*
X105000500Y-70503246D01*
X105000670Y-70496756D01*
X105011805Y-70284293D01*
X105015184Y-70219811D01*
X105015794Y-70212424D01*
X105022814Y-70150112D01*
X105023553Y-70144658D01*
X105061850Y-69902860D01*
X105063420Y-69894721D01*
X105076105Y-69839144D01*
X105077172Y-69834844D01*
X105142289Y-69591827D01*
X105145007Y-69583016D01*
X105159943Y-69540331D01*
X105161178Y-69536964D01*
X105255746Y-69290603D01*
X105259762Y-69281305D01*
X105269729Y-69260608D01*
X105270863Y-69258318D01*
X105399415Y-69006023D01*
X105405891Y-68994808D01*
X105569819Y-68742380D01*
X105577434Y-68731899D01*
X105766858Y-68497979D01*
X105775525Y-68488354D01*
X105988354Y-68275525D01*
X105997979Y-68266858D01*
X106231899Y-68077434D01*
X106242380Y-68069819D01*
X106494808Y-67905891D01*
X106506023Y-67899415D01*
X106758318Y-67770863D01*
X106760608Y-67769729D01*
X106781305Y-67759762D01*
X106790603Y-67755746D01*
X107036964Y-67661178D01*
X107040331Y-67659943D01*
X107083016Y-67645007D01*
X107091827Y-67642289D01*
X107334844Y-67577172D01*
X107339144Y-67576105D01*
X107394721Y-67563420D01*
X107402860Y-67561850D01*
X107644658Y-67523553D01*
X107650112Y-67522814D01*
X107712430Y-67515793D01*
X107719811Y-67515184D01*
X107996756Y-67500669D01*
X108003246Y-67500500D01*
X141996754Y-67500500D01*
X142003243Y-67500669D01*
G37*
%TD.AperFunction*%
%TD*%
M02*
